/* XPM */
static char *c8597ffe79244beb860d261726381ff6[] = {
/* columns rows colors chars-per-pixel */
"64 64 243 2 ",
"   c #090504",
".  c #1A0C04",
"X  c #1D1008",
"o  c #2A160B",
"O  c #33180A",
"+  c #331E11",
"@  c #2A1D16",
"#  c #362213",
"$  c #3B2413",
"%  c #3C2B1C",
"&  c #382719",
"*  c #2D2419",
"=  c #3E2F22",
"-  c #3F3024",
";  c #49220F",
":  c #412514",
">  c #4C2514",
",  c #442A16",
"<  c #4D2B16",
"1  c #442D1B",
"2  c #4A2E1A",
"3  c #4A2318",
"4  c #542D19",
"5  c #532B18",
"6  c #4C311D",
"7  c #53341E",
"8  c #5B341C",
"9  c #5D391E",
"0  c #52240D",
"q  c #653A1C",
"w  c #67391C",
"e  c #793D1A",
"r  c #69240E",
"t  c #402F21",
"y  c #453222",
"u  c #4C3522",
"i  c #473728",
"p  c #533621",
"a  c #553924",
"s  c #5C3B23",
"d  c #5B3E29",
"f  c #563A26",
"g  c #5A2E20",
"h  c #633D22",
"j  c #6A3E23",
"k  c #683726",
"l  c #7A431A",
"z  c #5C422C",
"x  c #59402B",
"c  c #5B4532",
"v  c #644125",
"b  c #6C4224",
"n  c #63432A",
"m  c #6B452A",
"M  c #6D492E",
"N  c #66482F",
"B  c #724525",
"V  c #794522",
"C  c #7C4A25",
"Z  c #73462A",
"A  c #744B2C",
"S  c #7C4C2B",
"D  c #754627",
"F  c #7E512F",
"G  c #624631",
"H  c #654932",
"J  c #6B4C33",
"K  c #6B4F38",
"L  c #664D38",
"P  c #744D31",
"I  c #784F31",
"U  c #745234",
"Y  c #7C5334",
"T  c #74543B",
"R  c #7A563B",
"E  c #7B5A3D",
"W  c #6C513A",
"Q  c #7C5E43",
"!  c #766644",
"~  c #912F15",
"^  c #9C3C24",
"/  c #B8390C",
"(  c #C02809",
")  c #844C1C",
"_  c #8E491B",
"`  c #88521E",
"'  c #814E2A",
"]  c #884823",
"[  c #85532C",
"{  c #89552E",
"}  c #8E592D",
"|  c #8B5423",
" . c #965928",
".. c #825534",
"X. c #895631",
"o. c #855936",
"O. c #8C5B34",
"+. c #855A39",
"@. c #8B5E3A",
"#. c #825738",
"$. c #925D34",
"%. c #915E39",
"&. c #9B5734",
"*. c #9D4829",
"=. c #A74525",
"-. c #A35A24",
";. c #A75833",
":. c #B35735",
">. c #AB4E31",
",. c #8E613D",
"<. c #8E6037",
"1. c #956135",
"2. c #9B6335",
"3. c #93633C",
"4. c #9B653B",
"5. c #9D693D",
"6. c #966C3D",
"7. c #9D723E",
"8. c #A9642A",
"9. c #A96629",
"0. c #B3682A",
"q. c #B4712F",
"w. c #A16736",
"e. c #A36936",
"r. c #A46B3B",
"t. c #AA6E3D",
"y. c #AE6836",
"u. c #B4653C",
"i. c #AD713E",
"p. c #B47539",
"a. c #DC5F22",
"s. c #C57B3B",
"d. c #D67E38",
"f. c #E85915",
"g. c #8C6443",
"h. c #936542",
"j. c #956945",
"k. c #9B6B44",
"l. c #9D6E49",
"z. c #976A46",
"x. c #9F704B",
"c. c #9D7250",
"v. c #A26E43",
"b. c #A06F49",
"n. c #AB6B40",
"m. c #B96A42",
"M. c #A67145",
"N. c #AC7343",
"B. c #A4734C",
"V. c #AA764B",
"C. c #AD794E",
"Z. c #B27644",
"A. c #BA7344",
"S. c #B57945",
"D. c #B37B4C",
"F. c #BB7E4A",
"G. c #B97847",
"H. c #A67751",
"J. c #A97751",
"K. c #A77851",
"L. c #AC7B53",
"P. c #AB7E59",
"I. c #B27D53",
"U. c #B15C42",
"Y. c #C27A4A",
"T. c #C27C53",
"R. c #B9803F",
"E. c #C0843E",
"W. c #F28831",
"Q. c #BC814C",
"!. c #BC8848",
"~. c #B58155",
"^. c #B98355",
"/. c #B5835A",
"(. c #BB865A",
"). c #BD895C",
"_. c #BD8A61",
"`. c #BA8760",
"'. c #C3834D",
"]. c #C7854C",
"[. c #CC914A",
"{. c #D69A4B",
"}. c #C48653",
"|. c #C58953",
" X c #CB8C54",
".X c #C38659",
"XX c #C38B5D",
"oX c #CA8D5B",
"OX c #CA8553",
"+X c #CD915D",
"@X c #D39C54",
"#X c #D3945B",
"$X c #D59A56",
"%X c #D08E56",
"&X c #F19343",
"*X c #DCA255",
"=X c #D5A25D",
"-X c #DCA65D",
";X c #DCAA5C",
":X c #F6A848",
">X c #E5A95A",
",X c #E9A94A",
"<X c #C38E62",
"1X c #CE8F60",
"2X c #C59164",
"3X c #CC9464",
"4X c #C69369",
"5X c #CA9569",
"6X c #CC9A6A",
"7X c #D29663",
"8X c #D39966",
"9X c #D49B6A",
"0X c #D99E6B",
"qX c #D29D70",
"wX c #E09D63",
"eX c #D6A563",
"rX c #DCAA64",
"tX c #DCA16D",
"yX c #DBAB6C",
"uX c #D8A567",
"iX c #DDB169",
"pX c #DCA472",
"aX c #DDAE73",
"sX c #D3A372",
"dX c #DEB175",
"fX c #DDB37A",
"gX c #E3AC65",
"hX c #E3B36C",
"jX c #E3B468",
"kX c #E2A875",
"lX c #E2B475",
"zX c #E5B97A",
"xX c #F1B57D",
"cX c #FFCA5C",
"vX c #E9C47A",
"bX c #F6C47D",
"nX c #FFFF78",
"mX c #E4BC82",
"MX c #E6C181",
"NX c #EAC687",
"BX c #EFD18C",
"VX c #EDCF8F",
"CX c #F3E49F",
/* pixels */
"& P n s 7 d T K K J M K T R E T U U K K J J W J J K K K H H K J J N G H H J H H G H J N J J H G N d c c z d x z J z u 7 n v s & ",
"M wX].p.t.V.kX8X0XpX0XkXtXtXkX0XkXkX0XtXtX9X0X9X0X9X9X0X8X8X0X8XoX).3X3X8X7X<XXXXXoX+X3XXXXX3X(.L.b.I.I.L.I.^./.L.<XB.N. XG.].A ",
"n ].U U i.k.XXT g.3XXX2XXX<XXXXX2X2X^.I.).XX).~.).).(.^.(.).(.(.L.L.~.C.L.L.L.C././.P.I.V.V.K.b.b.b.h.k.M.v.C.E = l.h.D.N.i r.A ",
"h  X2 s S.v.2X% m 9X).<XXX2X2X_.<X(.~.~.(./.~.~.~.^.^.~.~.D.L.^.(.(.H.k.B.(.).^._.`._.P.K.H.B.l.H.l.k.H.P.H.L.P o H.h.S.v.O r.Y ",
"d #Xl V D.V.xX&.r.kX7X0XtX7X7X7X+XXXoXXXXX^..XXXXXXXXX|.XX(.XX3X+XXX~.~.XX3X3X+X<X<X).I.k.C.I.L.I.I.C.L.I.F.C.4.S XXk.V.F.e OXP ",
"d  X} $.}.h u 6 7 v z v n z s s x s s s s p 9 s 9 z s s s s s x s s 7 7 s 9 9 a p p 7 2 $ 2 p p 2 p p 7 p p 7 6 , 6 < D.1Xv. XP ",
"n  XS.i.OX#   i i 1 & # & = = & % u u i 1 % % # $ % % % % % 1 1 = 1 - i y - - 1 y i u u u y t y 2 y t t 2 y y i u   . Q.8XoX7XA ",
"v OXi.r.F.7 f c.B.x.z.g.c.P.P.c.l.K.K.B.z.h.h.h.,.g.z.j.h.z.z.j.j.j.j.z.z.z.z.z.j.l.l.z.h.h.j.z.z.l.l.h.h.z.l.c.x.L $ Z.#XoX7XU ",
"N $Xi.1.Z.p L /.P.L././.`.qX5X4X4Xn.;.B.L.H.L.H.B.K.L.H.K.L.K.x.x.c.K.K.H.K.P.L.P.L.H.B.l.H.H.L.L././.L.C.B.x.x.x.W $ i.#X+X7XP ",
"K +Xr.2.i.u L P.P.L.L.K./._._.4X<X-.a.] L.H.H.H.B.x.H.x.x.x.B.x.x.K.C.B.H.K.P.L./.P.H.H.L.L./.P././.(.P.L.H.l.z.x.G $ V.+XoX$XU ",
"J Z.4.N.Z.7 W (.<X<X_.`.4XqXpXpX9Xs.W.Y.(._./././.P./.~././.~.~.(.(.)._.(.(.(.5X4X4X_.<X<X4X4X5X4X4X<X4X4X_.).(./.E , t.XX|.%XU ",
"m %XQ.Q.Y., & Y #.#.@.+.#.+.g.g.&.s.:XE.#.+.#.#.o...Y o.Y Y Y ..Y Y U Y o.Y U Y Y #.+.+.+.+.@.+.+.+.Y +.,.+.,.,.+.a # Z. XQ.'.A ",
"v OXQ.^.}.: o s s 9 h v m m s < ] W.*X&Xe 8 9 9 9 8 8 8 8 8 8 8 9 9 9 v b m J P P Z m b h b m h v q b h h q h q 8 o + S.}.N.S.A ",
"s  X|.XXF.7 x c.~.H.B.B.B./.<Xl.$.:XnX,X&.k.k.k.3.h.3.h.h.z.j.z.x.x.c.l.B.~././.P.P.I.P.L.L.I.L.P./.(./.~.~.P.B.6.x $ i.|.p.Q.A ",
"s OX|.XXQ.2 u h.l.,.,.+.A ..l.3.-.cXcX,X@.<.+.+.+.<.,.,.h.,.h.h.h.h.,.h.h.,.h.h.,.z.x.x.l.z.l.h.k.l.l.l.l.B.l.j.+.a $ Z.oXS.|.A ",
"s !.S.i.S.6 x z.x.x.l.,.o.@.z.g.-.:XW.W.1.<.<.E +.+.,.,.+.+.@.h.,.,.h.z.,.v ,.x.B.B.B.B.l.l.l.l.k.l.l.B.x.x.3.<.+.a $ Z.+XQ.%XY ",
"v Q.N.e.F.7 f z.l.k.z.6.,.h.z.,.-.f.f.W.{ +.<.Y o.o.o.@.<.,.@.@.<.,.,.<...m ,.z.l.b.l.l.B.B.B.B.B.B.b.B.l.z.@.@...6 # S.+XQ.%XU ",
"z '.Z.t.Z.2 a j.l.z.z.k.j.z.z.z.A ( f./ [ <.,.<.,.@.o.@.g.h.3.@.g.g.+.3.B.B.z.z.x.B.H.H.L.K.B.B.z.B.b.l.6.<.Y o.o.6 # Z. XQ.%XP ",
"h '.i.2.N.6 f z.z.h.z.3.@.g.l.z.U 5 ~ r ,.,.+.@.+.@.@.3.z.h.g.,.,.h.l.l.z.k.l.k.l.H.l.l.B.l.l.b.B.h.z.x.@.F X.A Z 2 # S.|.Q.%XM ",
"v '.i.i.Z.1 a g.@.o.+.o.X.@.3.3.3.1 b b +.+.O.+.+.@.@.,.3.,.@.@.3.k.B.B.3.k.z.l.B.L.H.L.L.B.B.b.B.,.@.h.U ..,...S a $ p.oXQ. XU ",
"d '.S.Q.Q., a 6.3.3.,.,.,.3.@.,.3.m 7 m <.@.,.@.@.@.3.h.3.@.@.,.z.l.l.B.L.H.H.K.H.H.B.H.B.B.B.B.B.x.,.Y +.+.@.@.o.u $ i.oXQ. XP ",
"s '.i.Q.Y., f ,.,.@.+.<.@.,.@.%.@.S 8 S @.@.@.+.+.,.,.3.,.3.h.3.z.B.l.k.l.x.b.l.B.B.B.l.B.z.z.l.z.h.,.+.+.+.@.Y F 2 $ S.|.Q.%XU ",
"h '.N.D.Q., u ,.....,.,.%.,.@.o.@.Z k o.+.+.o.+.,.,.3.3.h.h.j.3.z.K.B.M.B.l.M.H.H.H.H.H.P.B.B.B.z.,.o.o.o.o.Y [ ..6 $ Z..X^.%XY ",
"9 S.N.S.S.1 1 +.@.X.3.3.3.,.@.@.h.j k <.<.3.3.3.3.3.z.k.z.3.3.k.l.B.M.x.B.B.b.k.l.v.b.H.B.B.M.l.$...@.@.<.+.o.@.@.s $ i.}.Q.$XY ",
"s S.i.Z.D.: o h b b w j j j b b j k 3 8 8 8 9 9 9 s 9 8 q b j q q q q q q q q q q q q q q q q w w w w h q q q w q # + p.XXQ.#XR ",
"h F.r.N.Z.2 u h.h.3.,.h.h.@.@.S k + + 4 S [ E ,.@.+.+.,.h.k.H.~.~.V.K.B.B.C.V.B.H.C.l.V.M.l.z.+...+...#.#.#.@.3.%.a $ N.}.Q.8XU ",
"d F.t.N.t.2 f 4.v.k.5.k.k.4.k.h o X + : X 7 v.r.r.4.M.V.Z.M.V.).).(.XX).).).(.~.XX).C.XX~.B.B.4.4.4.1.%.3.3.5.k.%.s : i.Q.Q.#XY ",
"h F.N.Z.t., a @.@.$.$.{ { { O.j 6 2 $ 3 # 7 [ ' $.o.1.v.k.k.1.$.1.5.M.5.k.M.M.M.v.k.M.5.4.{ { [ X.1.[ ' { } X.[ V 7 $ i.F.S. XA ",
"s S.N.F.N.: 6 o.1.$.X.[ o.' C $.O.h o Z X.{ S [ 4.B.B.L.V.n.$.[ O.2.4.1.1.1.M.D.5.v.V.4.3.{ [ { X...[ ' S C { { [ 7 $ t.N.N.'.M ",
"s S.V.~.t.: 7 ..[ [ ..$.%.O.[ { $.S 3 C [ [ V [ k.B.k.z.4.k.4.r.r.$.O.1.1.<.1.5.4.5.M.5.{ S [ [ ' [ { { { { } $.{ 7 2 r.N.M.F.m ",
"s D.r.S.r.: 6 @.C B S O.O.O.O.$.{ D 3 e S C O.z.l.h.4.K.z.1.3.k.M.O.1.v.4.2.3.4.v.k.5.1.{ { [ { { { $.O.{ $.O.[ V s 6 r.N.r.'.b ",
"s Z.r.N.t.: : { O.X.[ V C { { ' ' ..3 S @.C M.K.l.z.B.I.M.z.1.[ O.v.1.O.1.$.5.v.v.1.%.,.O.1.O.{ C V ' { { { $.} S s 6 t.N.t.'.J ",
"s D.r.r.r.< 6 C ' O.4.O.{ ' S X.k.+.3 S k.X.3./.K.l.B.).L.1.$.5.{ 4.D.v.v.V.C.L.I.B.1.3.1.%.O.' [ $.5.k.1.} { [ ' > $ N.i.2.Q.A ",
"h F.r.4.t.6 z k.5.[ C 1.5.M.B.N.v.B ; 4.k.5.k.v.^.L.~.XXI.r.V.V.2.M.<X<X~.^.).~.v.k.k.v.l.4.O.C v.(.D.4.{ ] l B V < : N.i.2.i.m ",
"s Z.w.N.r., x l.B.O.' } 1.5.1.$.} q : I.Z.k.B.M.I.L.D.I.I.V.V.N.I.~.I.C.C.C.V.v.$.1.k.v.k.4.k.$.$.4.v.r.v.4.2.1.{ 9 , r.N.2.S.N ",
"s i.2.N.2., s O.5.r.M.k.r.M.7.M.v.S : M.~.D.N.N.D.I.I.).XXXX.X<X).~.(.XXI.I.I.v.l.B.V.V.M.M.v.D.I.v.V.M.M.M.M.N.M.n , r.N.r..XJ ",
"s p.4.v.w.: p O.1.2.r.4.1.6.2.2.4...$ $.1.$.5.4.5.r.M.M.M.M.v.V.Q.V.N.V.r.5.5.1.3.1.4.4.1.4.4.5.%.2.4.r.1.O.[ [ ' 6 $ r.N.r.Q.J ",
"h F.w.r.r.$ # B B m m B b v b C C b < ' O.k.3.O.@.O.X.' ' ' X.D 8 b S A m B B m 9 9 M Z m P A q b m h 7 7 v B ..{ 2 $ r.N.i.Z.m ",
"v F.2.r.M.2 n B.P.K.C.B.~.~./.(._.<X<X4XqXsXqX5X5X2X<X5XqXqXkXQ   w V j 8 h 8 w > > B X...Y D 8 Z m 4 8 0 8 D N g.R 6 r.t.r.i.h ",
"d F.r.N.i., z l.~.~.~.^.).XX).~.).).XXI.~./.<X~.V.M.C.<X9X5XkXQ 0 |  .0.q.q.9.y.0.q.!.!.@X'.s.!.S.q.q.s.p.0.Y 1 8 v $ r.i.r.i.v ",
"s F.M.S.t.: x B./.~.~.(.).2X).(./.<X<X).^.3XqX(.I.V.I.XX2X6XqX#.e ! _.bXjX-X;XlXlXzXOXA.n.rXhXzXhXrXiXdXzX>X6.v j s 1 w.r.t.i.v ",
"s F.N.N.r., H I.(.(.XX5X2XXX6XXX<X3X<X(.).5X).(.).<X).<X5XqXkXR l >XlXMXyX$XrXeXzX#X>.~ ~ '.D.jXeXrXeXaX-XeX,X_ s N 6 w.r.r.p.h ",
"8 Z.N.Z.r.1 J V.~.).2X5X2X).(.).<X<X_.(.).L.L.)./.^.I.(.<X2X9XI ) gXlXyXeXyXmXeXrX7XU.;.F.;.y.jX=XeXeXeX=XMXgX_ s G 2 2.r.r.i.h ",
"8 r.2.N.r.1 G l.~.C.L.C.C.~.(.~.^.^.~.I.P.L.(.(.~.I.L.~.I.I.^.P l *XlXyX@XrXfXdXyXmX<XoX}.u.eXfXrX@XuXuXyXzX-X) 4 z 1 w.i.w.i.h ",
"9 r.$.N.e., d l.V.x.C.l.j.C.L.V.D.C.C.~.I.C.L.~.^.I.I.~.I.).<XP e {.zXdX{.[.zXNXNXvXCXyX XvXlXmXvX-XyXfXyXyX-X) s z 1 e.r.w.i.v ",
"p i.4.r.w., n b.~.~.C.C.~.).L.M.B.V.v.C.^.I.~.)./.I.D.I.)./.I.n l *XzXyXy.~ }.MXG.7XsXu.=.].BXaX;.|.MXdXaXyX-X| s N 2 w.r.r.i.s ",
"p t.2.w.2., n l.~.L.C.C.).XX).P.H.C.B.M.I.~.~.^.I.I.I.~.I.I.I.h ` ;XdXeX'.+X:.y.~ =. X'.>.p.A.u.~ A.BXzXyXyXgX .m N 1 2.N.r.t.9 ",
"8 r.2.w.w.1 G B.K.C.~.C./.).2X^.L.C.C.~.I.~.~.~.D.L.I.I.I.V.^.P | >XdX=XvXMX#X@X$XyXNXNXkXiXoXT.mXvXlX3X=XeX>X| m n , 2.r.w.p.9 ",
"p t.2.r.4.< H C.(.L.~.^.).).<X^.I.I.I.^.^.(.~.^.).~.^.(.L.V.~.P  .hXdX-XOX>.=.Y.zXkX;.^.VXm.:.oX9Xn.=.p.rXdX;X) q N , 1.w.2.i.9 ",
"7 w.1.r.&., N L.).D.I.^.(.).(.).L.V.C.I.).^.~.^.~.I.~.C.C.I.^.m ` zXlX@X$X}.:.Y.u.:.r 8.vXm.:.oXY.*._ [.rXyX*Xl h J < 2.r.2.w.q ",
"p t.5.r.2.$ $ b m B B D B m Z D B b B B b b B B b A m C C D D >  .zX@X@XMXsX|.NX+XuX;X@XyXNXNXlXvXgX8X@X@X-X*X) 3 , # w.r.2.w.9 ",
"7 t.r.r.2.: a h.z.j.h.j.k.x.l.x.l.l.l.l.l.3.z.B.h.j.h.,.B.l.l.f ` jX@X@XT.m.>.aXBX#XY.uXlX%Xy.A.m.u.F.=XuXlX{.l p f , 1.r.} w.v ",
"p i.r.r.2.$ u k.I.B.B.B.H.B.B.~.^.(.P.(.XX^._.4X/.B.z.k.l./.(.h | gX{.$XdX8XY.u.'.u.^ oXT.u.=.=.T.Y.&.yXmXNXgX` m T , 1.w. .e.v ",
"p t.4.5.2.$ u 3.B.l.3.k.x.l.B.C.L.V.M.H.K.l.B.L.x.l.V.z.D S o.7  .,X*XdXNXzXjX8X9XzXmXaXlX=X[.-XiX$X@XzXVXMX>X_ s N $ 2.t.1.e.9 ",
"p r.2.r.2.$ 2 3.B.l.k.l.B.B.B.B.I.V.v.k.v.3.%.l.L.(./.,.C { 1.m 8 7.{.>XjX*X>XhXjXjXhXgXjX{.{.{.*X>X*XgXdX>X!.d j M , 1.r.2.r.9 ",
"8 t.2.2.w.1 1 o.V.B.B.B.H.H.M.V.C.M.k.4.v.o.[ %.K._.C.5.k.v.D.p   x -.0.q.-.9.p.p.p.9.p.p.9.-.9.8. .8.9.8.0.D @ h M , 2.r.1.r.9 ",
"p Z.r.$.1.$ % Y h.h.k.l.B.B.l.M.M.z.3.@.o.X.[ ..3.3.@.k.B.v.B.U % 8 4 3 4 5 s h 5 w h j j h 3 3 5 < g 4 < 4 0 . s z $ 2.r.$.r.9 ",
"s S.N.4.w.o   6 u 6 u a 6 6 p u 6 1 2 $ $ , 1 1 1 1 6 p u u 2 d n a y % y i i y t t y t y % & = & % t = * & & + &   X r.r.2.e.9 ",
"7 i.N.v.$.7 u s d d d p u u u a s a a d p p a u u p p p a x a a p f p s f s p p f 7 p p 2 2 f p 2 u u 2 2 1 1 2 , + , 2.r.2.t.9 ",
"6 t.t.S.O.{ XX(.XX/..X<XXX7X9X3X3X7XXX^.XX8X9X2X3X3X3X3X9X9X9X9X9X3X<X^.^.I..X(.C.(.<X_.I.M.V.M.L.M.V.B.M.v.n.b.N.D.3.$.r.r.t.7 ",
"8 5.Y 1.2.A j.g.z.M.C.^.2X3X3X2X<X).V.v.V.I.^.).XX).~.^.(.(.XXXX_.).I.B.V.V.H.k.%.b.H.b.l.v.k.k.b.b.k.k.l.k.v.3.E 3.Y 1.^.r.e.9 ",
"v Y * O.4.o.I.i c XX(.).2X3X2X3X3X2X).~.~.).).<X).).<XXX).^.^.).~.~.~.V.V.B.B.v.b.B.B.B.B.B.M.B.M.B.b.b.M.B.D.+.* R %.r.N.c 6.q ",
"A O.> F.r.3.9X7 Z kX8X9XtX0X9X9X9X2X7X3X9X8X8X7X3X8X3X3X3X3X7X3X2XXX.X^.I.I.I.(.I.(./.I.I.I.I.C.C.L.I.C.L.I.I.k.o h.v.N.G.+ 5.A ",
"$ s < m s 6 m , 7 M n m n n n n n h n n n n n n n n n n n N n n v n n n n n N n G n n n h n h n h d h n d h h s : f 7 s P : h 1 "
};
