/* XPM */
static char *_8b60799119a4a18ce2119bc6fbb18e7[] = {
/* columns rows colors chars-per-pixel */
"64 64 226 2 ",
"   c #020100",
".  c #0B0501",
"X  c #0D0902",
"o  c #0E0B09",
"O  c #120501",
"+  c #1C0501",
"@  c #140B03",
"#  c #1A0C03",
"$  c #130D0A",
"%  c #190F09",
"&  c #171007",
"*  c #1C1105",
"=  c #16110B",
"-  c #1C130B",
";  c #1C1511",
":  c #1C1914",
">  c #210E03",
",  c #231304",
"<  c #2B1504",
"1  c #251906",
"2  c #2C1A05",
"3  c #23160A",
"4  c #2A1709",
"5  c #25190D",
"6  c #2C1C0C",
"7  c #331C05",
"8  c #391C04",
"9  c #321D0B",
"0  c #391D0B",
"q  c #231711",
"w  c #241B12",
"e  c #2B1D12",
"r  c #2C1E18",
"t  c #351F11",
"y  c #3B2207",
"u  c #34220C",
"i  c #3B240B",
"p  c #3E290F",
"a  c #2D2213",
"s  c #262018",
"d  c #2D241A",
"f  c #342413",
"g  c #3A2613",
"h  c #362815",
"j  c #362915",
"k  c #3C2914",
"l  c #33251A",
"z  c #38271A",
"x  c #362A1C",
"c  c #3C2B1B",
"v  c #352B22",
"b  c #3A2C22",
"n  c #3D3224",
"m  c #3C3429",
"M  c #42260A",
"N  c #462808",
"B  c #432A0D",
"V  c #55330C",
"C  c #422C14",
"Z  c #492D14",
"A  c #472A18",
"S  c #422E1A",
"D  c #453115",
"F  c #4C3214",
"G  c #45311C",
"H  c #4B351C",
"J  c #4E391E",
"K  c #523413",
"L  c #593C17",
"P  c #53361B",
"I  c #543B1C",
"U  c #5A3C1C",
"Y  c #412F22",
"T  c #443423",
"R  c #4A3622",
"E  c #473825",
"W  c #4D3A23",
"Q  c #42352A",
"!  c #45392D",
"~  c #4C3C2B",
"^  c #533D23",
"/  c #573A26",
"(  c #5B3E23",
")  c #533E29",
"_  c #4B3C30",
"`  c #5D401E",
"'  c #67441C",
"]  c #4F402F",
"[  c #564125",
"{  c #5B4225",
"}  c #54422C",
"|  c #5B442B",
" . c #5E492E",
".. c #4C4132",
"X. c #544332",
"o. c #5A4532",
"O. c #5C4A33",
"+. c #544638",
"@. c #56483A",
"#. c #5B4D3B",
"$. c #634525",
"%. c #644926",
"&. c #6C4825",
"*. c #62462A",
"=. c #634A2C",
"-. c #684D2C",
";. c #714F2D",
":. c #73532E",
">. c #634D32",
",. c #694D33",
"<. c #624E3A",
"1. c #6A4D38",
"2. c #655135",
"3. c #6B5235",
"4. c #65523B",
"5. c #6B553B",
"6. c #6D593D",
"7. c #725536",
"8. c #735935",
"9. c #72563B",
"0. c #735A3C",
"q. c #7A5E3D",
"w. c #594D40",
"e. c #5C5146",
"r. c #645442",
"t. c #6C5B43",
"y. c #695947",
"u. c #67594B",
"i. c #735D42",
"p. c #795E42",
"a. c #715D48",
"s. c #6D5F54",
"d. c #756146",
"f. c #7B6244",
"g. c #75634B",
"h. c #7B644B",
"j. c #77694D",
"k. c #7C684E",
"l. c #736553",
"z. c #7C6B52",
"x. c #796954",
"c. c #7D705C",
"v. c #865E2D",
"b. c #845D32",
"n. c #8F6937",
"m. c #82623F",
"M. c #826545",
"N. c #836846",
"B. c #82664A",
"V. c #836A4B",
"C. c #8B6D4D",
"Z. c #936F4D",
"A. c #8E714C",
"S. c #93724B",
"D. c #846D53",
"F. c #896F51",
"G. c #836E59",
"H. c #867154",
"J. c #8B7354",
"K. c #84735B",
"L. c #8A755B",
"P. c #8C785C",
"I. c #927655",
"U. c #937956",
"Y. c #937B5D",
"T. c #9B7D5A",
"R. c #A37F56",
"E. c #877661",
"W. c #8D7B62",
"Q. c #937D63",
"!. c #987D60",
"~. c #9C815D",
"^. c #A3825E",
"/. c #958165",
"(. c #9A8364",
"). c #9B856A",
"_. c #988771",
"`. c #9E8A72",
"'. c #A28564",
"]. c #A48863",
"[. c #AB8B64",
"{. c #A78A6A",
"}. c #A48B6C",
"|. c #B48E64",
" X c #AC916D",
".X c #B1936A",
"XX c #B8986F",
"oX c #A38D73",
"OX c #A88F71",
"+X c #A69174",
"@X c #AC9273",
"#X c #A5947C",
"$X c #AF987D",
"%X c #B69A77",
"&X c #C29B6D",
"*X c #C8A479",
"=X c #D1A571",
"-X c #AD9E8A",
";X c #B39E84",
":X c #B5A184",
">X c #BAA586",
",X c #BAA48B",
"<X c #BFAB92",
"1X c #C7AB89",
"2X c #C4AC8B",
"3X c #CBB38F",
"4X c #D3B38C",
"5X c #DDBA8D",
"6X c #C1AB90",
"7X c #CCB493",
"8X c #C8B499",
"9X c #CEB99C",
"0X c #D6BC95",
"qX c #D2BB9B",
"wX c #CCBDA4",
"eX c #D2BDA5",
"rX c #DCC199",
"tX c #EEC48C",
"yX c #E5C69B",
"uX c #D5C1A5",
"iX c #DAC4A6",
"pX c #E4C9A6",
"aX c #E6D2B3",
"sX c #ECD9BB",
"dX c #F3D9B6",
"fX c #FFF0CC",
/* pixels */
"{.k.k.K.~ } g.K.| O.K.W.E R t.G.| 2.k.j.~ } k.K.2.4.j.K.k.d.5.k.5. .5.H.4.2.O.g.i.4.k.K.E [ 4.k.| } g.P.] H 2.j.O.2.} [ D p =.N.",
"F.5.j.l.| >.6.k.[ o.l.x.) ^ | 6.J  .j.a.| =.[ >.>.4.x.G.i.2.O.5.J } j.x.O.2.2.5.{ <.t.t.[ W  .2.D E r.g.[ [ | 6.^ E ~ f @ 2 3.H.",
"d.5.~ <.0.( 3.3.[ } X.4.h.( 3.5.} ~ #.X.~ B @ u >.<.4.t.d.-.=.E k H [ O.6.{ J k h D G S k k c D H J H n J H >.3.[ T d .   i 5.q.",
"2.{ p D a , F M 8 | r.k.f.*.N.f.^ [ } h X . @ 6 J } 4.5.=.H D 1 1 u u i F u @   . , 2 6 @     s J J k 2 * y ` P u w &   * C -.f.",
"V.3.8 @     # < 2 4 a ~ I { O.z & 1 5 @     @ * f k l 6 < & @ , , < , * 2 * . . . , , , @     , j c k i 8 u y 8 > #     O F Y.I.",
"a.d.B >     . . .   . @ # 6 .         . . .   . X X         . . . . @ # * . . O # # # # @ .     * 1 1 2 7 < , + O .   # , U (.V.",
"j.F.*.M 0 . . . . . .       k t.-       . .                                           .       ~ - . X O O O O .     # y B %.A.>.",
"t.p.-.i 2 . O .     .       6 [.qXc.$     X .     - 5 5 h x 5 w a w $ @           .       #.>X;X-   . O . . O .     2 y i -.3.4.",
"H 4.| 8 8 @ . . @ & . % % e %   p.aXaXa..   - C % # A { | 5.^ >.c O.>.- . # 3 i M 4   - :XrXG..   O O O . O O O .   * y 2 W 4.z.",
" .t.W 7 4 . . O 3 3 + b E c S q . Z 1XfX2Xc   * ( k w n T g g H 5 5 w = S C ` ' t   r.aXrXM   @ 4 6 # . 3 % # O .   @ , 7 H 0.B.",
"5.o.C 8 + . . O 3 - r _ o.S o.O.e   < V.sXsXh.. , [ ~ ] f.H ) | ~     } 7.A P # . P.fX%X< + # # i u   . e 3 3 O . O . # y F 0.F.",
"6.t.Z 8 # O O # f l Q ~ S R ^ T 1 @   * 9.eXfX#X@ , 4.#.| ( i.p.c   n f.{ / +   /.dX XF . < , , h w - r 3 6 f # . O . , 8 %.Y.J.",
"E j.H y < O O % v b Q O.H C # @ @ # @   , D.uXsX-X6 G C O , Y g     - x Z L + p.sX'.V .   @ 3 f - @ E f.z 2 A #   O # . @ -.(.p.",
"x O.^ O . O O O 3 l ! ^ 7.$.<.6 # 1 , &   f a.iXaXx.t . . b y.x.a.e.n   . O p.pX@X&.@     @ f , a x ^ ^ k 3 3 # . . O @ 6 K 8.2.",
"t.3.S O   . . O e x ] W Z %.,.g 5.O.S f @ . R Q.8X6XT _ qX7XeXqX9X9XiX-Xw 3 eX9X8.<   . 6 C C R <.~ q.k O 3 3 O .     - p K 3.[ ",
"| W C 2 , . . # - q <.K.l h  .k.4.2.,.^ , @ 3 ) +X;Xk.1.$X;X6X2X@X2X3XOXU !.qXp.K     , Z %.7.V.G W g.w.@ O # 3 .   . X u p X.d.",
"W ^ y 2 # + O @ e r @.u.Y / c x t E ^ J .   O W V.P.J.>.9 OX9X,X$XwX}.^ 9 +XY.I * . , < g >.[ I H O.g.e.@ @ % %   . + @ u k  .i.",
"O. .C 2 * O # * 4 x m +.p.G 3 - . q l @   c O.C $.7.p.p.) R.7X>XoX,XJ.z x U.8.U * # X * u a f ` ^ +.r.) z # > @   . # , i [ q.i.",
"5.4.H y 0 O 3 # e Q +.a.} z t.~ x 5 @   ! 8.f.C k P C.Q.i.J.3X%XQ.$X}.k.^ OXL.f 3.P   - Z # * [ W y.l.4.S + 3 # .   # < i { f.h.",
"2.2.u y < + @ @ x ~ +.g.9 | %XB.z @   v Y.q.=.G / 7.p./ i.}.>XD.P.0X}.,X9.p.t.7 }.h.#   5 @ X f | g.#.4.3 @ 9 # . . + @ @ ( ~.N.",
"T J 8 <   . O @ - w n ~ w  .U.[     $ Y.=XT.-.P H B.t.g.+X,X7Xd.f E.:X#XQ.F.p.%.3.K./.@     - , r a.f. .1 @ , @ . . .   X { I.8.",
"r. .p #   . . . = l ) k p h T c @   Q m.&.8.f.C n t.].!.V.(.+X] r.Q.`.d.=.0.V.z.z.E.7XJ   . . * } i.J.C # O O O         , L f.[ ",
"d.3.u @ @   . > w z 4.d.G 6 a 4 .   F m.q.].^.Y.Y.Y.'.].| ^ O.t.D.a.Y.H.I.~.Y.+X2X X*Xy.  k . r 5.O.0.~ . . . X .   O @ @ k 2.5.",
"^ ( ,   + # # - 3 l ..w.5 % f f   . M.1XS.P t @XdXiX2XP.n G f.).P W U.4XpXuX#Xl.y.oX*X,.  G W w k R r.+.    . O . @ , # @ f 2.D.",
" .4.W 6 1 # # - w b l l ~ u 6 -   R .Xb.<     , U.2X(.g - z i.B.a | S.=XXXl.d     Q [.' . # 7.e . n ..x @ . . .   . # 7 P =.0.f.",
"4.y.d.[ u @ O 3 e b n <.D.[ @     R v.>           5 @ $ P H C.) 6 { N.| .           c H O . [ 3.5 v ! b r O .       > B =.5.h.J.",
"5.z.j.} g *   @ z ~ +.) H H $     7 N     > > < #       H H 5.) %.^ F     > ^ 3       + O . g -.a - ! c # O # $   . > y [ q.Y.H.",
"T k.d.[ 2 X     e Q _ _ 2 6 $     @ O .   O M *X4Xg   # G { 1.3.6.` ,     v.tX:.    9 B -   . , S 5 * 6 & $ 6 #   . + 1 D h.}.q.",
"E t.d.D *   .   - Q r.} H 6 X   $ Z B K ,   2 [..Xg   4 U 3..XC.o.&.#   O &.n.K   . K I g     A 3.l & , 3 @ # @     @ 2 ` 8.A.6.",
"k.k.p.J &       l ~ ,.A g f .   4 ` ' I g 9 . O O O 3 B ,.P.0X3X*Xm.7     . @     p U $.;.-   4 W e   @ @ . @ .   . . , p %.f.4.",
" .O.,.u .     o 4 g +.+.k a     , u B.Q.x ) S O > B K q.(.g.2X;XC.[.U M @     3 G 5.K.i. .W . . X . ; d       .     @ & 6 H O.j.",
"W } W 6 X   . X % l +._ 3 * . . 6 3 P.$XQ b ~ 1.*. .F.%X>.  !.3.  L.'.%.F X G B.i._.3X2.  5 @     w X.b . . . X   X < * h J [ 5.",
" ...n u -   . . - x Q b a X   . - u 3.}.OXY a. XU.Q.@X0..   q.)     H.J.h.*.) L.K.K.~.` - 1 @   , ~ n w t @ # - X . # u { { 5.0.",
",.2.J 2 ,     $ # v +.} [ 5 .   1 4 g g.(.V.XX&X^. X'.3   . A A . $ >.g.U.S.B.F.:XL.[ s { k O # k ! m f 6 O # e . . * Z { -.p.0.",
"5.d.^ y *   o o X ; s ~ ^ 3     x e # ^ g h.1Xb.,.H.p.| e 6 @ * g | | | { B.rXJ.p.5., % H u X # R @.x r # # z 6   . # f Z 7.(.j.",
"t.4.F 7 * . X X   ; d l W @     & g C 4 8 ^ 9.F k ^ U ( Z >     # , t ( -.8.Y.,.< P F C c * O # , R Q e 3 , f $     > k ( 0.J.F.",
"P.5.J y * . .   X b 5.- @ * .     $ F i , @ 4 Z P C # O 8 ( T ) z O . z W I ' 9 4 B C P w . O @ l ~ ~ # , , 3 O   . 9 i L =.q.h.",
"/.d.` p *   . X % z l   @ ; & &   . 9 H ) 3 > < O . g *.M.@XQ D.'.7.D + O # <   p.H g 9 . . 6 3 c G T e O # # %     * p C ( 3.V.",
"J.2.p 7 @     $ o @ o ; s ; X @ .   . , B.V.  ; e.# Z.yXl .     4 J.5X0 D.Q.6 G.R.@ 3 $   - ^ ; # z v d X @ * q     . * f T O.d.",
"6.H < 2 -   X .       o X X X . $       a !.- : aX{.S G.          r }.t 5XQ.% |.U . .     u W # $ b d w e # % #   O @ . G ( >.5.",
"i.W u 2 .   .     $ r s = & c a @         X t . d @.                  . G   . 7 .     X # 9 k q - Q d 6 c , - #   . @ X S { i.J.",
"J.g.D < & .   X @ r l r c k G a X .         4 <     @                 $     , 2     @ & 9 9 H T a _ v e e 3 6 #   @ , * u -.U.).",
"O.k.[ 2 * . .   $ f - a G H f @ = . &     O G R e O &                 @ # r 8 6 . . g - 3 k { l % +.z f 3 4 f O   @ , , y q.}.0.",
"T 4.>.2 @   X   @ a a f P 9 T l . @ u @     k k a.o..                 . Q _ 2 ,   . u & f u g 6 ; b +.f 9 3 # O   . # * p =.N.2.",
"G.0.P u *     . % f z 6 < 6 E k 5 . a 6     q < C.*X#                 f XXl 6 -     # 3 f f 6 O ! Q o.f @ # # .   . X X , ` 6.] ",
"2.[ p @ X     X o q e l @ , T 5.a   3 w     o S ( Z.O                 R I.e E =     @ w 5 5 w X.w 3 x _ $ @ O O   .     . k =.j.",
"O.[ 1           X - 3 : - z T ~ 5 . o @     o | y > G                 @ O g W @   . @ w - . x  .f ! d w w # O @ . . .   . c O.k.",
"d.| 2         . @ f 3 ; S ^ [ k w 1 * . .   . | < f.].                6 t k ( X   .   $ 5 = G ^ f _ m w G # O .   . & * u I 6.d.",
"V.^ y 2 *       * k - e c g / W 5 a a f e   . | Z 0.P.u.          q oXl 6 (  ..   & @   . * S [ x ..r.e @ O @ O   . , D =.=.f.h.",
">.J D F u       - h 5 - 3 2 -.H 3 x e W 6     c q.k >.7Xv .     % Q.4X9 H q.H   . e e $   3 3.R l O._ c     . .   X 2 ( [ -.F.5.",
"H J H J k X   X = a h @ - 4 { t   z z f D .   . ) 5.4.M.3.].Q j.'.~ 9 I T.q.#   3 6 = - & 6 | g . s b c *         X u I %.>. .f.",
"6. .` D u X     . - 6 * > g P & - x H g ( k     Y k.U.P M Z.7.( t.t ,.@XT.6     w a - # @ 3 D 6 . X z 4 * X .     & B B L K =.8X",
"_.=.6. .1 @ .   X & 6 a # 9 g e e 1 g x 5 [ @   $ >.{.P.4.4.G.D.G.oX2X}.G   $ d f - - a . - c x :   w a X X . .   * B u 6 k 5.).",
"d.[ u.s.- @ .   . . - 6 O + 4 c - @ a n - w c w   O u.#XP.K.`.<XoXW.x.v   l c Y 5 $ v E & @ l R - . = d X . . .   @ 2 p h D  .2.",
"J ] #.W @ X     . .   . # > 9 a & - - - - 4 S g $   : Q _ X.>.r.~ l X   $ z 3 w - - b l h 5 a f @ X o = @ . . .   . 7 F *.=.2. .",
"[ 4.2.J * .   . X .     # 6 g u * # @ , 9 p f 3 - X @ @ .   o . o     $ $ X X 5 3 $ 3 z k & 1 - .   . & & X . & . . , p U 2.h.8.",
">.6.3.D X   . . O .     . , # # X @ @ # , , , * * @ X X   .   . . X = ; X . . X X o - - X . .       . & # # # @   . , @ , I f.h.",
"H L u & . . . . O .               . .         . . . . . . . . . . . X . X . . .                     . .           . , * # 2 { 5.",
"  & * & .     .   .                                     .                 .     . . . . . . X @ - - 1 2 3 , @ X . . X 1 u , u  .",
"&     @ .   # 2 , # , * @ 3 $ . & & * * - 3 - &     .               X . @ X . & a f u u k 6 @ & p B B N B 8 2 y , * . . p 7 6 | ",
"I X     . , 2 7 y < u y C C w h a & B F c G d s $   X X .   .   . @ * # * y 6 x h - K U [ H d : u p F F 6 < p K u 2 ,   , y 2 D ",
"` *   X 2 2 F [ p 7 2 8 i , < y < 1 F y 1 i k u u - & @           . & * 1 j k D u - [ E - h [ [ B i | #.f G I =.D 2 2 < 2 u 2 y ",
"2 . s I [  .d.f.5.| p [ 2.y D B C ` { J ` W 3.%.| X.] ] T ; . . = 5 f W } ]  .=.[ ] O.O.<.[ 8.;.[ ] ] #.8.-.t.6.%.[ p y u 2 J 0.",
"-.4.f.-.q.(.oXJ.=.k.W.P.h.-.q.f.O.t.z.K.N.3.F.V.2.j.P.J.P.0.6.6.>.t.j.P.J.8.V.f.| l.c.J.J.3.h.f.5.4.6.P.).8.f.f.2.5.8.{ [ D 5.Y."
};
