/* XPM */
static char *_f636c4a13a24797e9079f94be303fb2[] = {
/* columns rows colors chars-per-pixel */
"64 64 193 2 ",
"   c #020101",
".  c #0A0603",
"X  c #0D0905",
"o  c #0E0B09",
"O  c #120C06",
"+  c #190E06",
"@  c #130E09",
"#  c #190F09",
"$  c #171106",
"%  c #1C1207",
"&  c #16110B",
"*  c #1C140C",
"=  c #1E190D",
"-  c #171411",
";  c #1C1611",
":  c #1E1913",
">  c #1D1B1B",
",  c #22160C",
"<  c #241A0D",
"1  c #291D0E",
"2  c #211711",
"3  c #241C13",
"4  c #2A1E13",
"5  c #251E19",
"6  c #291F19",
"7  c #311F16",
"8  c #2C210E",
"9  c #262013",
"0  c #2C2214",
"q  c #2F2B15",
"w  c #26211B",
"e  c #2C231A",
"r  c #2F281B",
"t  c #322415",
"y  c #3B2614",
"u  c #342B16",
"i  c #3A2916",
"p  c #32261A",
"a  c #3A271B",
"s  c #342A1C",
"d  c #3A2C1D",
"f  c #363011",
"g  c #383116",
"h  c #3D321D",
"j  c #252522",
"k  c #2D2520",
"l  c #2E2924",
"z  c #342B22",
"x  c #3B2E22",
"c  c #352E29",
"v  c #3A2F2A",
"b  c #373125",
"n  c #3D3224",
"m  c #37312D",
"M  c #3C332A",
"N  c #3B3331",
"B  c #3F3932",
"V  c #412E1E",
"C  c #42331E",
"Z  c #433A1F",
"A  c #402E21",
"S  c #433424",
"D  c #493626",
"F  c #463A24",
"G  c #4A3B26",
"H  c #43362A",
"J  c #49362B",
"K  c #453A2C",
"L  c #4B3C2C",
"P  c #503D26",
"I  c #523E2C",
"U  c #453C32",
"Y  c #4B3E32",
"T  c #513F32",
"R  c #49421F",
"E  c #454027",
"W  c #4E412C",
"Q  c #4F482A",
"!  c #514A21",
"~  c #52432D",
"^  c #58472F",
"/  c #564A2D",
"(  c #5A4E2D",
")  c #5A512A",
"_  c #474032",
"`  c #4D4134",
"'  c #4F4836",
"]  c #4D4439",
"[  c #534434",
"{  c #594634",
"}  c #564935",
"|  c #5A4A35",
" . c #534639",
".. c #59473A",
"X. c #55493B",
"o. c #5B4C3C",
"O. c #5D5037",
"+. c #5E513D",
"@. c #614E3D",
"#. c #684F3A",
"$. c #625737",
"%. c #62523D",
"&. c #655E3C",
"*. c #695D3E",
"=. c #745F3E",
"-. c #4D4641",
";. c #554C42",
":. c #5B4E41",
">. c #575043",
",. c #5D5143",
"<. c #5E5449",
"1. c #5C5751",
"2. c #614F40",
"3. c #635443",
"4. c #695645",
"5. c #665945",
"6. c #6B5B45",
"7. c #63564A",
"8. c #685749",
"9. c #655A4B",
"0. c #6B5C4B",
"q. c #725D45",
"w. c #715E4B",
"e. c #785F4D",
"r. c #655D51",
"t. c #6A5E52",
"y. c #685F58",
"u. c #6D6245",
"i. c #6D614D",
"p. c #716447",
"a. c #746945",
"s. c #7F6D47",
"d. c #72624D",
"f. c #75684E",
"g. c #796E4B",
"h. c #7B714F",
"j. c #6D6153",
"k. c #736453",
"l. c #7A6554",
"z. c #756955",
"x. c #7A6A55",
"c. c #756659",
"v. c #78675B",
"b. c #766A5A",
"n. c #7B6C5B",
"m. c #7D715D",
"M. c #766D61",
"N. c #7C6E61",
"B. c #7E7163",
"V. c #7D7469",
"C. c #816E56",
"Z. c #816E5C",
"A. c #82725D",
"S. c #89745E",
"D. c #837463",
"F. c #897562",
"G. c #857865",
"H. c #8C7B65",
"J. c #84776A",
"K. c #877A6C",
"L. c #8B7D6C",
"P. c #917E66",
"I. c #907E68",
"U. c #877C70",
"Y. c #8C7F71",
"T. c #907F73",
"R. c #8E8163",
"E. c #8E816D",
"W. c #93836D",
"Q. c #8D8171",
"!. c #938573",
"~. c #998775",
"^. c #978976",
"/. c #9A8A75",
"(. c #978A7A",
"). c #9D8E7D",
"_. c #A3957C",
"`. c #AB9C7E",
"'. c #A49685",
"]. c #AA9B86",
"[. c #A49689",
"{. c #A69B8F",
"}. c #A99A89",
"|. c #AD9F93",
" X c #B1A089",
".X c #BAA68C",
"XX c #AEA294",
"oX c #B2A592",
"OX c #B6A996",
"+X c #B7A99A",
"@X c #BEAF9C",
"#X c #C5B8A5",
"$X c #CCBDAA",
/* pixels */
"n.,.<.9.c M ;.j.K K <.j.l z ] 9.K ` ,.<.c m >.9.` ' :.9.<.X.' <.' K  .<.' ` _ ,.;.' <.t.z b ' 3.M M ;.j.n z  .3.U ` K n s 9 L ,.",
"7. .5.1.K [ X.0.U M <.9.M H K X.n K 9.9.[ [ H ` ` ] 1.r.:.` U ` n H 7.<.U Y ' o.J ` >.X.n M K ` n n ] >.K F ` >.H n m e $ ,  .7.",
"o.} L X.5.[ o.,.F U U ,.0.[ o.,.` K ] X.` S 3 r ` X.>.3.3.[  .n p ` [ W ,.L S p r s n n n s z M L K b n n h } 3.F M w @ X 0 | X.",
"` [ M L n p [ F n o.,.t.x.5.n.x.:.o.,.U r e 9 r L  .,.3...F G q * H h H } n : - e s z z e : > b K ` n 3 3 t G L z x 3 o 1 n Y o.",
"<.' a z l r '  . .,.o.0.l.w.J.>.X.,. .X.r.K x M K K n x m n K M p s H ] ` n M N M K K p l w w s L L  .F W } S i e s w - & S x.0.",
";.X.x K :.D.n.n.D.z.H.W.A.q.W.{.Y.).u.p  .L U Y >.1.;.U _ 9.3.K 4 ' m.G.D.0.7.} K ` u ' o. .E ' B.,.` !.~.E.3.x.W : & 0 s ~ m.3.",
";.0.} 9. .7.c.W.!. .W 0.3.D.!.H.oXC.o.S J 2.} } !.E.b.d.x.R./.f.5.%.l.S.A.3.3 | 0.o.9.F.L.m.g.H.(.C.!.}.`.} K.`.=.k < D I { 0.U ",
" .5.G n.OXY 9.c.3.` ` o.L 5.3.S a j. .A S o.)./.6.[ 5.G.G.} b._.E.W.).x.4.} t W.A.4.$XOXD.M.k.%.5.o.k.6.k.x.Y.x.+.U H x a L  .` ",
"s  .u L.!.3.D.X.L 5.Y.D s t < [ # U r P ~ >.XXW.m.%.~ K M H , h o.3.a.i.} { G ,.n E.#XXX6.~ ;.z.k.3.^ X.:.B.] :.G.' 9 0 * H X.,.",
"L  .X.^.!.!.z.L U Y  .# , O 5 3.p , 1 ! C D.A.z.E.i.} a + < K *.~ G h W X.H p X.S j.z.G.z.d.W XXK.,.M.[ o.z.z e ,.s % * , n X.,.",
"` K z.oXj.<.c.9.1  ...d 9 1 G 7.L H ( p.F [ A.4.0 5 d @.G n z ~ F %.L ' | q h G l.6.6.~ n.}.d.%.U L G.t.3.0.L o.m.F . = t x X.5.",
" .>.+.b.n.l n.G.} } @.$.&.n.0.5.n W q.@.K n S %.3.d < o.b.C.A # L X.K  .N.Y Z f 6.].).$.d.^.q.d X e U -.B.0.i Y M.L . 3 4 F k.9.",
"z 9.S k.0.D.c.Q.B.9 8 ~ h.:.z o.z.o.H d H 7.H G 0.0.D L 9.i.x x j.5.S + 4 T %.a.$.D.Z. .i } X.M n D - . z x.} 0 s x 5 & & [ z.X.",
"9 ` ` 9.e 9.9.j.(.j.9.k.X.H H 9.z.%.h L %.8.} x 3.z.Y } n.8.v U | i.X.o.N U x X.3. .k.^.#.~ d.M U K.K e n G W M x % & : 0 C X.L ",
"X.` ,.] e k.5.C 9.c.U.0.%.o.6.k.+.F 1 n [ V } ,.,.` o.Y %.T ..w.} } K r.[ 2 4 d 3.L.F.v. .{ { 5 M [ S 4 [ ` p S J n - 3 0 S } n ",
"M s x.z.* o.L.' & 3.3.Y o.3...A K J < & ~ t 5 z ..o.4.6. .o.} T l.S 1 J x * S A } n.3.x @ u S O  .#.4 . K H.H n 9 p ; O t x Y ;.",
"z s [ n.] X.X.t.t.:.G a D  .S 3 J o.n F [ n k J { o.J d  .0.3.3.[ U J u h n o.Y M | 6.%. .k p d ) h.,.Y ` G [ W s p 2 * p n ` o.",
"U r z E.M.,.k.K.F.#.6 6  .o.H o.T 3.[ ..H ..l.X.d 5.[ + O H 5.J & . 7.:.h S J G 5.H.6.d.8. .x P R / 0.L D z K d e r % 4 p I 3.X.",
"` b : _.x.>.Q.3.n x e x [ Y U 2.4.[ d x 8.0.[ 3.0.o.o.,.M Y  .6 M m m u.F 4 C I 6.n.F.n.o.0.0.e O G 6.D S n A ~ 3 X % 4 t W 3.3.",
"_ M B 3. .,.d F x z o. .8.0.@.G { 5   p 2.Y G f.W.S d 9.:.0.G.w.H.3.E 6.q 0 d 0 1 ~ 4.o.3...{ S 0 p ~ L G [ A.^ F & O * @ D m.,.",
"z s ] K U l < d G t.n.0.6.o.s  .W & & 5 k 6 z x 3.L T 4.J } 3.6.L i D.H d ` ~ u 3 8 s T 3.[ 7 y @.I h F g h j.X.d 9 X @ O G k. .",
"] K M z.] w K r t s L U k 5 c L s , i n 3 e 0   X T ,.%.4.} d A x Y ..J } 3.L t @.D 4 ;.] 4 S s p 1 , i ~ S X.t.C * @ & & C 3.S ",
";.` s K.-.w U M X . a e 3 v L F [ 9 p Y 2 g <   , J 3.L ~ S J @.w.n S d.l.[ J x J < = c J [ 3.} 3 3 7 7 < @.| P p 4 3 * @ n o.` ",
"v F 9 m <.-.;.e + 0 S d V @.M X n n 6 : e 3 O * x 0.o.A S :.%.Y @.d  .k.x.} 0 4 u 4 4 Y [ U S X.{ S t ` p J u + # 2 4 & O p ,.9.",
"H ' K z K Y : . 4 H o.` J J b U 5 x J n 3   # W F [ J z x L Y G J S 4.x.d S  .d J 4.i , { p   e D 0 O ' S + 6   5 * 4 1 d W ,.:.",
"` -.9.} z x O 0 x v k e k & & L 5 : [ P * X Y L h Z D x Y d 3 p G W $.n d } 2.} J V % % d C t a 3 . p n u H a X . @ , a }  .,.9.",
"' <.9.K r L e , d.3.U c M z v . . 3 C d < a p 4 0 G p 7 K T a S y u 8 O 3 a J U A r 4 p 4 & & J 3 . 3 p z [ p O @ X % u W %.z.9.",
"k 3.>.F 0 M s < S , e } H 2 k.M   * , , t 6 4 O * < 2 4 1 e 3 r < t * & 8 O p d s 0 & O 4 & & 4 + 4 p u < 0 0 O @ * % 0 h d.N.X.",
"z ] >.x < 3 p 3 p t L $., X x p . * * * 3 . + z s e 0 s C : b g @ & 3 4 t = O $ O X X   X u u a t D A C @ & q s < @ 3 4 H } 9. .",
"<.,.X.d * & X X , 5 r s , @ % % X O X O X O & s r * @ t q 3 n 3 . & s q * 0 3 * X 5 t * s D & & t d t s . . & 4 % @ ; < t G ,.` ",
"M K U 3         . .   . & O @ X .         X @     .   X @ & X . . . X     . & O @ : & w r X   . X X @ @ X .   . * X O O = p K ;.",
"x M b = .     .                                                                             . .                   . & @ 3 z n ' ",
"' U v t ; - : r k w e o X : 9 z 5 k k & O & - w B _ e o       . .   .   z n & @ ; * .     . 3 : &   - 5 - j @   @ . $ 3 F J ] X.",
":.,.Y s e 3 O O * n ] U U ` X.0.:.9.v.o.N :.` K j.<.H p q =       - 0 w c ;.;.] 6 @ @ & . w ] M M z 5 z e -.y.;.] @ & n [ [ 3.8.",
"0.0.[ d 9 w 5 ` ] s  .t.b.0.o.X.k.!. XA.4.x.w.^ Q.i.C w.z.u &   . * 4 W , , ` t.J d b.I...M | z.k.k.J.^.K V.|.H.D.j.r z G %.Q.B.",
"c.5.G u 3 5 0.^.Q. .` x ] Q.A., X.~..X~.A.u.4.o.z.Q.4.x.E.~ X   X & , S W L } l.3.5.'.!.D.c.n.m.D.A.L.'.U.E.0.L.[.x.H J } k.E.D.",
"n.3.S 4 3 L i.j.Y.b.J.^.X.Q.}.i.Y G 9.k.T.L.d...G.^.D.0.5.,     & 4 a ` j.P.L * ' B.L.U.K.L.G.0.6.L.o.y H.H.a.B.n.S V C W %.6.k.",
"n.:.J u w -.-.1.K.,.S V.0.L.b.,.d J 8.c.[.[.A.B.+X^.0.} x 6 . . - 4 d A.Q.z.e *  .K.'.:.M z.x.0.).b.o.H M 9.o.o.D.:.n x d L %.k.",
"n.o.q p 5 U 1.U 9.6.:.m z } l.[ x 0.] U n.G.J.Z.x.Z.x. .U x . @ p z  .k.3.p O 0.^.B.i.$ M [ } s.(.!.9.7.Y M t { 2.x e : 0 H 9.i.",
"3.J , 4 &     e @XT.3.U 1 G 0. .n 9.] X.B.0.Q.D.2.k.d.| [ z . o s X.>.b.:.J A j.!.E.3.l.%.i C &.&.3.:.0.5.M D L ] ;.: X M ~ o...",
"0.L u 0 5 j . w m.XX<.4 d G H L A U s p z.n.z.c.:.M 8.0.o.} # . + h ' 3.5.t.n.3.7 S 0.x.J 8 F , F X.e K ,.o.m.v.[.'.w 3 U L +.z.",
"b.i.s 9 n >. .X % L <.s 5 X.t Y i.U e 4 :.N.2.[ v x :.x.{ 4.@   & F X...o.,.0.Y 2.J k l = : q % h b.X.S x 5 :.L.E.L p p u } l.G.",
"X.9.M y n n p & 4 8 } 2.` F M Y w.J s [ M 0.d.4.8.D.j.[ A a   . - U W } :.x.8.M :.E @ 6  .n.L D X.M.L.i.' 8.J W L Y H 0 1 3.G.:.",
"M o.` s K r 0 d C d.x.Z.W.%.` X.8.w.7.9.` l.l.0.t.n.x.8.d X   X 3 x [ 5. .0.[ X.Y s L D.D.0.9...L } 6.K e 3.J , & H x 2 d ..d.` ",
"k.3.G u z Y L L n.Z.Q L w.d.L 4 3.M.:.5.%...0.K 3.2.D.A.x     - r : H o.X.K i O.;. .Z.N.3. .[ k 1 0 a p r d a S v K p 3 t W 5.` ",
",.L x 5 # S K x G Z h F J 3...6 K ` c.:.} j.X.[ 6.8.~.n.A 3 . X k r G L X.k $ 8 3 @.8.:.x 2.2.Y z . 0 H } ..S X.0.:.K 3 & K o.j.",
"o. .p o & A * q d ....U ' :.x J Y  .).F.9.!.%.3.3.n.J.2.p A o . p K b.0. .M * % r [ [ } [ Y ..#.S Y 6.L J @.|  .} Y  .w & x X.i.",
"0.` 3 . : x @ L o.Y ] S S Y J 0 p ~ n.X.+.0.k.%.[ | x.Y z p     - H 5.z.[ p r  .0.,.:.@.0.} S o.0.| d.z ` ....{ [ [ L 0 x L 5.b.",
"j.K 0 4 p Y k 0.| Y e M :.v :.x 2 J 2.;.~ W J } z [ i.t.J @ . X & } 6.,.%.p H k.J K 7.4.} [ ,.+.3.I J S ` n p H ..J J F X.[ 6.k.",
"+.} J G S ..` | S 0.I ,.>.X @. .6 H. .8.k.o.X.] Y D.k.T p   . * 0 0.m.H | K @.l.H 3 Y H 2 J | +.G p 7  .{ I Y k x g d K H ` i.o.",
"G L F J H d } n.l.{ #.} , , [ 3.7 @.%.L D.,. .3.J.k...x *     : p :.!...S } ~ o.5.T :.L t 4.f.} L 4 d F Y 6.3.} F ~ u F o.o.o.6.",
">.` L h p o.0.Y X.o.@.{ S G J l...1 d x ,.M.3.t :.x.8.A &     . T } z Y o.A F L .. .[ | 3.F.m.+.J 4 p 3 o ` d y ~ } i a ~ H W '.",
"J...,.L 3  .U S B n.J.s J H.{ P :.J 6 v ] m U e 1 %.A.+.s O     p M O - r.P t u { 8.U x J H s 0 G [ G e O 2 x 6 L Y d t q n X.D.",
"0.L <.<.d o.S d ` d.{ < x 9.C.@.[  ...Y 9.r 3 H h q Y S S 0     - H ( %.5.q.Y a I s # p H V W < x 0.x.} , a J :.0.` 0 p n J ` o.",
"L ` ] z F 0.H s ` G < A T J { ..3. .h n L d S K Y O p x d S   . e W W d.v.} $.Y p 4 4.e.q.{ P } D  .k. .4 L x J +.[ p D o.} +. .",
"L ` ` s x } d x A } 5.J T 3.4 ; U t.G d [ 3 3 3  .H s 3 r *   O w m K 3.H.{ i p O * F.q.F.@.C %.` 9.n.J | 2.Y 3.o.M 4 S L o.0.5.",
" .X.} s @ : = 0 3.6.0.W o.5.W 5 % [ F $ n o.U L J d d @ * O   X X 9 K G 3.6.t . . z p O H 4 i S H o.3.` 8.o.o.o.d.u * , 4 Y 6.0.",
"S J u < . . r p Y v 4 U K s [  . .<.:.] 7.M J F z 4 0 @ X .   . X & n s 3 q H J 3.&   x n A s s d a 4 ` 0.>.o.@.T M 4 * * p J X.",
"* = 3 3 o r L x 4 6 , 5 : : & & 9 k w p e . = 9 5 * 4 % . .   . o X - w J A F z.5.u q J H T 0.] d [ d < < H 3.J r * 3 r 0 < u X.",
"= X X @ X @ < 1 4 2 3 * - p * o : 5 9 * & & - 3 & - &   . .     @ & X 3 :.,.3 3 9 1 3 4 U [ x S L J S D d t p , 2 & & : u 4 0 o.",
"S * . . X & 1 < 1 < 1 0 s d e r 9 3 d d r s 5 3 , @ @ .   .     X : * * 9 u p k 0 & S ~ ` Y r w n a h F p 4 d C 1 , < & * 4 t h ",
"S * X $ < * u M 4 , 8 t 0 % , 1 , 1 d 8 , t r 0 q ; o O         . O - @ = q s x s e Y Y e s b n d r Y X.s x L } d < < * < t u d ",
",   : S G ` +.3.` H p H Y 4 u p t n K x n n ` K K K M m l & . . & = 5 x M M Y [ L  .X. . .H ` [ z z N X.+.} ,.o.W F t 8 1 < G 0.",
" .` o.` 3.n.B.0.K <.j.9.,.K o.o.K ] <.9.,.Y 7.,.Y >.9.9.9. .] ' ` ] ;.r.8.[ 3.:.U ,.1.9.0.Y o.<. .` ] j.b. .+.,.]  .[ n M s ..M."
};
