/* XPM */
static char *_96eab60dabd4837cf82c3989e1ab9f3[] = {
/* columns rows colors chars-per-pixel */
"64 64 235 2 ",
"   c #020202",
".  c #0B0601",
"X  c #0A0906",
"o  c #0D0D08",
"O  c #140B02",
"+  c #1B0D01",
"@  c #100F0A",
"#  c #190A06",
"$  c #15130D",
"%  c #1A150C",
"&  c #1C190E",
"*  c #1A1306",
"=  c #1C1B11",
"-  c #210300",
";  c #221506",
":  c #2C1D0A",
">  c #271907",
",  c #331B03",
"<  c #381C06",
"1  c #201F14",
"2  c #3C0A00",
"3  c #29200D",
"4  c #26210F",
"5  c #3A2606",
"6  c #242216",
"7  c #2C2514",
"8  c #272618",
"9  c #292719",
"0  c #2C2A1B",
"q  c #2F2A15",
"w  c #312E1D",
"e  c #362A12",
"r  c #33311F",
"t  c #3B331C",
"y  c #3A3115",
"u  c #3D320F",
"i  c #363421",
"p  c #393723",
"a  c #3C3A24",
"s  c #2E2A24",
"d  c #470E00",
"f  c #421D02",
"g  c #5C1C01",
"h  c #462101",
"j  c #4B2402",
"k  c #4C2A06",
"l  c #562C04",
"z  c #5C3003",
"x  c #563909",
"c  c #473518",
"v  c #583916",
"b  c #622E00",
"n  c #6A3706",
"m  c #733A04",
"M  c #793805",
"N  c #613E15",
"B  c #403E27",
"V  c #413F28",
"C  c #493A2A",
"Z  c #5C3F24",
"A  c #5B461A",
"S  c #564506",
"D  c #794407",
"F  c #725D0E",
"G  c #65491B",
"H  c #734C1C",
"J  c #67500C",
"K  c #45432A",
"L  c #4B462C",
"P  c #4C492E",
"I  c #484326",
"U  c #544A29",
"Y  c #514D31",
"T  c #534C3A",
"R  c #565334",
"E  c #5A5737",
"W  c #5D5A39",
"Q  c #5C5937",
"!  c #615D3A",
"~  c #655A37",
"^  c #705326",
"/  c #65613E",
"(  c #68643F",
")  c #6D6235",
"_  c #79693A",
"`  c #7E7237",
"'  c #776209",
"]  c #5B5644",
"[  c #5F5E53",
"{  c #735F50",
"}  c #6A6640",
"|  c #6D6942",
" . c #67624C",
".. c #716D45",
"X. c #796943",
"o. c #747046",
"O. c #777348",
"+. c #79754A",
"@. c #7E794C",
"#. c #787045",
"$. c #726E56",
"%. c #767369",
"&. c #676761",
"*. c #8D3C02",
"=. c #844204",
"-. c #8A4604",
";. c #94590A",
":. c #845C19",
">. c #8E5B0E",
",. c #A45D05",
"<. c #936D06",
"1. c #B56406",
"2. c #BA7707",
"3. c #AF710D",
"4. c #815E3B",
"5. c #8C5F24",
"6. c #886328",
"7. c #88753D",
"8. c #906E2C",
"9. c #A77426",
"0. c #B07C28",
"q. c #C87B07",
"w. c #827D4E",
"e. c #897A4B",
"r. c #847F50",
"t. c #837958",
"y. c #8F7759",
"u. c #817A68",
"i. c #9E8407",
"p. c #AF8509",
"a. c #AA9034",
"s. c #CA8708",
"d. c #D28B07",
"f. c #D48708",
"g. c #D59108",
"h. c #D99308",
"j. c #CE9614",
"k. c #EC9807",
"l. c #D6B210",
"z. c #EBB408",
"x. c #F3B809",
"c. c #E9AC08",
"v. c #C39926",
"b. c #EAC60B",
"n. c #F2C608",
"m. c #F3CA08",
"M. c #FCC909",
"N. c #FFE10A",
"B. c #E8C930",
"V. c #878252",
"C. c #8A8553",
"Z. c #8D8856",
"A. c #88835C",
"S. c #938D59",
"D. c #968A58",
"F. c #97915B",
"G. c #9B955E",
"H. c #8B824E",
"J. c #AB8F4F",
"K. c #8C8663",
"L. c #928D66",
"P. c #9E9762",
"I. c #9A956B",
"U. c #858374",
"Y. c #9D9872",
"T. c #A19B63",
"R. c #A49E69",
"E. c #A09767",
"W. c #A59B71",
"Q. c #A6A16C",
"!. c #A8A36F",
"~. c #AAA573",
"^. c #ADA877",
"/. c #AFAA7B",
"(. c #A9A378",
"). c #B2AD7F",
"_. c #B5AA78",
"`. c #C6AB67",
"'. c #E8CD4D",
"]. c #EDD14E",
"[. c #F9D866",
"{. c #959185",
"}. c #A29D89",
"|. c #B3AE81",
" X c #B5AA85",
".X c #B6B185",
"XX c #B7B389",
"oX c #B9B58B",
"OX c #BDB993",
"+X c #BBB699",
"@X c #ADA58D",
"#X c #B8B3AA",
"$X c #C0BC97",
"%X c #C2BE9A",
"&X c #C4B598",
"*X c #C8B788",
"=X c #C1BBBA",
"-X c #C5C19E",
";X c #CDC496",
":X c #DFCA99",
">X c #C6C3A2",
",X c #CAC6A5",
"<X c #CAC7A9",
"1X c #CDCAAC",
"2X c #CFCCB0",
"3X c #C6C4B8",
"4X c #D1CEB3",
"5X c #D3D0B7",
"6X c #D5D3BB",
"7X c #D8D6BE",
"8X c #D9D1B0",
"9X c #D7CAA2",
"0X c #E7D7B2",
"qX c #FAF5AB",
"wX c #F8E887",
"eX c #D9D7C1",
"rX c #DBD9C4",
"tX c #D5D4CA",
"yX c #DEDCCA",
"uX c #D5D3C2",
"iX c #D3D2C8",
"pX c #E1DFCE",
"aX c #E1DFD1",
"sX c #E5E1CE",
"dX c #E4E2D4",
"fX c #E8E7DA",
"gX c #EAE9DD",
"hX c #E8E6D7",
"jX c #F3EFD8",
"kX c #EDECE3",
"lX c #F3F2EB",
"zX c #FBF9E9",
"xX c #FAF9F5",
"cX c #F9F9F6",
"vX c #F0EFE7",
/* pixels */
"6 9 a 8 +.+.r.1X/.$ 9 K +X!.C.C..X/.!.OXoXoXZ.2XP.=       0 $ P w 8 R B w K 8 8 =   V .X~.,XOX~.S.|.1X%X( = $ w 1 1 /.!.@.o.K $ ",
"$ w = R Q.OXF.1XoX  8 p >X1X.XXXOXQ./.OX).^.~.<Xo.i     $ p 8 R W 8   0 8 p W E $ $ /.2XC.%X2X%X~.F.5XOXT.V 6 o V P G.oXV.~.V $ ",
"L +.@.V.| r.XXyX~.X i = /.4X-XXX%X.XT.!.~.~.|.w.E 0     = p Y K V 0 o w L D.).L X 1 /.rXXX%XoX~.~.Q.XX$X.X| 1 & @ K +.C.+.P P Q ",
"V.C.C.w.a w /.1Xa 1 i 8 R.|.!.F.).!.S.S.} V.!.R a = 6   o $ & r I 4 A.6.$ 8 7 , $ 8 .X1X$XOXXXV.O.T..XOX|.V.$ 8 $ o Q Q.P.o.P.V.",
"G.o.! V.P r | @.o i a 8 V.OXF.+.R.C.Z.S.R ! ! r.+.= K r X   $ o @ > aX'.O z O * 0 $ w.,XyX%X~.R.G.G.!.OX$XP o 1 1 = ( Q.V.o.P ! ",
"W E w.).<XQ p r $ w 8 $ i P.~.| Q T.V.~ w O./ | Y = 6 = % o   O *   f b -.h.1.  $ $ X P.pX1X/.OX).V./.-XT.X = 0 = $ w o.O.Z.Q a ",
"0 W  X-X7Xp   = @ o   o $ +.G.| F.$XV.Y 9 ..D.= X C G < 6 # & $ * O O =.h.b.j.i 1   X = V.>X4X1X^.~.1X<X(   a i w $ o ( ^.F.W Y ",
"S.!.%XT.Y & 6 o.V.P.Z.Y $ Y ( V.R.oXO.E ( R w $ ] uX[.J       & @ , x ,.' a.+XuX~.$ X   X F.2X<XOX1X1XoXa o 6 = 8 = 4 $ / L.(.P.",
"T ~ E p   6 S.5XyXaXkXhXF.& P 7 * 6.J.Y Y t   y {.jX[.F + h l ; & . h _ T.S.2XdX2XOX=   X X o.oXOX|.r.8 X @ $ = 1 q 4 $ y X.4.~ ",
"        0 S.,XrXgXfXgXlX5XX  .9.    3 ^ w @ 7 & C 4.:.n m 1.q.=.. K @.2XeXaXkXrX%X2XV.=   $   $ 9     $ = $ @   X 4 t c XXlX[.J ",
"+ j z > K S.6XyXhXrX%X4XdXH.tX'.O z O     O *     # d *.s.x.n.q.% 0 oXlXvXgXeX%XZ.E o.| o & 3 . . 3 7 $   X 9 p w P ) A #XjX[.F ",
"m ,.q.D e P.5X6XOX~.Z.+.1X%.h z -.d.;.X W L.4 O . f -.d.x.N.l.^ +.!.1XkXlXdX5XG.@.a p ^.I : *X0.  X &   E +.@.1X5X^.t * C 4.:.n ",
"q.x.M.f.e / C.$X6XOX~.oX>X .O =.g.i.A !.5XuX}.Z < D 2.c.M.b.S K ~.>X1X).>X4X%XC.W ! W C.t ; iX].O z O L yXdX-X4XeX@.7     - d *.",
"x.N.M.3.Y ( @.V.OX).Z.6X+XU z s.i.7.5XeXpXyXrXtXy.M ,.k.h.S 1 C.P.P.} ! S.T..XZ.W } +.^.L X < z =.s.;./ oX>XXX@.R Y ; O . f -.f.",
"m.b.p.U 9 K C.+.R V.Q.~.^.K ; H &X1XyXyXdXhXfX6X<X@XG b c   !.^.i @   S.S.| G.| Z.K 6 | O.$ O *.p.F J.@.R ~.Y 0 $   * , < D 2.c.",
"J c t 0 W r | Y L ~.S.|..X9 $  XyXrXrXrXyXhXkXaX1XeXiXt.X 6 OX|     R Q o.P.W ! V.0 p | ..* k d.<.t R.1X).oXa   = 6 1 % ; x G x ",
"$ 8 0 $ ( E @.@.9 R C.o.w.$ p ).OX7X-XoX6XgXyXdXdX5XdXfXr 6 @.L W } +.E ..| K W W W o.| L   k m 5 L G.7X2X| $ X   X o X o w 8   ",
"$ o r B 0 p a w.( & w.^.6   Q C..X-X^.oX$X-X5X7X6XF.~.5Xa   L ..r.E S..XE K V W W ( +.+.L = # X 8 P P.!.P 8 = o X   X   X 8 X X ",
"8 $ X & a 6 P Q Z.w O H 5 & w.G.oXQ.OX!.~.OX2X1X%X( !.~.o X $ | F.E | /.! W S.(.o./ | W ..K = 8 W o.I   p K K 8 o X   @ $ o   $ ",
"8 8 o r ( V U K L.9.    O _ / C.-X^.).oX/.$X-XC.C.T.OXZ.o o p Y W K K @.S.} } o.0 K = a W 0 6 = } ~.r X $ 0 a 0   X X $ $     = ",
"8 6 $ K ! ! P q #X'.O z O R B G.oX-X/..X-X5X5XG.G.,X%Xr.$ $ K } 9 W @.K } P p a 8 9 0 R K $   = L V Y 8 X 8 i $ 9 0 s       X = ",
"1 8 6 1 Y W I X h b -.h.;.K / !.oXOX).oX1X>XOX6XOX!.,XE   K Y E P P P.Q.o.P W 0 a L K a 9   X = 8 E | 0 8 8 i 1 K 8 8   $ $ $ = ",
"p 1 6 8 r r X X + =.g.m.9.%XG.F.OX>X1X2X,XS.OX5X).-XoXX o U _ E V Y R E Y a K 8 = $ 8 6   o $ = | W $ p R p 8 o       @ 6 = $ = ",
"=   $ a B r % 5 z d.b.b._ 2XoX/.~.oX-X5X-X^..X).;XoX@.5.    U F.+./ $ o   o p i 0 8 6   $ 6 9 o K Y =   $ $       X   = $ o = = ",
"6 =   & 8 K 0 X , x ;.5 W XXV.<X.XS.Q.~.G.XX<X>XoXU uX'.O b * t W a % p a r a V 6 $     $   $ 8   t y X O h 5   = o L s   o o $ ",
"| S.1   $ } $ 8 a 1 o o X V..XXXOX~.Q.~./.|.7XZ.I . f b -.h.1.X 8 w i | I.8.o % @   $ +.OX@.i = = y ;X0.    O c 6 p P X Y w w 0 ",
"8 K 6 8 0 X K -X>X<X X| i $ E +.Q..X).OXeXOXV.K , . + =.h.m.d.      o = {.'.O j O R.5XdXgXdXOXE 6 , zX].O z O * a P X P Z.P p X ",
"  $ p Y p @ @.2X6XeXfXgXkX2XL   % W S.S.~.P.o.W X , z d.l.v.G P ..K @   ; z -.g.9.3XfXrX7XaX>X| Y   h b -.h.1.  $ o P.oX} K V $ ",
"8 ( K K 8 a Z..XrX5XyXdXhXvXlX2X8   K B $ w 8   X   k 6.*X&X+XeXkX4X-X} @ m h.m.j.u.2XoX~.V.Q..Xc . O =.h.l.>.$ X a rX6X+.W W K ",
"i 6 R K   K +.P.OX-X>X X.X1XyXcXfXS.6     X o $   p {.3XtXeXdX5X6X>X2XaXD.2.n.m.l %.-X(.W r p F.6 , z d.p.S = 1   } dXOXa V.o.a ",
"$ 1 a = 9 0 p R @.! o.+.E | !.7XgXsXOXY   $ 1   a 7XfX1X.X6XpX.XXXeX+X4X6X5.2.f s ).G.@.W K $ $ R @ j m x $ $ 6 o W G.R X o 9 @ ",
"  $ $   8 o = ! T.Y R / R p @.Q.$X7XOXoXi   $ w 6XlXdXeXR.G.~._.%X4X|.(.XX+XE $ H..XO./ o.L r P V.a 7 # X $ o = = K $           ",
"o   = = 0 @ = o.OXG.@.} V W C.Z.).1XP.~.|     P.vXyX.X| | V / F.....S.Z.P a L o L @.+.r.E | V.@.W W L $ $ 9 @ 6 X K E     $   X ",
"X   8 8 K K $ a @.V.S.F.V.@.V.Q F.-XO./ Z.& o ~.dX+.8   $ o @   $ w R | L 6 @ = = a W S.^.+.} ..} P.L $ 6 o i   X r.R.= = 9 a 6 ",
"o = @ $ K W P P ! Y @.~.F.@.w.P.!.^.W L Z.R   W T.X   =   o = o $ R E w w s V 9 o = p ! P.| @.o.P O.i o 8 w @.o.= = = $ r o a T ",
"o @ 8 $ 8 p W @.W Z.G.F.! @.Z..XXXV.+.E ( a = E 6   = W o $ 9 X a R p 6 $ = V 0   6 = 8 E | L V 6 & * $ q K C e.L = $ % w K a p ",
"8 9 9 o 8 +./ } W S.Q.@.o.I C.Z.W @.P.i s K = $ =     9 0 @ w @ a p     X $ L p = 0 $   0 a @ @ $ u e.y.:.2 . ; > K i & o 6 $ $ ",
"K = = @ a | E +.} / K P #.K | V.( | @.B o K 8 $ K $     8 V =       o = p Y K w 6 $ p 6   X 1 1 t H 0XzX[.J   . X $ = p o   $ L ",
"6 a $ X E r.K Y C.R 0 a q E Y +./.S.F.+.K 0 = | ! W K = o 1 =   X $ K 8 E P = a @ 0 0 $ Y w @ & < v #XjX[.F + f 3 o Z.<X/.@.1 = ",
"i = $ o e w.t./ W +.Z.R q ) +./ V.V.F.@.! o = | +.! L 8 K 1 p a 0 6 i i W V p P 0 o 6 |.dX5XP   > # C X.:.n m ;.A !.1X6XyXsX-X| ",
"|.@.w : G ^ Z C L t..XZ.| ) I q w } W E K $ $ 6 O.R 0 1   o   r i 8 9 a C.@.8 w o o eXlXkXlXrXP $ X   - d -.s.p.7.).7X-X$XeX5XOX",
"Q.>X X_ :X0X`.:.; 4 ] ~.P.@.A c K p 8 $ = p = $ X r i V = o   $   = T } X $ p @ 6 5XkXkXlXkXrX}.S.X # < -.d.x.i.t oX<XI.).>XoX).",
"/.XX&XJ.xXcXqXj.3   . w R t c c o o o = V V.p 6 0 X a p 1   0 s @ o K L & % X X 2XcXfXvXlXrX5XU.#X#.: D q.z.m.J B ,X2XA.P.F.C.~.",
"+.OXW.{ 3XjX[.a.5 - f < o   o % & X O 6 V.-X!.$ = 1 1 0   = V 8 $ $ 8 K t . O U fXlXvXgXaX2XXX$.U.oX_ n ;.k.s.a F.!.OXT.+.7 K ( ",
"B / ~ s { y.J.>.l f j 7 $ @ . *  X0.    Y.yXeXL X = $ @ & i i     @ % * I.9.  A.dXdXfX7XQ.Q.w.F.I.L.+X_ < n k 1 C.T.W W W ..E K ",
"Y L +.X # : d g n _ 7XpXpXdXS.O 3X].O z Y #XsX!.6 o $ 6 8 6 $ $ $ 1 & : tX].# 7.<XrX5X X( / ).OXY.Y @.+Xp o = $ P F.+.! o.~.( ( ",
"+.!.@X$   # 2 M `.dXxXcXlXcXfXY < b =.h.1.&.XX@.P X 8 0 6 X X = @ $ $ X h b -.v.,X4X%XG.!.+.^.~.XXV.S.oXZ.= 8   I oX>XF.| Y p G.",
"T.r.XXt O ; 6.J.pXlXkXgXpXkXuX[ t =.h.m.j.U.Q.@.0 = 0 0   a w.^..XP./ O O =.g.B.*X/.|.oXZ.( V.F.Z.w.} Z.~.r $ $ o @.~.o.W L @.Q.",
"Z.!.C.* X ! 6X8XpX7X%XG.!.%X{ ] 7.s.m.l.4.$XG.( 6 1 1   I -X6X4X-XXXW.c k f.m.l.(.S.V.} P.Q.W } ! ! w.@.P.P @ 0 1 w } R.( V./.T.",
"i +.Y   c -X,X9X;XG.! / !.%.T t.Y.n 1.: I.oXC.+.9 %   R oX5XOXXX/.OX+XY.e n q.c @.+.| T.~.R.P./ +.! K ...X@.@ 8 ( ( K P.T.|.o.Y ",
"R C.= o w.>X X^.r.P p K L.u.D.F.} =   8 oX.Xo.Z.r @ o.4X-X-XQ.Q.OX.XOXoXV . $ 8 9 w K T.@.| @.Z.C.E a V.>XZ.o 6 P w.Y ! F.w.w.( ",
"+.E X i B #.( w.D.( ( E W.R.H.y.@.$   w OX2XZ.( $ V <X$XQ.-X-XoXOXOX.X-X X6 o $ E | 8 K / } $ R } } Y ~./.p   1 8 ! w.G.@.C.C.} ",
"E $ @ w $ & t ~ K.@.O.w.I.R.r.a i $ o V K Q.F.8   Z..X| !.1XrX<X7XOXOX>X<X|   $ = @.w   i a   a } r Z.Z.w = 8 1 = A 7 ( G.F.| R ",
"/ $ = = = 8 E o.| ~.C.G.-XoXY 1 $ 8 = K 1 1 F.= @ K /./.2XrX<XOXoXXXOX1X1X}   0 6 $ # * & $ 0 K 8 / ! =   $ 1 $ }.'.O < r a a V ",
"@ $ o $ $ o L K / T.^. X^.S...6 @ 1 6 w B p C.8 r r Z.5XOXQ.oXOX~.oXOXrX%X% = 7 t.8.    % 7 W } } W 6   = 6 V.! j b -.d.D   X = ",
"6 0 S./.@.a = p O.S.~.oX| K 6       0 $ 9 8 0 q e 6 & O.G.^.oX<X-X1X-XF.o   7 k zX].O z O 0 } E B o $ V ^.+X+X0 # =.h.m.p.o 0 8 ",
"V.%X>X4X<XoXa   p O.V.K K @   a .X1X-XS.o $ y D qX9.o @ r B Y a 6 6 w $ 8 = >   j b =.h.1.. $     $ o E yXgX ., z d.m.b.v E W | ",
"!.OXF.~.oXoXQ.8   K r   X   @.dXxXcXcXlX%Xi 5 k cX].O x . X $ o 6 9 8 P W ..3 X O -.h.b.2.    $ 8       Z.R.= o k =.2.X.! ~ r.W.",
"P.|.o.} oXoXOXT.X 8 w $ X L eXlXlXkXlXvXfX<Xc   h b -.h.-.| G.Z.P.~.-X6X.X-X.., z d.z.i.c W !.~.oXZ.8 X       X B / R @.i 0 oXS.",
"Y P.S.R V.Q.).%XR   9 = $ 6XdX2X-X5XhXyX1X5XL.o O =.h.m.3.@X<X6XeX4X1XsX1X~.W 6 j D >.Y (.R.^. X!.>XS.o = o i C.!.S.w.p W r.Z.w ",
"0 r Y i Y V.).%XC.X = X @.gX5X+.| |.G.~.oXT.r.7 k d.m.m.G {.7X<X5X4X/.G.T...p = $ ;   L |.~.+.Z.G.^.!.i X X C.2X@./ /.$ r p   1 ",
"r X 6 a K Y @.Q.P.= $ X /.5XOX| ! K a P. X~./ K , M q.h T <X)./ !.T.a = / W r   6 a   G.P.T.|.OX>X.X>X|   X 0 o.W V 9   1 9 o V ",
"K 0 0 a W Z.@.G.|.6 o $ P.OX~.P.| ! XX_.OX!.V.S.L X   6 0 | @.a i i = 8 E p X X = 0 o.5X!.} !.R.2X<X2XV.  a     =   o a a s = i ",
"V i r a Q Q ..OX!.o $ o /..XZ.-XG.!.R.Q $X>XT.OX}   9     $ $ o $ $ i / V 8 $ $ p 0 /.>X/.+.+.Z.oX6X>XoXK 9 = $ 0 Y R Z.( $ X w "
};
