/* XPM */
static char *_2d0015431264205c3ec169cc02bcb9d[] = {
/* columns rows colors chars-per-pixel */
"64 64 206 2 ",
"   c #58461A",
".  c #56491D",
"X  c #5A4C1D",
"o  c #574722",
"O  c #614E28",
"+  c #665225",
"@  c #6E5A26",
"#  c #64532A",
"$  c #6B562B",
"%  c #6D5C2A",
"&  c #725C2D",
"*  c #6E5B30",
"=  c #725E32",
"-  c #6D622B",
";  c #74622D",
":  c #7B652B",
">  c #7F692D",
",  c #756332",
"<  c #7A6434",
"1  c #7D6A34",
"2  c #75633A",
"3  c #79673A",
"4  c #7D6C3C",
"5  c #7F713B",
"6  c #746642",
"7  c #7D6B41",
"8  c #87742E",
"9  c #826D35",
"0  c #83673A",
"q  c #816D3A",
"w  c #896F3A",
"e  c #847236",
"r  c #8A7436",
"t  c #8B7B37",
"y  c #84733D",
"u  c #8A753B",
"i  c #867A3E",
"p  c #8C7B3C",
"a  c #937A36",
"s  c #90763E",
"d  c #927D3D",
"f  c #826E42",
"g  c #857343",
"h  c #8A7543",
"j  c #867944",
"k  c #8C7B44",
"l  c #867548",
"z  c #8A754B",
"x  c #87794B",
"c  c #8D7C4A",
"v  c #927D44",
"b  c #927D4A",
"n  c #927E56",
"m  c #93823C",
"M  c #9A823E",
"N  c #A2873D",
"B  c #8E8244",
"V  c #8E814B",
"C  c #948344",
"Z  c #9A8544",
"A  c #968946",
"S  c #9C8A45",
"D  c #94834C",
"F  c #9A864C",
"G  c #96894C",
"H  c #9C8B4C",
"J  c #9E914D",
"K  c #958452",
"L  c #9A8553",
"P  c #958954",
"I  c #9C8B54",
"U  c #94835A",
"Y  c #9A865A",
"T  c #96895A",
"R  c #9D8C5A",
"E  c #9E9154",
"W  c #9E915B",
"Q  c #A28B44",
"!  c #A48A4B",
"~  c #A28D4C",
"^  c #A69246",
"/  c #A69847",
"(  c #A4934C",
")  c #AB954D",
"_  c #A6984D",
"`  c #AB994C",
"'  c #B39C4D",
"]  c #BB9F4C",
"[  c #A28D53",
"{  c #A88A53",
"}  c #A28E5B",
"|  c #A39354",
" . c #AA9553",
".. c #A59954",
"X. c #AC9B55",
"o. c #A4945B",
"O. c #A9955B",
"+. c #A69A5C",
"@. c #AB9B5C",
"#. c #B39D54",
"$. c #B29D5B",
"%. c #B8A54B",
"&. c #ADA154",
"*. c #ADA15D",
"=. c #B1A255",
"-. c #BAA254",
";. c #BBA857",
":. c #B4A35C",
">. c #B9A55B",
",. c #B4A95D",
"<. c #BDAA5D",
"1. c #9C8C61",
"2. c #A18E61",
"3. c #A08E69",
"4. c #A49462",
"5. c #A99663",
"6. c #A69A62",
"7. c #AB9C63",
"8. c #A6946B",
"9. c #AC9669",
"0. c #A69A69",
"q. c #AC9C6B",
"w. c #B19E63",
"e. c #B19E6B",
"r. c #AD9C73",
"t. c #B09F70",
"y. c #ADA264",
"u. c #AEA16B",
"i. c #B3A464",
"p. c #BAA564",
"a. c #B4A965",
"s. c #BBAB65",
"d. c #B3A46A",
"f. c #B9A66B",
"g. c #B5AA6C",
"h. c #BBAC6C",
"j. c #B7B167",
"k. c #BEB267",
"l. c #BCB26D",
"z. c #AEA173",
"x. c #B4A573",
"c. c #B9A673",
"v. c #B6AA72",
"b. c #BBAD72",
"n. c #B5A67A",
"m. c #B6A979",
"M. c #BBAC7A",
"N. c #BDB273",
"B. c #BBB577",
"V. c #BEB37B",
"C. c #C1A754",
"Z. c #C7B657",
"A. c #C2AC63",
"S. c #C1AD6C",
"D. c #C1B465",
"F. c #CBB360",
"G. c #C2B36D",
"H. c #C9B46F",
"J. c #C3B96B",
"K. c #CBBA6B",
"L. c #D0B76E",
"P. c #C1AE73",
"I. c #C0AF79",
"U. c #C3B474",
"Y. c #CAB676",
"T. c #C4BA75",
"R. c #CBBB74",
"E. c #C2B57A",
"W. c #CAB77A",
"Q. c #C4BA7C",
"!. c #CABC7D",
"~. c #D2BC74",
"^. c #D0BE79",
"/. c #C6C07D",
"(. c #CBC17D",
"). c #D6C676",
"_. c #D4C37C",
"`. c #B8A783",
"'. c #C2AC8A",
"]. c #C2B582",
"[. c #C5BC83",
"{. c #C7B985",
"}. c #CABD82",
"|. c #C4B28C",
" X c #D3BF86",
".X c #C7C083",
"XX c #CCC383",
"oX c #CFC985",
"OX c #CDC489",
"+X c #CECA89",
"@X c #D2C584",
"#X c #D3CA85",
"$X c #DACF87",
"%X c #D3C58A",
"&X c #D3CB8A",
"*X c #D9CF8D",
"=X c #D7D28F",
"-X c #DBD28B",
";X c #CDC492",
":X c #D5CD91",
">X c #DCCF94",
",X c #DBD493",
"<X c #DFDB96",
"1X c #E2DA95",
"2X c #E6DA9D",
"3X c #E8DE9F",
/* pixels */
"1.x.0.I o.y.I i.N.@.E.E &.Q Q >.>.k  . .W.d.y.D ~ ..8 Z. .g.O.p.i.y.l.@.T.[.OX&Xa.` i.a._.h.k.y.E P w.d.@.o.d.7.y f..Xv.{.v.OXM.",
"M.0.N.7.@.h.[ u.o.@.o.Q #.H a ' m u  .C h o.h.l.m ~ ( #.w.[ E @.( ,.h.-XN.N.i.T.l.a.h.R.:.S y.4.R } d.5.E.b I O.q.Q.-XV.u.x.;X8.",
"t.} b  Xq I i.G 5.p. .C C S u ( ~ X.d v 1 Y O.R.@.i.E.i.i.O.[ | #.L.R.i.U.N.7.@X@.| U.S.) ~ E Q.d.4.c.@.e.o.I L 5.i.1XQ.6.6.n.`.",
"R 2.z K v F 1 M ' ' #.5.d r v -.:.I C 4 G K ..l.y.N.R.| k | y i.^.K.X.$.h...i.l.a.>.@.S X. .E E.m.x.x.V.5.F O.~ a.T.d.g.D L z.4.",
"q.I D Q b b y F C ) 5.k r Q ' ] <.k O.b g I 5.7.y.k [ i.a.Y.$.[ C.<.:.T.i.y.l.N.y...L [ S F | w.[ 1.E.e.e.!.^.| Z ~ @.[ [.0.M.0.",
"q.[ 1 ) m p , 9 q.} 5.@.d ^ v  .9 G [ } % I 5.i.O.@.[ b [ | Z I  .S.y.| 7.y.g.G...U.I y.[ S S.w.7.T.V.v.@XS.| H @. .e.f.T.4.m.v.",
"q.I } u , C k m X.e.8.O., t #.G 7 Y q I Y | O.U.b.L h < 9 a.q.G C I b.y +.W g.*.N.:. ...$.i.@.b.N.v.!.+Xh...| ,.S @.o.v L h 2 V.",
"z.B.U.b 5 S p.8.K K F y v H s.i.D } c C q.L H o.I n F P C $.s.!.{.&XQ.B..X6.G E R : <.>.*.+.q.U.{.[.u.g.b.i.&.J :.k.e 8 a 5.v P ",
"0...OX4.9.1.= n.q.8.5.v @.D G i F c R # g.h.k G } c 1 b G +.@.7.b.b.g.u.+X8.1 g.+...&.X.( I o.h.+XV.R l 6.f.A Z S.w.i.F s ~  .W ",
"P .Xe.%Xe.8.r.r.d.5.O.w.~.A.+.+.D y 5.c l P.S 7.4 , - $.$.+.5.4.y.T v.g...E 6.N.j.l.$.v I d.XX.XQ.v.V.u.g.}.H H A H E f.I Z u.q.",
"Q.+XV.E.I.9.f.e.P.c.[ U.Y.*.k.o.g x G L 4 @.C } E y F [ O.@.5.G u.R 6.V a.~ e C ( _ | a.h.o.[.,Xb.6.b.Q.c.} y.@.( y ~ O.i.y R i.",
".Xj g.h.L 4.o.d.h.9.5.T.a.P *.T o.K } G k S | R o._ ..7.b.O.R L g.o.| ..I C S ..` @.[ h.q.y.OX[.{.].&X`.N.i.R H p.@.Z :.).w.C [ ",
"<.[ F a.o.d.y.I +.i.5.g.| G | i.R q.O.@.*.H ; :.:.) I y.w.f.O.k 4.6.F | d.| o.| y X.u.d.O.E.OXM.[.`.<X+X+.(.a.h.h.C C (.h.$.U.o.",
"~.s._.y.L f.a.h.y.V +.:.+.W.h.q.9.{.I D +.7.y.G E.o.k g h.f.F G D } R c.+.b.b.F | W 7.6.#XM.{.x.n.z.=XB.b.d.[ 5.h.R y.l.i.o.E.b.",
"6.*.l./.E k i.@.+...i.d.a.o.e.3.'.'.%X0.P.h.Q.b..X7.} g h.7.o.O.| H R O.I [.o.H Z F b.W T.u.4.x.OX}.3Xd.N.i.G.y.g.+.q.@.i.i.h.x.",
"v.*.g.&.G.l.O.4.Q.y.i.! i.e.#.L `.r.c.t.9.%XN.Q.+X*.6.s.O.f. .O.*.o.D 4.V.q.@.( F [ h.g.b.N.o.M.V.&X:Xh.[ W a.a.E +.g.o.a.U.O.b.",
"OXB./.A *.i.e = b F h.| a.Y w.e.z t.n } 1.o.%X5.u.V...l.( 5.4.f.i.D u i.u.x C i.:.i.h.7.i.b.*X#X[.g.T.8.d.g.7.Q.o.g.4.4.*.d.S 4.",
"OXOXy.E =.a.h F | $.p.H i.F f 9.2.9.#.Q Z { f.!.6.q.m a.v ` #.a.h.` *.i.h.W K {.h.d.y.F :._.b.U.Q.y.(.d.K Q.+XV.o.b.7.V i.y.o.R ",
".X+XW b.L  .| :.O.I U.t u O.2.e.n #.-.s s 0 z 9.e.x.A I [ $.$.i.S >.X.>.y..X-XT.h.+.G._.~.s.a.U.| i.Q.q.R V o..Xd.R p.4.U.q.*.Q.",
"o.b.P t ~ F v q #.b @.5.Z { e.n { v b { { s z q 0.q.{.| c.d.S.$.|  .C #.!.Q.i.N.u.y.#XH S.O.i.@.W N.N.y.6.q k b.OX$.h.C p.| g.M.",
"K 0.6 1 @.k k 0 e.x.!.i. .3 f.V n Y.W.O.F h b b 1.q.`.M.#XS.O.v F D H._.W.R E.E.I Q.g.@.h.} P.g.y.v.b.P O.k d.g.f.e.f.[ D d.x.@X",
"5.7.l d ) :.O.d.&Xy.&X&Xo.d.o.E.p.@.p.@.{ I f n 4.4.N.K o.5.P b.f.! p.A.y.g.d.q.g.V.b.y.[ K ].i.4.M.d.q g.g.G x.e.b.e.B 5.W L u.",
"R d.E | | i.o.@Xu.Q.V.g.x.b.&X(.i.h.~.$.v  Xn = r.x.V.4.} d.,Xa.@.O.Q >.f.d.V.u.y.B.y.y.R L y.h R c.d.c g.g.u.b.q.y.d.F i.v v 7.",
"| F w.y.F | o.a.N.P l.d.q.c 7.B.h.@.A.$.b e.W.2.x.r.|.m.q.g.1X}.d.I k g h.o.q.6.E v.g.v.g.5.8.9.z.].r.6.v.b.P g.C XXV.b.b.i.G Q.",
"V W h.K o. .@.[ U.N.i.i.E.g.6.g.T.,.,.| @.O.I n.Y r.;XM.[.z.E.Q.D i.d.E y.d.7.o.E j g.j l.I o.7.m.T Y q.y.W o.O.u.E.u.Q.6.l.7.g.",
"y E.W.F o.p.h.F I +.T.y.[.V.&X(.T.K.J.X.H ~ o.e.n.V.u.4.I .X1Xf.G | 5.y.@.| h.y.l j o.x X.G.m.9.R z.R E.6.g.E i.h.g.G (.f.6.oX}.",
"b Q.b.@.o.d.D i.R y.oX@X!.g.E.(.l.H.*.~ ~ [ F e.0.o.u.x x [.7 V 7.@.I +.i.i.T.@.I u.o.+.G.S I W @.}.b.XXB.y.i.(.+.g.g.W .X7.o.=X",
"b.}.g.L D c.w.f.q.U.d.Q.b.N.a.Q.-X_.,...w.K R o.7.5.B.W E 7.E d.F 8.c V O.@.s.,.1 V D I *.a.d.7.Y ^.*.OXT.+.(.B.l.,X+X6...N.B.&X",
"f.8.o.1.1.M.} 9.4.U.g.N.+.B.l.:.G.s.k.a.@.o.5.5.Y @.D 5.7.U.i.o.d.R | I A p M ( { { o.:.G g.I O.d.p.G.i.g.T.h.,.E +.d.+.A c %X&X",
"E.G K y.4.9.c g.x.t.`.o.E u.+.( H l.i.XXh.U.4.x.2.4.o...a.h.+.5.y.@.o.g I Q Z ! A.#.v k O.i.| N.w.I j.i.@.i.s.s.*.| g.7.k q.g.*.",
"!.H W R k R 4.q.].{.x.D H W B./.i.(.J.6.W.Q.V.b.n OXE.o.o.y.y.B.7.I.@.b v ! ) h O.! ~ Z / D.>.v w.I | H A *._.$XT.N.b.R y.G.N.i.",
"R O.V R } 3 L n.OX,X[.v.F y.,X(.a.#Xa.g.!.Q.q.m.q.4.6.x.+.E g.y.U.U.z h.o.v C - g H ( H | C.( >.y.| k F ,.,.G.T.T.+.U.g.N.i.b.L ",
"i.i.} K D g L o.f.+Xy.B..XW I E.a.a.B y.y.g.v.u.+XQ.y.+.l.N.*XF 5.x.l q.I i 4 C L O b L =.#.( C X.o.*.e ..).J.T.*XB.7.(.#XU.a.| ",
"| I s.k F O.p e.5.XX[.y.g..Xi.E.N.+.+.E g.I 4.K V g.G J g.Q.5.h.h.h.q.I - e < i.# @ 9 u #.! p , v ; l.a.,.G i.J.i.Q.XXT.i.s.H C ",
"@.O.~ = q q v o.| 5.N.Q.o.V.!.!.y.o.6.C b.b.y.h.6.N.R y.y...,.o.f.D K . + &.k G < @  .S $.X.p Q A ( y.(.S.| i.N.K 4.E.h...g.@.p ",
"i.s.G.F v h C q.o.$.S I T.g.d.Q.y.y.g.d.y.G 7.G.G E 1 ` :...s.+.S.e.R K J C O...Y o 3 p. .J ~ ( Z &.X.+.g s.*.(.&XR o.u.d.y.XX..",
"o.j.| v I F o.O.b K 0 ; +.o.E h.g.q.h.L E g.F g.l.w.E m k.I T.a.u e.o.!.g.C h j P V 7 o.G C y *.~ F o.p.4.W N.b.g./.v.7.V.u.y.T.",
"@.!.7.0 y c c H @.b @.E O.e.o.} d.6.g.i.& h.S i.!.G.D O I | @.N.c E.o.i.@Xl.5.W P o.V h.U.| C X.J k @.5.g.R +.W i.N.b.,XV.Q..XT.",
"i.U.@X~ e.p.@.[ i.} C o.@.@.Q.x.q.M.B.g 4 p.r p.~ | b I C @.T.i.U.} 0.6.N.#XN.U.y.} 7.h ~.y.O.O.,.*.7.l K } b.U.6.v.g.h.%Xx.Q.i.",
"g.g.Q.i.w.i.o.| y.+.V D S s.7.4.Q.:X!.o.R F h P O.g F i.5.y U.@X@.5.!.V.x.Q.OXN.}.i.@X7.S.p.a.k E @.o.[ D f m.5.E a.c y.%X5.o.U.",
"O.B.i.L I G L w...o.y C :.j.s.6.f c H a.G D < 5 5.V x } = d >.h.@.W E.2 v.6.W 7.b.&X@.h.h.H.| 5.O.i.O...~.p.5.b.o.I e @.U.g.d.h.",
"@.T.l.7.W k I P.~.s. .U.A J *.o.K 2 r b p.} o.f c * 4 l 4 v ~ p.*.E y.g.4 4.u.N.I R h.a.A <.$.$.@.j...h.U.i.:.s. .9 S H @.g.a.p.",
":.d.I 7.< G o.h.W.o.o.A - m @.h.d.X.& 9 -.r k x f 4 o.u Q ( ..S.,.o., +.h.5 y.}.Q.g.l.y.K...E i.p.o.E l.a.@.[ O.( S <.#._ i.i.!.",
"g.h.P :.| 0.I P g.7.G > M ` J R k d @ @ =.M C.v 2 Y G   M : C L  .( i X.*.V.g.T 6.=Xl.s.k.a.a.D O.7.I d.7.[ } @.G i.:.I o.P.h.P.",
"h.b..Xa.P o.b.d.E.E.O.I &.M ) O.o.r v r / @ ) F 4.f *.1 1 t ( i.X.O.$.S.h.W.T.N.y.u.oXR.R.( s.s.@.D I x W U.H S k.+.~ O.q.O.(.@.",
"@.-Xb.f.P R x.b 5.P i.p.C ~ >.h d.I v S _ X , @.o.i.6.#.: F ( | X.S.~ i.h.g.6.6.u.l.b.T.s.y.+.J H i.F i.g.I X.e 1 i. .s.E P E.g.",
"g.y.K M.0.6.&Xb.b.o.o.G -.u X.y h 5., h v H O.L H  .6.p.p F O.i.>.$.d.i.b.d.I u.g., , - j.R.W o. .a.h.@.[ o.I :.>.| T.#.[ d.I.g.",
"g.+.+.+.8.q.0.[.x.%Xi.O./ a Q X.c F 5.y F h.I d.U.@.b.U.F.L b g.:.@.b.C g.4.; 7.+.j G y.T.7.b.h.o.I U.E h.L I :.H k.a.&.K.G.O.h.",
"D @.u.7 2.>X0.1.Y 9.G f s r 9 y 7 o.q.Y g b o.L v.b.r.p.$.h.O.f.V H u..X&XV < h B.+Xl.l._.a.b.(.N.i.h.R d.O.n F D X.&.,./ =.&.F ",
"..[ R T 4 Y r.n 7.5.v F 9 9 S v , 2 7 $ X B J 2 W o.x.*.1 R b.i.o.B.b.,Xv.N.b.f v.g.W l.@.y.T.T.y.@.E.L z 5.E.E.P.F S J J v r ( ",
">.$.u P R 8.Y z } f.W.K.^ a #.~ K y.+.d.o...l.i *.n.`.r.>.v.d.r u.XXW Q..XE u.+XW S N.+.J C ,.4.@.u.E.d.Y 4.R 5.!.7.( ;.M d y r ",
"h.K.~ ~ O.[ b D o.o... .C 9 M C C J E N.l.D j l...z.|.x.~ >.b.-.N.Q.G.l.*X+XG u.(.l.!.F c ..:.N.l.E.n.x.N.E.o.E.e.N.y.:.( ( C : ",
"U.U.o.@.& 1 I 0 v h b S ( v ! P I A C 4.D % P | | a.U D M N h.#.a. Xh.*.y.O.g.y.(.Q.!.F N.+.j.,.A N.I.9.f.%Xo.U.P :.(.y.+.( d & ",
"y.i.h.v < b F L ! 3 C ( Z 0 ! y L @.j.v.o.o.h.5.v / ' c ^ & L o.v d.G I XX, *.a.C u.N.b.U.E *.a.V U m.h.#Xg.x.f.h.i.T.a.o.: t $ ",
"N.U.E.p.i.O.F O.g v s.y p ! { 3 o.o.l.b.d.T.a.u @   r b v & k D 5.5.h.| d.2 p 5.g h b.i.h.a.E E y.P c.j.*X4.4.} U.O.i.E y.I } o.",
"x o.o.D I [ F | C C >.>.C | L k a.c q.y.N.7.W.S A ^ %.w b 3 & C D D @.y.l.R T u.b @.( i.B.y.A _ B.{.M.g.6.d.d.d.R.U.g.u.N.I z x.",
"}.9.}.7.@.[ ~ | K.p.q ) ! ..i.~ e.e.d.e.h.| h.D L ( d Z k v + S h b I 7.y.XX6.@.-._ b.7.XXx._ k.i.5.{...o.l.} f.N.I !.!.B.o.o.g.",
"OXW.x.W.5.w. .X._ $.~ ~ #.s.^.W.g 5.O.d.& D I c q  .k u 9 w t | q 9 [ i.o..XB./.X.+.o.N.+XXX=X.Xd.b.d.C i.P.n c.E.i.G.y.O.b.7.q.",
"@.4.} e.I O...F :.X.:.( D R.f.i.a.e.b } 7.7.G L F t O h y O > G ~ 9 @.#XB.Q.y.N.l.J a.N.M.OX0.x.Q.j.a.~ I O.I E.f.b.d.g.o.W 0.V.",
"M.n 8.I 5.a. .*.~ | | t F h.o.t G @.e.G +.Y.w.@.h u ^ ) h G D C G.U.E Q.,Xi.J l.g./.l.Q.d.b.y.6. .;.X.Q +.h o.5.w.u.i.@.u.c 6.E.",
"2.z Y c.m.S.O.| Y.H.[ F  .G S.Y.S I o.h.y.@.R.O.7 I @.O.@.G #.O.g.=.,.OXB.=X<.oX/.g.B.oXN.`.&XD.' #.~ y k | W I h.W +.N.i.6.L R ",
"c.1.K } f.h.@.a.G.X.O.#.S p.~.s.Y.$.R.N.Q.oXN.i.I +.i.h. ...%.#.i.J B.V.B.B.B.=XXX*.l.N.l.,XN.,./ ,.@.F @.D c R P 5.h.7.o.q.v.v.",
"0.M.F D +.[ a.G.O.l.7._.H Z $.$.a.{ >._.7.oXa.@.y.<.o.P.F a.@.S @.&Xi.g.N.v.q.=X/./.a.j.*.+Xa.#.| | T.i.y.R K u.K y.4 N.d.o.b.x.",
"m.t.+.i.i.C l.O.g.U.a.G :.H $.) p D | i.!.| Q.,.a.` | h d.q.g.u I N.@.~ 6.Q.(.2Xl.y.B...J <Xg.( G i.b.@.7.5.y.R x 6.Q.<XK R q.{."
};
