/* XPM */
static char *_1f3dc6eb08c4e0ae4f6da5b39b547ac[] = {
/* columns rows colors chars-per-pixel */
"64 64 233 2 ",
"   c #060708",
".  c #000C11",
"X  c #0A1617",
"o  c #141E1C",
"O  c #1A221E",
"+  c #061C23",
"@  c #0B1D23",
"#  c #131E22",
"$  c #0E2024",
"%  c #0D242C",
"&  c #132324",
"*  c #1B2527",
"=  c #13252B",
"-  c #14292D",
";  c #1B2A2D",
":  c #052534",
">  c #0D2B33",
",  c #162731",
"<  c #152B33",
"1  c #1B2D33",
"2  c #142D39",
"3  c #0E313B",
"4  c #173035",
"5  c #1C3336",
"6  c #15323B",
"7  c #1C343B",
"8  c #1D393E",
"9  c #252B29",
"0  c #273029",
"q  c #222E30",
"w  c #233335",
"e  c #283736",
"r  c #2B3936",
"t  c #23353B",
"y  c #233A3D",
"u  c #2A3C3D",
"i  c #353D37",
"p  c #37433E",
"a  c #042E48",
"s  c #0C3548",
"d  c #143543",
"f  c #1C3741",
"g  c #163C46",
"h  c #1C3B44",
"j  c #143C4C",
"k  c #1D3E4A",
"l  c #0F3E53",
"z  c #133D52",
"x  c #253943",
"c  c #233D44",
"v  c #2B3E44",
"b  c #233E49",
"n  c #303D41",
"m  c #1E4045",
"M  c #1E424D",
"N  c #0D455E",
"B  c #134153",
"V  c #1D4553",
"C  c #1A4757",
"Z  c #194559",
"A  c #16495D",
"S  c #1D4A5C",
"D  c #244145",
"F  c #2C4244",
"G  c #2A4945",
"H  c #24434C",
"J  c #2B444C",
"K  c #25484D",
"L  c #2C4A4E",
"P  c #324445",
"I  c #3B4944",
"U  c #32454B",
"Y  c #334A4C",
"T  c #3C4C4D",
"R  c #3C534D",
"E  c #244652",
"W  c #2A4652",
"Q  c #254A54",
"!  c #2C4B54",
"~  c #2B465C",
"^  c #244C5A",
"/  c #2B4D5A",
"(  c #334C53",
")  c #3A4D51",
"_  c #324E59",
"`  c #394E5C",
"'  c #2C5155",
"]  c #26515C",
"[  c #2C535C",
"{  c #2F585E",
"}  c #335155",
"|  c #3B5354",
" . c #3E5957",
".. c #33545C",
"X. c #3A555B",
"o. c #345A5D",
"O. c #3A5A5D",
"+. c #3C645F",
"@. c #164A62",
"#. c #1C4D63",
"$. c #164D68",
"%. c #1E5266",
"&. c #1B556D",
"*. c #0F5576",
"=. c #1E5777",
"-. c #224F61",
";. c #2D4D61",
":. c #314F62",
">. c #245262",
",. c #2D5562",
"<. c #2E5A64",
"1. c #22536C",
"2. c #29566A",
"3. c #265A6B",
"4. c #2C5C6C",
"5. c #335663",
"6. c #395661",
"7. c #335B63",
"8. c #3B5C63",
"9. c #30576C",
"0. c #335D6A",
"q. c #3A5D6B",
"w. c #255C74",
"e. c #2B5D72",
"r. c #275F79",
"t. c #315E70",
"y. c #2F636F",
"u. c #356265",
"i. c #3B6365",
"p. c #3C6A66",
"a. c #35636B",
"s. c #3B646C",
"d. c #37696C",
"f. c #3C6A6C",
"g. c #3D716D",
"h. c #2C6274",
"j. c #2B627B",
"k. c #28647B",
"l. c #356473",
"z. c #3B6672",
"x. c #366974",
"c. c #3C6B73",
"v. c #34657B",
"b. c #396779",
"n. c #346A7B",
"m. c #3B6C7A",
"M. c #3E7175",
"N. c #3E727A",
"B. c #49544E",
"V. c #425454",
"C. c #445955",
"Z. c #43565B",
"A. c #46595C",
"S. c #435C62",
"D. c #4A5C63",
"F. c #415E6C",
"G. c #436465",
"H. c #4A6666",
"J. c #446B66",
"K. c #4C6865",
"L. c #43646B",
"P. c #4B656A",
"I. c #436B6C",
"U. c #4B6C6D",
"Y. c #526768",
"T. c #44716C",
"R. c #49716D",
"E. c #416573",
"W. c #496571",
"Q. c #436C74",
"!. c #4B6C73",
"~. c #436D7A",
"^. c #4B6E7A",
"/. c #526D74",
"(. c #516E7A",
"). c #437275",
"_. c #4B7175",
"`. c #437876",
"'. c #44737B",
"]. c #4B747C",
"[. c #46797C",
"{. c #4C797D",
"}. c #537175",
"|. c #52747D",
" X c #597479",
".X c #52797E",
"XX c #1E6384",
"oX c #276884",
"OX c #366D82",
"+X c #376D83",
"@X c #3C7383",
"#X c #397587",
"$X c #3C758B",
"%X c #3B7B93",
"&X c #416F81",
"*X c #447482",
"=X c #4B7582",
"-X c #457984",
";X c #4C7B84",
":X c #45768D",
">X c #437B8B",
",X c #4C7D8A",
"<X c #517583",
"1X c #537B83",
"2X c #5A7A83",
"3X c #537D8A",
"4X c #5B7D8B",
"5X c #437D92",
"6X c #4B7D91",
"7X c #617B85",
"8X c #4B8189",
"9X c #4E828C",
"0X c #538184",
"qX c #5A8084",
"wX c #53838C",
"eX c #5A848D",
"rX c #4C8392",
"tX c #4A8696",
"yX c #538493",
"uX c #5A8693",
"iX c #548A94",
"pX c #5B8993",
"aX c #56899A",
"sX c #5C8B9A",
"dX c #5E939B",
"fX c #61808E",
"gX c #668C98",
"hX c #66939B",
"jX c #568EA2",
"kX c #5391A5",
"lX c #5C93A2",
"zX c #6698A6",
"xX c #74A0AE",
/* pixels */
"!.hX2X<X[.).+.f.Q.'.!.Q.s.u.7.O.d.'.m.c H 7.8.a.0./ W F [ a.d.7.f.K ..].!.E.7.! 0.;X! 7 O.+.`.8.O.T.J.a.+.G.f.u.7.a.<.u.u.p.0X0X",
"D.zX].Q.p.I.o...z.x.s.b.m.d.d.J.J.J...c U 7.7.,...[ 5.5.7.f.0.7.a.K X.;X1X'.u.d.N.3XQ.5 O.i.g.).T.R.'.J.J.J.u.c.s.q.p.u.f.a.8.i.",
"].gXU.Q.I.u.d.s.7.u.c.m.m.s.u.a.s.s.F v H 8.l...7.^ ,./ ! ' ,.c } o.s.=X^.}.K.i.7.s.I.F O.b.].!.d.U.Q._._.u.q.Q.f.d.G.s.7.,.~ O.",
"8.<X^._.J.J.f.u.u.x.M.d.a.u.5.u.f.i.H c ! ,.0.x.a.7.7.,.W b [ 0.u.} i.wX!.^.<X!.Y f.q.|.=Xu.1X'.a.i.T.{.i.[ i.7.,.a.s.u.u.[ ! Z.",
"r 8./.!.f.T.!.z.E.c.f.7.i.a.[ 7.).M.L t f ,.a.d.f.0.,.a.6...<.f.f.U } wXU.8.s.Q.].4X_ F.aXQ.<X`.).d.7.0.O.7.s.+.o.s.c.x.u.7.W ( ",
"* U.T.2XwX'.{.<X;Xp.7.0.a.7.7.).3Xa.7 1 6 5.s.a.O.0.8.d.o.s.c.a.!.F ^ *XQ.;X).).uX^.t u 3XeXwX`.{.=Xa...0.Q.Q.'.c.c.).x.s.| ^.' ",
"Y <X].Q.u.i.6.L.f.[ 5./ H } u.c.Q.h - ; k D 7 ! E u.p.[ W ! s.l.).F #.;.7.f.O.i.s.k 6 8.fX9Xa.o. .F.H u p V.S.a.8.z.{ O.f.7.L 8 ",
"4XQ.a...m K H t = 7 :.g 5 v ! } ..W z...u t U r & % 7 s...t t F ' t H 4 2 , > 5 6 & 1 ^.U...s.F q - = 4 V J e 3 a s s V D 5   t ",
"-X6X%X<XP.E ..q.7.q.G.].uX).!.^.!.;XpXfXwX9X3Xq.L.5.5.).c.).S.H V i.Q.i.<X;XQ.Q.( ( q.].].~.<Xm.r.7.y.-XaX3X).h.k.4.$X'.i.F.0.e.",
"x.N.+X-X0.M K ..c.7.8 .X,Xj.%X'.Q.d.Q.Q.'.>X5X-X'.~.^ L ! u.M.,./ [ 7.d.i.x.c.o.u Y u.L.a.d.U.4.=.s.l.~.).m.m.b.s.x.'.E.a.f.h.n.",
"a.0.7.s.X.H ] ] c.c.6 Q 7.<.rX<X].m.b.f.f.b.c.Q.{.'.W _ _ O.H.X.} 7.i.n.<.[ b b E { 7.i.f.u.<.0.4.x.3.n.z.7.a.E.m.x.u.0.] ! 7.c.",
"z.8.f.[ 6.X...E c.=X8 E l.>.!.<Xf.u.b.s.s.N.7.i.f.7.( } i.Y.A.Y } s.7.9.5.K E 0.5.} d.s.<.u.'.*X0.! e.4.q.u.} 8.I.s.p.f.8.O.A.s.",
"x.f.x.<.<.,.W _ z.;X/ h.x.a.Q.&Xs.o.d.^.Q.l.t.~.~.7.x L G.A.W v Q [ <.O.' a.I.u.<.,.{ / 4.a.E.c.7.P [ e.s.i.u.i.f.f.E.-XJ.H.J.d.",
",.s.0.h.c.[ Q a.0.-X[ 3.N.s.;Xb.7.u.c.-Xx.q.b.=X-X[ f ( Z.W 7._ H E O.0.u.x.a.[ 7...] [ s.X.q.'.m.p Q k.x.q.i.s.z.z.y.c.m.*Xa.b.",
"z.b.[ z.N.7.^ 5./ ^.q.v.-X3.b.+Xy.x.'.>X-X;X@X-XtX4.1 ( ( 6.I.H.v V ^ 7.a...7.7.s.X.c.M.s.a.'.;XM.p S k.XXXX2.&.XX%Xn.OX@Xm.k.k.",
"<...6...8.} x ! } ~.0.<X X4.%.8.7.a.s.X.H [ 1.7.7.: + o.) A.F 5 - h > = = ; f ^ j > k h Q ! c K < c E > k z Z l @.Z t 7 g 8 E E ",
"W ( q.q.A.K.C.I U.qX.X7X X|.L.6.L.].U.C.6.) W ..P * K eX~.~.! F e = = D m ! ..K ! E = y Q.O.6.~.S ,.4.K V.H.i...! y F P Y 7 5 H ",
"c.-XrXG.r -XS...a.7.c.f.7.m._.0.0.4.>.].zXeXiX,X-X].;XwX,XyXwX;XQ.} 5.m.M.'.'.).;X9Xs.<XpX=XrXtX-X[.N.c.~.].s.d.z.L Q.wXsX-Xm.>X",
"s.' 8...2 [ 7.U ..,.<.q.[ [ %.^ ^ C N ^ S.'.).b.x.x.c.d...O.+.7.! k a.n.s.{ 7.x.s.'.b.q.1Xf.<.u.i.a.M.5.7.' ( ] W / u.).n.c.f.c.",
"b.q.d.} b ,...c H S >.5.W [ %.S ' k A S !.1Xf.u.8.f.i.x.h.i.8./ } c ).c.,.! [ <.7.f._.[ '.z...' '.Q.0.l.).I.6.7._ 7.J.8...u.f.s.",
"4.m.'.f.F 7.o.H H H K ' Q ] / ^ Q Q #.Z f.-Xq.! ' ~.'.0.a.'.'.q...u I.c.^ #.>.[ d.'.1X} a.' _ i.f.a.7.d.~.Q.0.a.[ 7.s.:._ s.].<.",
"i.d.=Xb.! 6.^ ! / K k E ^ >.S <.7.[ $.k S.@X<.W s.c.0.a.f.c._.d.0.D 8.Q.M l / ..Q.[...| ).<.7.Q.E.~.=Xc.z.0.h.c.7.[ ^ ^ 7.L.a.a.",
"Q.s.7.7...,.$.#.S E >.Q A &.@.7.u.7.#.! !.>X8.,.-X,X1XyXt.0.M.d.,._ h.n.Q b / q.c.G.Y U ].h.x.b.*X&XE.a.0.] f.<.Q [ <.! a.~.].1X",
"W V E ( J Q B N B S o.[ h s @.[ <.7.^ ] {.Q.7.0.U.c.e.,.E ^ +.u._ H ^ 2.6X#Xn.d.c.6.x | -XK ..c.<.Q ! h Q q.0.O.H k [ ! K <.,.[ ",
"& 0 n w ( ..w w 5 H ) ) ( G.S.W...6 u V.4XgXsXO.p P O   X w y 1 e L T Y ..u u t < 5 ; D.E.7 7 1 o o 5 ; # 1 O 4 5 * = t 1 # % 0 ",
"| B.A.n 6.a.y 7.I.Q.L./.dXzX4X4X_.Q.}.}.^.tX6Xm.;X;X].i.e O.m...S.U.].Q.P./.| c [ K | !.6.7.E.A.V.D.w | P.O.C.A.F.D.G.A.( n 6. X",
").9.g v =X/.F q.f.u.a.K q.9X3Xm.m.,X~.,.k 7.f.*X;Xc.n.N.M s.1X;X<X.X;X].g.f.~ } g.M.s.] H 3.c.).eXzX].~.M.-XaX$X4.8.*X].;XrX,X-X",
"0.^ k ~.].8...a.<.7.a.} 6.yX4X;X@Xn.e.5.;./ 5.0.7.7.[ 4.6 [ s.I.).<X].].'.7.X.O.f.z.[ ] W 7.f.M.=XyXwXwX].@XOXs.Q ! 5.b.Q.s.,.[ ",
"9.o.;XQ.' ! 7.7._ ..f.| O.rX,X'.0.c.c.<.7.;.^ } ' ,.O.0.u o.a.!.]._._.}./.i.+.J.7.5.a.a.( ..0.! /  X3X,X[.x.h.7.2.0.[ ^ ' [ <.[ ",
"( X.c.I.{.M.! [ 7.} 7.} ..[.;Xs.7.yX;XI.L.] V o.o.M W H | I...c.!.).E.f.G.8.].f.u.c.f.7.( K ' b H ^.tX'.[ q.tXE.a.7.Q Q q.] Q / ",
"( W _ '.<XI.Y 7.7...S.' ( a.E._.[.].Q.].]...t s.z.<.H U _ Q.u.i.I.~.x.o.o.Q.=X! W 8.z.! v v ! a.0...m._.8.~..X}.].c.c W N.7.E H ",
"/ 5.5.~.M.u.0.! J ( } O.I ] m.uX.XQ.I.i.s.a.H 8.s.,.W ..} q.c.d.!.^.).'.7.5.Q.U._ ( a.O.n f [ ].Q.D 6.,X3X1X!.I.Q.E.( W E.s.;.J ",
"f.y g #.,.F ~ ..) ) W [ L x.a.c.6.u.f.d.d.7.,.c.z.^ 8.[.( W.t.7.*X=X1XwXx.7.I.{.}...S.D.J M 7.x.| B.a.N.;Xs.a.f.d.s..._ s.9.;.` ",
") 6 E S E c ! 5.[ Z 2.4.6 '.O.W ,.z.u.7...K ..X...b H K O z.*.z 7.! R O.} ..8._ ! ] X.P u ! 7.c.a.B.X.[ 7.5.6.u.u...] u.d.;.~ F.",
"O t 1 * = c ..v = . a 2 X = = * , = X * e < X o c 6 % = 1 g : > y & r t 1 v ' d = ; t c 8 & o H C r U.D 7 1 & < : $ O o X O 9 o ",
"c 5 < f b H W k c ! ( H ' H W ] L W K _ <.5.W.=Xc.8.s.s.M.x.6.[ o.<.4.,.3.3.3.0.^ c [ $XrXE.T 8.5.m.9X3X3Xi.K F ' L.} Y y G } t ",
":.q.@X#Xm.x.,.N.rX6XrX;X9X[.-Xl.).3XyX8Xn.$XkXwX6.H <.[ 5.d.0.7.<.>.>.^ A A -.X.D M ,.,.S.fX=XZ.|.{.U.{.uXsX6...m.*XrX0Xu.<.'.~.",
"0.).'.4.l.z.F Q.$X$X'.s...7.{ ! [ ).-X@XM.[.k.f.8.v D ^ 2.o.Q S <.#.>.k V @.;.X.F H 2.V ...XwX;X0XI._.+.).wXG.i.F <.'.E.o.<.m.M.",
"u.z.' E j.0.} 6X%X%X~.s.[ q.J } 7.i.l.h.i.d.c.1Xa.J F S C ^ E ^ [ / ^ V #.B @.4.| M >.E | 0.q.a.i.i.].].d.a.Q.'.8..X'.c.[ 6.d.,.",
"W ! 7 Q 0.] Q.iXx.w.k.c.d.w.h.0.i.0.4.7.'.n.m.eXr.S ^ ^ H Q S %.@.<.a.7.-.^ Q ^ i.v Q c X.7.Q L.I.S._.).Q.L.8.G.3XpXf.7.! ^ ( v ",
"7.../ ^ z.J.I.J.I Y ..Q.E.oXoX$X+Xh.XXr.j.oXl.V.C j E ^ _ c z ^ B [ ! ! E D D y } ! u w p I <.9XE.i.J.).<X2XR.O.^.W.8.z.[ ' ..| ",
"L 2 8 c Q ; x Y 9 o , Y D y s $.s D ^ l d <.<.3 6 + : 3 6 6 2 8 - d 8 5 > % < ; _ [ t t 1 9 w y f g p Y } J e G Q.B.i G U e c [ ",
"s.X.5.q.7.,.3.[ ' 7.&X=Xi.S A S &.7.S.G.' M l.%X+Xx.#X:X$X:Xn.l.6XjXgX@X5X6Xb.r.$X'.$X:X:X0.o.L 4.n.I.f.X.T H / 0.! D 0.5._ X.L.",
"uX~.zXaXsXzXaXm.-XzXdXdXiX$Xs.`.zX3X].lXq.4 5.=X6.` q.b.'.s.q.%.9.hXpX].,X9X~.].Q.a.!.].s.c.a.W I.qXiXb.I.X.b H ^ ,.7.c.'.-X).].",
"s.;.6X-X].].a.m.1XwX=X,X*Xu.| a.iX,Xm -Xx.! ^ / ' W Q u.7...3.*./ }.1Xf.<.7.p.i.m...7.' } ' W / O.0XzX{.`.J 6 ,.7.u.u.d.J.U.N.^.",
"}.O.~.;XM.I.q.x.-X<X|.~.c.i.+.U.,X8Xf l.b.>.W L Q x.G./ w.w.a.a.x.Q.'.s.{ o.Q.'.l.l.).f.8.7._ 8.a.d.3X1Xs.c H 0.5.f.I.).!.U.Q.].",
"}.,.,X8Xs.8.i.'.=XI.f.].).7.7.E.*X#Xb 7.x.>.J F ! n.f.X.4.h.a.a.a.3Xx.} / i.f.l.0.d.~.!.s.a.{ 5.f.,.W f.,./ ).7.u.!.}.^.;X<X_.].",
"}.w.oX'.c.d.8.Q..Xi.! u.T...^ -.-Xl.Y !.x.A >.x [ f.s.x.<.3.f.'.} i.-X{ 7.Q.Q.Q.].c.z.7.q.x.7.[ / [ W i.0.c _ d.Q.}.!.J.1XwXwX3X",
".Xs.n.M.1Xb.{ f.=X{.6...U.L.5 M -Xd.6.eXs.>.[ W [ 5.G.7.] 4.f.Q.^ H '.a.d.z.~.'.E.L.0.^ u.7.Q ,.7.W ] [ ..F Q a.I./.I.p._.i.8.{.",
";X].kXtX0Xb.u.x.+XwX).7.L.7.^ 4.OX4.( *XN.m.n.OXj.1.w.4.[ u.u.i.z...'.0.~.5X~.[ ;.b b s.x.x.W b <.x.<.^ ( r Q L.|.[.~.!.|.G.K Q.",
"].:XpXL.7.<.5.7.m.~.u.0...;.5.[ s.0.g [ t.k.,.;.9.2.%.#.4.s.O.s.} 7.Q.W ,.4.b...7.O.! L.-X=X8.} 7.0.7.K t F ^..XuXwX;XwXwXT.<.U.",
"d ,.o.5 , ; 2 % c W / f.! 6 d @ $ d 7.6.h % % % g > + f m J u.o.1 x c # @ f ! k M S W ^ 8.L.d._.K + & 9 $ 6.].O.8...O.q.} H 2 > ",
"j.x.M.E.F...q 7 K H ' O.K h ^ ' [ b.aX;XI.| W ` G W Q.'._ 8.yX=XQ.m.$Xz.a.|.uX~.4.0.q.].gXzXlXsX<X^.~.b.7.^.P.U _ G 8.C.L [ [ V ",
"/ Q Y ! ,.7.! d.l.z.[.E.8.f.=X,XiXtXN.b.-X*Xx.R.I b.;XqXiX1XgXuXuXfXwX3X'...^.L.' J.1X;XeX1XwX4X<XxXyX<.c.N.`.s.a.c.1X_.8.q.! C ",
"t H ~ W / / W a.x.m.'.c.u.7.7.s.d.c.b.c.'.OX'.O.0 b.E.G.-X2X_.)._.O.K _.-Xs.^.H o.Y.K.J.(.P.Y.U._.hXo.5 E [ a.7...[ } ' / W E h ",
"H F ! <.5.<.L ..Q.c.z.u.7.7.i.7.u.f.i.q.f.a.[ _ U E.[.p.U.,X=X7.{ o.o.{.c.q.'.! i.Y.K.G.U.!.!.].!._.Y h ^ u.8.] <.q.a.( 7.] ' D ",
"m M [ f.,./ ( ! u.7.0.p.7.o.<...[ d.8._ 7.a.7.c...| M.!.].I.Q.x.u.a.c.c.s.a.u.K i.K.J.R.!./.!.|.!.) F c _ f.T.[ >.n.`.i.7.<.H H ",
"7.-Xl...! ^ / ! ] ! 7.d.7.<.o.[ 7.d.z.u.....x.s.( 8.).K./._.I. .K.m.M.].,Xf.G.J u.f.u.J./.Y.Y.!.].D.( 8 ! a.7.a.o._ 8.u.i.f.7.O.",
"O.'.=XU D ! ..[ ,.' / 7.7.7.0.,.a.d.).E.a.d.u..._ '.E.i.U._.P.U._.s.7.s.9X_...F ! u.a.H.I.f.K.].'.S.D.W ] J 5.f.u.( W 0.g.].=XU.",
"p.z.-Xq.Q X.} u.u.a.0.q.x.7.7.s.6.7.f.a.'.'.z.<.P .X*Xn.].=XM.f.p.Q.Q.x.-XwXu.i u / u.J.U.f.J.T.{.L.X.W K / ..f.7...u.s.u.d.2X].",
"[.a.J H f 5 5 ! >.4.j.,.s.0.u.u._ o.7.e.4.[ ,.Q 0 Z.=XQ.-X>X-Xa.m.dXaXN.Q.;XyXZ.u ` 7.s.J.+.i.H..XH } 8 5 u.6.b F Y s.x.d.{ f.'.",
"! e b F ! | | } y w M F ( z.s.s.U.L.F ..5.y = # o q.tXc.5 7 u Q z.I.W , $ H '...h H E E - = y O.P.7.Q.! ..L 7 ; 8.s.8.Y 8 y H M ",
"Q Q.*X~.{.9X9X'. .G.^.{.[.].;X,Xc.E./.Z.u./ y U a.tXaXz.} | ! [ 8.1 h >.! X.8.n.n.0.%.H z.l.6._.'.^.3X3X,Xz.6.<XqX(.L.P P !.;Xt.",
"Q 7.`.c.o.a.0.L W f.I.J.M.i.i.q.7.b.s.< M ,.7.c.[.d...U } -XrXa.m.,.z.dXuX1X1X;XqXwX^ Y wXwXwX0.o.! ..U.s.).I.].2XQ._ | 1XgXfXpX"
};
