/* XPM */
static char *_1ffd9e68746408fc4864133a29c0fbb[] = {
/* columns rows colors chars-per-pixel */
"64 64 96 2 ",
"   c #676669",
".  c #68676A",
"X  c #6B696C",
"o  c #706C6D",
"O  c #6E6D70",
"+  c #726E71",
"@  c #747274",
"#  c #7B7575",
"$  c #7B7778",
"%  c #7D7A7B",
"&  c #837C7C",
"*  c #897E7E",
"=  c #85807F",
"-  c #8A807F",
";  c #7E7E81",
":  c #827F81",
">  c #858283",
",  c #8B8483",
"<  c #8D8887",
"1  c #868689",
"2  c #898789",
"3  c #87888A",
"4  c #8C8B8C",
"5  c #908684",
"6  c #928887",
"7  c #9B8B87",
"8  c #938C8B",
"9  c #998E8C",
"0  c #95918F",
"q  c #9B918E",
"w  c #8E8E90",
"e  c #918F91",
"r  c #8F9092",
"t  c #949394",
"y  c #9B9593",
"u  c #9D9996",
"i  c #969699",
"p  c #999798",
"a  c #97989A",
"s  c #9C9B9B",
"d  c #A08E8B",
"f  c #A6928E",
"g  c #A29692",
"h  c #A39A96",
"j  c #A99B96",
"k  c #A39D9A",
"l  c #AA9E9A",
"z  c #B29F9A",
"x  c #A5A19D",
"c  c #ABA29E",
"v  c #B1A39E",
"b  c #B8A49E",
"n  c #9E9FA0",
"m  c #A09FA1",
"M  c #9FA0A1",
"N  c #A5A3A2",
"B  c #ABA6A2",
"V  c #A7A8A7",
"C  c #ADA9A5",
"Z  c #ADABAA",
"A  c #B3A6A1",
"S  c #B3AAA5",
"D  c #B9ABA6",
"F  c #B3AEAA",
"G  c #BAAEA9",
"H  c #B5B1AD",
"J  c #BBB3AD",
"K  c #B5B4B1",
"L  c #BBB6B2",
"P  c #BDB9B5",
"I  c #BEBCB9",
"U  c #C1B4AE",
"Y  c #C1B7B1",
"T  c #C3BBB5",
"R  c #C9BDB6",
"E  c #C3BEB9",
"W  c #CABFB8",
"Q  c #C6C0B7",
"!  c #C6C1BC",
"~  c #CBC3BC",
"^  c #CEC8BF",
"/  c #D2C6BE",
"(  c #C7C4C0",
")  c #CBC6C1",
"_  c #CEC9C4",
"`  c #D1C7C0",
"'  c #D3CBC4",
"]  c #D8CEC6",
"[  c #D3CEC9",
"{  c #DAD0C7",
"}  c #D6D1CC",
"|  c #DBD3CB",
" . c #DBD6D0",
".. c #DED8D2",
"X. c #E0D8CF",
"o. c #E2DAD1",
/* pixels */
"k s h , 6 : 5 6 8 q h Z K Z K V N m m 8 : < 8 , < l G J G U l g f f z z D U W W U A S ( ( m y D R U v D D U U E ( P I ` W W K A ",
"k B k 8 2 2 9 e e 9 p m n p n V V V N m q y 8 , y D U Y G T G D z z z U R ` [ ] W K K W ) m g m Y G D v U U R ) ) _ E J I Y Y m ",
"B L B y : : w w e 4 e w e t i p V Z B k l l e , g G U J T T L U U U U U ( [ } | _ A Z ( ( D g m G L D D G U W _ [ _ _ L K L K m ",
"H E G p w : 1 w e w e e 4 w e i N V B c k u 8 : 8 G Y R T L T R R Y U Y _ [ [ [ ( m F ( U m k h v G D v G U W ) ) _ ` K F L A m ",
"E E H i 3 ; : 2 t a s t w 2 1 t a n x h 0 4 ; % 6 c D G H J T W W W W / _ [ ) / Y V K E G b v j h D S D D U R ) _ ` _ L K F V Z ",
"L L F s 3 $ : 1 2 i n s e 4 w w y 4 0 u u s = > > < p c G D G L W / R Y W / ) ) F I I Y Y R Y m h D D v D Y ~ ' | | E ( ( I L H ",
"P P V e 3 3 : : > 4 M x p t e 4 1 < 0 0 4 u V M 4 % : 8 G G D D W W Y Y W W U U F I ( E R Y U A m S G v D U ` ] [ R L  . ._ I U ",
"L H 8 ; : 3 4 1 > w s k p t e 4 w 4 6 0 t s V M t % $ & k S J Y W W Y ` / W W U U Y E W T J b m m D G G D T ' ~ W _  .}  .[ I K ",
"F V w 1 3 3 w 3 4 w i s p e 4 t 0 0 0 0 u t s s = 3 t ; @ c Y Y / R ' / W L G G U T E T Y L T Z m F H G G W U K ) [ }  . .[ ( L ",
"B s 4 ; 1 3 3 3 w w a s s t 4 y 0 4 0 0 t s M M t > 3 = = = h H W W / Y G v G U U R Y Y P R Y K m F D G A J A I _ [ }  . .} ( K ",
"V s 8 % 1 > r i 3 e p m i i x s w 4 - 4 0 n x x M 0 a t - = = C R ) / D S Y G U U U K L L L G D 9 s U U H A K ) [ } } }  .} ( Y ",
"Z S k 1 ; > r r 4 t n m i t a t = - 0 0 u x Z V N u = r t 0 % x ) [ E F G G G U D U I L T L L g p 8 : m H s ( _ _  .}  . .[ E L ",
"B G j k t r w y t t M s u s s 0 4 0 t u M V K V x t 3 = = t 3 M [ E m L L T L L G L P I I K b m y e 8 4 m A ) [ } [ [  .[ ) I I ",
"` G B m M i t a i t s x u i i 4 = 0 u k V P P K K M M M M = = u F Z E E ) ! ( P I L I ( ) T m q 8 : : e s L I [ [ [ [ [ [ ( ( ) ",
"_ H A m s i w t 3 1 r u r t t > 4 a u V H K K K H K H x V u t = m H T E E ! E L L I I ( ) ( m p i : e m m Y I ` [ } [ _ _ I ) ` ",
"_ E Z N s 3 ; 1 > ; > 4 > 1 ; > r M V H H K K K K P H C x u u t m Z Z H K E T P I ( I I ( I D A k 2 t D Z s H ' ] ] _ ` E I ) [ ",
"' I B i t 2 ; ; 3 ; % $ $ ; 3 3 t M V K K K K P K I K K V x N s u u Z V F ( I E ( ! I I L L F A 6 2 p m Z m h J ~ ~ ) E T _ _ [ ",
"! H m i s w : ; ; 3 3 ; 3 r r r i M V K K P K P I K K V V V H u t m K ! S L E T E P L P K H S z e : g m U m Z H E E T H T _ [ [ ",
"H C m m n a w > ; ; 3 > 3 r r i a s V Z K P P K I I K K H H C t m Z K P m H L K F H H H Z Z Z m q 2 k S S C K D Z A Z K ( ) E L ",
"V V N N N M a i 3 ; ; 3 r u u t i a V V I I ( I I Q K H K H u u m D Z K S C H Z C m k m l A k y 2 i C F C A L J A m m L T P K Z ",
"Z V M V K V V n i r r 4 0 u t 0 r a M Z I ( ( I Q I K K H x x C S Z H Z Z K L H Z V k k k k l y 4 V P K F V m B m m Z D L L K K ",
"Z Z K K I K K V V s s M - 4 4 4 r t M Z K ! ( Q Q P K K V x F H Z Z V m Z Z L K L F A S B k h w 8 F E P S V B m A K K K ( ( ( U ",
"I K I I I I K I H Z C C V u u 0 4 r M V K I ! Q P C V x V x C F Z Z B C Z H L L K F S Z B k t 4 i F E K Z m H L I E E E _ [ [ ) ",
"_ ( ( I I ( E I Q P H C C x x u = r i M V Z K Z V C C V u x x x m Z H K K K L I T H m Z B c 8 < i C P F Z S H H K P E ~ [ [  . .",
" ._ _ _ ( ( ! E P T J H C C x k 0 = r i s Z P P H H H P F C J F F K K K K I I P H Z V Z B s 8 4 s m H Z K K Z Z K I _ _ [ | ....",
"..} _ [ _ ~ Q P P T H J S C c k 0 3 3 r M Z H Z V V C C x C J J T E I P K I L K Z Z H G B x p 4 m m V D A S m Z K ( } }  ...o.o.",
"o.} _ _ ) ! P T P J S F S S x x M = 3 3 t V H H H C C B C S J H L E E I P E I L I I L L H Z s t s m C m m p m m Z I ( _ ] ..o.o.",
".. .[ _ ~ ( T J G H x c c C c x u t r t t M V K H C C x x J J H T E I P P T P P P I I I P H Z s u m m z m m A m Z P ( ) / { | o.",
"[  .[ ( E ( E Q Q x c x V c x k 0 i u s V V V Z S C S B u S H Q Q ! Q E P P Y Q Q P P P P P H N e m V k V m v Z K K I ( ` ) _ ' ",
"( [ _ W E E E E Q c c x x x u i t a t a M M V Z H S H x u u B J ` ! ! Q E Y L T P ! Q P E I L N q m V V A F V Z F K F K E ) _ _ ",
"W ( ( ( E P T T P S S c x x u t i i i i a M V C H S H H x x V C Y ~ ! E Q Q L L P ~ E I I K K Z i N B N m L Z V K Y L E I ( ) ) ",
"W ( E E ! E T L S S H S x x u s a u t i i M x x c x k C C u C S F ! ! Q Q Q P P L Q Q Q I H I Z i k B B m F K Z Y E T K I T W W ",
"Q ^ Q Q Q Q Q Q J S S x c x x u u u V x x B c c u y h C B x H S H L H Q ~ ! Q Q T T T P Q Q H M u x x x C L J C L Q Q P Q P L T ",
"Q ^ Q Q J Q H J C x x h x u h h x B C H C A c c u 0 u C S k J H Y Q H Q ^ ' ^ ^ Q I P J H S x u s k u k S S S c k k F L H H H P ",
"^ ^ ^ Q Q J J x 0 x x u u u u u u C H c k h c A c h u C J x B J T ~ ~ T T Q _ _ ^ Q P L S c x u k u u C c c c x k x u x x k x L ",
"^ ^ Q Q J Q S u 0 u u u u 0 q h - x A - h - v - j - k H Q x x Y Q Q ~ Q Q L ~ ~ ^ ^ Q I L C x u u y c x u x x c x x c x V Z Z F ",
"^ ^ Q Q J J C x x x u u h u q q x - c c - c c c h - H Q Q C B H T T P Y T ! Q ! ( ^ ^ ^ Q J x y 0 0 y x x x x c F S S C Z F H F ",
"Q Q Q Q Q J C u C C S h h h h g h x c v x k c c A c Y Q Q G x B G S S D L T I ! Q ^ ^ Q J G k - 8 0 x x c S H G L T T H S Z H H ",
"Q Q H Q J S c h C c c c c c c h j S c c x B u x S H Q Q Q H x c c S H J H Q ! ! ^ ^ Y J A c y 0 0 u x F H J J Y Q Q ! T J C F J ",
"S J S C Q J C S Q J C c S S S c j - c c B x u C J Y Q Q J S k j S G J J Y T ^ ) ^ Q G c c y q y u x J P T T Q ~ ^ / ' ! T H H J ",
"C C C c S J Q J J S C x C J C C A c c c c c x x J G J Y G G k k S J Y Q Q Q Q Q Q S S k k y 0 0 x F J Y Y T ~ ~ / ^ ' Q Q P J S ",
"x x x x S S S J S c x x c c C C D - C S S C C C J b c c G S j k c J R ~ Q Q G D b A c h 0 0 y c S G J G Y T Q ^ / / ' ^ T T P J ",
"x x x x C x x S C c x u x C c x c c - c x C - H v j d j v S A q y S U Y Q J A c A c x q - y k S S S J Y Y Y Q / ' ' ' ' Q J L L ",
"x - u u x x x C c S C x u x x u - x - x - - x - f d - - q g q = = u v b G S k h x x k 0 y u h c S S U Y Q T / ^ ] | ' [ ] E J c ",
"S C C - - x x h c S S x u V u u - - < = % o @ @ = * * * - & # # $ - - q x q q h x x y 0 y 0 y u S S J Q T ~ / { ] | | { { ' T H ",
"Q J C x - - h - h S S S u - u u - = % X X X X X X # * & o X $ % < < = = = = 8 h k y h y y k - k S G D Q Y Q / ^ ] | ] ] { / ~ T ",
"Q Q S - x - - - x c C H C - u - - - X       X X   . o o X O & & = 8 < % & = q u q h k y x 9 h S D v G Q Y Q Q ] ] { / ] ] ^ Q ~ ",
"^ Q Q S - x - - - - x H P C x - - ; X   X X   X X X X . X + + & = < < - = 8 q 0 0 c c h 0 u A A v c Q Q ^ ^ ' ] | / / ^ ^ ~ ^ / ",
"^ Q Q x - x - - - u x C C C - - , + X   X . X X O X X X o # # & # & * & & 6 u 8 u c y 8 k v D D b D Q ^ / ' { { ' / / / / ~ / ~ ",
"Q Q Q S c x x - - - u x C S C x = X . X .   X X X X X @ # & @ + # & # # , , 6 y y y y l c A D D A D U Q / ' { ' / / / / / ~ / ~ ",
"Q Q J J S x - = - - u x S J x - - + . . X . . X . X X @ # o o o . o o # 5 9 2 9 g y g c l A D G D b U Q ~ / { / / / { / / ~ Q Q ",
"J J J c c C - = = - = u - - x - = % . X .   . X o .   o o . X + o o o & : < 6 q y y h k B G J H D U U Q R / / / / / / / ~ Q ~ ~ ",
"S c C - x = = = = = - - - v - - - - X X X X X X . . . . o + + & & # & & , , 8 9 9 6 h j c J J D D U Q Q / / { ^ / ^ ] / ~ ~ Q Y ",
"C - x - = < = = = = = = - - - - & = O X X     X . . X X X + # * * & & , 5 , : 7 < 8 8 8 u l S A D b U J ~ / | X.{ / ^ ^ / ~ R D ",
"- x - u = = % % & & - = - - - - = = $     O + X . . X X o + @ & & & & - : 5 5 < 0 e y y y u S A c c v v Y / { { | ^ / { / ^ U x ",
"H c - - - < % % - - - - h - - - = , ;   @ > > $ X   . X X o + + + @ & < , 6 6 q h h l l y q y l b x x j Y Q { ] { X.{ ] | / Y c ",
"x y 0 < = & # & - 0 0 0 - q - - - & % @ : > > @ . . . O O @ $ : > < 6 8 6 9 9 g l v l h q 8 8 h D l g h B T ~ ~ ] | X.| ] ^ J J ",
"B y 0 < , & # * - - - y 0 - = = & 2 , 2 4 8 < $ . . O @ + $ # < 9 5 6 6 y 9 6 g l l A l 9 9 9 g v v A G c D Y L Q ] { ] ~ J J J ",
"x y < , = & % & - - 0 - = # # # , < e 8 0 0 4 > O @ O O X + & 2 9 g 9 g d h y 9 j z z v 9 y g j v v v A G A A S J Q ^ E P Q ! L ",
"x 0 , > & % % & 4 0 u - - = = - 2 < 6 2 , - , , 1 $ @ + O @ & 6 y g g h h l j g d z m A g g l v A D D D A A S S J E ^ W Q / ^ G ",
"c 8 , , & $ & - 8 0 0 8 - & = = , 4 8 2 & & & # % % : : $ # & 6 g j h j l z l z g l j A g q l S D S D D D D A D A F L R R Q R D ",
"c 0 < < = # & , 4 < 0 < & $ # = q y y e , & & $ ; % 2 < , : & & , q j z l l l z l l h A g d m A S S A D A A G D A S W W R Y H G ",
"x 0 < = % & , , , 0 6 > = ; = - e s s w % $ & $ & , 6 g , g 6 : 5 7 9 d g f z A l l h J B q j B l D D A D U G H K K ! ~ R T H D ",
"x y 0 = % & 6 8 < q u 0 r a a a n s 2 ; $ & , , $ 0 l y l D j 9 7 d j z A D U U S A l L T m g D U A D D G G Y P P L ( W R Y D F "
};
