/* XPM */
static char *_0641b2037d044b594782e2645cbb4dd[] = {
/* columns rows colors chars-per-pixel */
"64 64 245 2 ",
"   c #19050F",
".  c #160B0D",
"X  c #1A0C0E",
"o  c #161309",
"O  c #1C130D",
"+  c #1C0614",
"@  c #1D0B12",
"#  c #1A0814",
"$  c #1F0618",
"%  c #1F1311",
"&  c #1D1810",
"*  c #20120F",
"=  c #220616",
"-  c #230C15",
";  c #24061B",
":  c #2B061D",
">  c #250B1B",
",  c #2A0C1C",
"<  c #30071F",
"1  c #300B1F",
"2  c #231215",
"3  c #261319",
"4  c #2A121C",
"5  c #271919",
"6  c #31111F",
"7  c #2C0721",
"8  c #270B20",
"9  c #2C0C22",
"0  c #350826",
"q  c #320C24",
"w  c #350C2B",
"e  c #3A0C2C",
"r  c #2D1222",
"t  c #2E1426",
"y  c #321225",
"u  c #351827",
"i  c #34132A",
"p  c #3A132D",
"a  c #3B1A2D",
"s  c #3C0D33",
"d  c #3B0B35",
"f  c #3C1333",
"g  c #3D1B32",
"h  c #3F1638",
"j  c #3E2033",
"k  c #420E2D",
"l  c #42152D",
"z  c #420C34",
"x  c #490D35",
"c  c #430C3B",
"v  c #4B0D3C",
"b  c #500D3A",
"n  c #421434",
"m  c #4B1235",
"M  c #431B35",
"N  c #44133A",
"B  c #4A143C",
"V  c #441A39",
"C  c #4C1B3A",
"Z  c #53183C",
"A  c #46233A",
"S  c #55203F",
"D  c #460C41",
"F  c #4C0D42",
"G  c #530E43",
"H  c #530D4B",
"J  c #590E49",
"K  c #4C1343",
"L  c #4C1646",
"P  c #4D1C42",
"I  c #541342",
"U  c #5A1746",
"Y  c #531D42",
"T  c #5B1D45",
"R  c #54134B",
"E  c #5B124C",
"W  c #541B4D",
"Q  c #5A0E53",
"!  c #5C1754",
"~  c #661649",
"^  c #63154C",
"/  c #641C4A",
"(  c #6A1B4D",
")  c #620F58",
"_  c #631354",
"`  c #691455",
"'  c #6E1C51",
"]  c #64155B",
"[  c #6B145C",
"{  c #641B5C",
"}  c #731D59",
"|  c #4D2341",
" . c #532444",
".. c #592646",
"X. c #5C2549",
"o. c #5C2B4C",
"O. c #57324B",
"+. c #5D2455",
"@. c #5E2D51",
"#. c #5F3352",
"$. c #63244D",
"%. c #6A214E",
"&. c #63294E",
"*. c #6D2353",
"=. c #642957",
"-. c #6A2C55",
";. c #722456",
":. c #752559",
">. c #79245C",
",. c #742B5B",
"<. c #7A2A5D",
"1. c #633355",
"2. c #6C335A",
"3. c #68395A",
"4. c #73335D",
"5. c #78315F",
"6. c #6B0F64",
"7. c #6B1465",
"8. c #6A1A65",
"9. c #741664",
"0. c #731A6C",
"q. c #791969",
"w. c #791C75",
"e. c #6B2564",
"r. c #782467",
"t. c #7C2E61",
"y. c #6E3566",
"u. c #7C3363",
"i. c #733B62",
"p. c #773966",
"a. c #7C3A65",
"s. c #7A2676",
"d. c #783473",
"f. c #67405B",
"g. c #744568",
"h. c #7C426B",
"j. c #7D4F72",
"k. c #841C79",
"l. c #84296A",
"z. c #823466",
"x. c #85346A",
"c. c #8A356D",
"v. c #843C6C",
"b. c #8A3A6D",
"n. c #882877",
"m. c #922E7D",
"M. c #8A3674",
"N. c #8D3C72",
"B. c #933B75",
"V. c #94347C",
"C. c #96387A",
"Z. c #84416E",
"A. c #864471",
"S. c #8B4473",
"D. c #834B73",
"F. c #884877",
"G. c #8D4D79",
"H. c #914375",
"J. c #954479",
"K. c #97487C",
"L. c #815377",
"P. c #8E517C",
"I. c #92537F",
"U. c #87647D",
"Y. c #851C81",
"T. c #8A2886",
"R. c #922B8D",
"E. c #8A3286",
"W. c #973887",
"Q. c #992B95",
"!. c #963393",
"~. c #9C3898",
"^. c #A1398E",
"/. c #A1359D",
"(. c #A93CA6",
"). c #9A4485",
"_. c #9C4C82",
"`. c #975884",
"'. c #92508A",
"]. c #A54889",
"[. c #A6558B",
"{. c #AA4894",
"}. c #B14D9A",
"|. c #AD5692",
" X c #B15396",
".X c #B6589B",
"XX c #B65C9A",
"oX c #8D6283",
"OX c #96678A",
"+X c #9B648C",
"@X c #9E6992",
"#X c #A36B94",
"$X c #A96A97",
"%X c #B8659C",
"&X c #A37299",
"*X c #AD739D",
"=X c #B1729F",
"-X c #AB47A8",
";X c #B148AE",
":X c #AA5AA7",
">X c #BB57A3",
",X c #B748B5",
"<X c #BC58BA",
"1X c #AD7AA2",
"2X c #B57AA6",
"3X c #C256B6",
"4X c #C566A9",
"5X c #C976AF",
"6X c #CD69B3",
"7X c #D26DB8",
"8X c #D775BD",
"9X c #C554C3",
"0X c #CA57C9",
"qX c #CE57CB",
"wX c #CA66C9",
"eX c #D66EC0",
"rX c #DB74C4",
"tX c #DD7AC2",
"yX c #D866D8",
"uX c #E06DDF",
"iX c #E26DE2",
"pX c #E472E4",
"aX c #E878E9",
"sX c #EC7AEC",
"dX c #F07EF0",
"fX c #AE82A3",
"gX c #B586AB",
"hX c #BB84AD",
"jX c #BD8AB2",
"kX c #C489B4",
"lX c #C595BA",
"zX c #CB94BD",
"xX c #CC97C0",
"cX c #CC9BC1",
"vX c #D59FC8",
"bX c #D5A4CA",
"nX c #D7A8CD",
"mX c #D9AFD1",
"MX c #DCADD2",
"NX c #E2AED5",
"BX c #E5B6DB",
"VX c #F686F7",
"CX c #EDBFE3",
"ZX c #ECC6E5",
"AX c #F1C9E9",
/* pixels */
"q w w e.T.D 3 8 % W l.M.].c.U = X L.zX@X2XbX+Xt a.C.l.[ > w A VXaX0Xh w # . . # g A - c 7.x r 3 i 9 ; = 0 1 - , * p 5 J !.{ c w ",
"w 7 d 7 s.Y.d % % t _ c.z.K.:.e X M kXfX2XnXvXA $._.u.] z 7 a wXVX,X).9 3 . . @ + @.% w 9.` q 3 4 q > = : b 1 3 , * p 6 ] ~.L D ",
"d w 7 w 8 E.0.9 8 % K } l.v.c.T > - oXlXjXnXZX+Xg `.B.U J - w '.dX,X9X9 t . . . - g a > G n.G 4 4 y 1 ; = x b : - , 2 y 9 0.~.L ",
"D d w w w t R.] 4 3 3 _ ' ,.b.l.n @  .lXjXnXAXMXV p.|.Z v w 8 @.aXqXQ.s.: @ # @ O 3 | @ 0 n.q.k 2 4 q : ; < ~ z q 2 - 4 y w 0.-X",
",Xd w w 9 9 d R.c 4 2 f ~ ( 5.b.:.: 4 &XkXMXAXAXI.O.[.&.e x ; | 9XyXQ.!., 8 . # X > a u ; _ }.U 4 3 y > > ; b ' z 9 2 , r t e 0.",
"7.;Xd w w w t W T.w 2 4 Z Z $.S.<.$.- f.zXbXZXAXcXS S.5., w q 9 ~.yX,XY.W 3 . $ X - y A - z }.V.m % t , = : 0 } b b , 2 2 t 4 c ",
"d w.!.f w w 7 t s.] 4 - w I m 1.G.x.y a fXnXBXZXBXg.3.b.6 , x - e.0XqXR.0., % # $ $ 9 a r 8 q.8X} y 2 y > > ; Z n.b G 2 , 2 y 4 ",
"r c T.e.w 8 w 8 g T.N 3 4 x m p P.z.4.- L.MXNXNXBXfX1.a.l - i >  ./.qXQ.6.V 8 # ; - = a i 3 b >X{.T - 3 1 = ; : l.l.J v 2 2 2 y ",
"y 4 K R.W t 0 q % =.T.3 2 s c p | '.u.p A zXZXkXnXbXf.a.m * 4 e i R.,X(.6.H 9 % + , > r a r q c.4XB.y 2 r : = : k ].9.J x 2 - 2 ",
"2 t r Q /.w 9 w t $ !.! % 9 z k 8 i.v.$.r @XZXlXkXMXU.4./ - 2 p > T.(.R.7.E f - . 7 8 : M 4 3 E }. X;.- 2 , - > 1 E >X} E z 2 4 ",
", 2 t y 7.!.> t w - y <Xw - N e w g h.t.y 3.NXCXI.zXjXi.;.= O y 7 d.Q.R.7.Q d , . > i y , a 3 e V. X|.l 2 4 1 - : k x.>X[ _ e 2 ",
"2 4 3 8 w s.e.3 w 0 - +.~.- p v w 8 @.a.C a lXZX|.$XnXf.5.e X 6 s B /.Q.H D L p O # i u : g 3 4 >.C..XH.2 2 4 - ; i m  X}.` _ y ",
"q 2 2 y 4 z !.h , 0 , - {.W % R w 9 f 2.,.> oXZXhXz.zXOXp.Z X O s > -XQ.D D R s % . 8 a r > g 3 m C.C.4XT * 2 6 - ; m / 6XW.[ ` ",
"` i 2 2 y 4 H T.r 9 1 3 g -Xr h v 7 i o.5.M S BXlX5.+XzX3.%.= . n 9 d.T.] e v D t . $ t y , a 2 y c.c.].|.u * 6 > - q Z z.7XV.[ ",
"` _ q 2 3 y i w.=.3 : : 3 d.e.@ _ 9 8  .p.*., hXnXH.,.bXj.,.q   4 f n Q.) w d I p X X , 9 9 > p * X.].l.|.v.2 5 4 = $ e ~ ).eXV.",
"W.^ _ y 2 2 t N s.g , : > g E.a B v ; f p.u.l 3.ZXI.~ #XhX-.m   X z > R.Q c 9 R V 4 . $ 9 8 1 y 4 6 ].l.l.[.$.O 4 y - > m '  XrX",
"rXW.` E 4 3 2 y 8.e.3 9 > > ,.{ 3 ] : w 2.F.( t bX*X*.,.bX4.$.= $ : w =.6.c w B L y . @ > 8 > 0 y % &.XX~ C.B.l * 6 6 * : T ;. X",
" XrXm.[ I 3 4 4 f R.g 3 - : q s.y D d ; X.`.,.g OXbX:.~ *X+X-.y - - c i w.c c t E N * - - ; ; 0 y 5 , [.C.( J.z.5 5 6 2 - : *.;.",
";.XX7Xl.q.n 2 4 3 { d.3 , : - U ! 3 E + S S.G.T O.mXb.~ S.kX&.m > : i w 7.c ! s x N r % > % ; ; q 6 % $.%X' ;.B.S * 6 6 - ; 1 ,.",
"*.l.4X3Xl.9.p 2 3 9 ~.A > - : - e.y c 0 q A.'.t.A jX@X' <.*XP.&.8 > , s L F ! R r c h & , 2 + : q q 5 - K.C.~ z.H.l * 5 4 - ; q ",
"q ;.B.7X>Xq.7.y 2 4 B -X- , = , i { 4 c + a.K.D...U.hX>.>.+X#X-.i ; > i s Q h E.w y B 3 2 4 X + : q y 2 A [.>.~ z.v.6 5 4 4 - ; ",
"> e <.K.eX{.q.E 4 3 3 n.y.- - : = R V f : Z |.u.4.f.lX5.c.`.#XZ.h ; - > N R 7 ~.] 8 h f 2 4 O @ = 0 y 4 * z.B.( ' z.a.- 2 4 , @ ",
"- ; l c. X8XW.9.B 3 4 i ;X4 > = , 4 ! y w ; XXb.Z.&.gXG.C.].$XI.P 8 + - y N N ! -Xz 4 N 2 2 - O + > : u 2 a J.:.~ ' x.-.- 2 3 , ",
", @ ; X.B.6X6Xk.[ i 2 4 e.A.; = : > f K w = a.XX<.3.OX=Xc.XX$X@Xo.t ; @ 4 N K 7 0Xw.9 V y 2 3 X @ ; : y 4 5 %.b.' ' ' Z.S 2 5 3 ",
"4 , - ; a.].8X.Xk.J , 2 a ~.a ; = 7 r P p : e 6Xc.h.i.lX5.7X|.@Xp.i 8 # 3 a F 8 m.,X! t M & 3 * X = > , y 2 u z.l.' ' ;.b.l * 2 ",
"5 3 > $ 9 K.%X6XW.l.n 4 2 e.y.> ; ; r i K 9 ; ]. Xv.1.kXK. X%X[.P.p i # @ r L N F yXE.y V 4 & 2 * - ; = 6 4 * X.z.( ;.( z.z.l * ",
"2 5 4 - ; n XX4X4Xm.[ y 4 M d.p ; ; 8 t M p : T 7XB.4.OX2X)..X_.`. .t $ X 4 n R w ;X3X! y h & 2 O - = ; - y 2 5 z.;.%.z.( z.z.6 ",
"q 2 2 4 ; > &.5X4X{.q.E 3 4 e.P 9 $ > t p N > e  X].D.1.zX[.{.B.`.i.8 8   @ i R n k.iXT.u V 2 O * - - ; = , 4 2 l S.( ;.<.( z.Z.",
"S.1 2 5 , - 9 H.6X%XC.( x - V 8.w > $ t i a p 7 c.>XH.&.hX$X{.l.A.G.9 8 . # y V B ! yX9XP u M o 2 * 2 = : - , 4 * X.b.( z.z.~ z.",
"5.v.1 * 3 - - C XX4X].l.^ q 2 e.f 9 $ 9 3 h n > ~ {.].v.D.=X Xl.4.`.P > # . - f R p <XiXT.5 B 4 * * , - ; = - y 5 * z.<.( z.;./ ",
"( v.4.6 2 4 - > 4.%XXXC.~ F 4 V W 8 > @ r i h 8 z V. XS.&.hX[.n./ A.i.; $ . @ i K e !.sX3XK 5 n & * * < = ; - 1 5 * 6 S.;.;.S.;.",
"<.( v.$.4 2 , - l H.4XB.>.b z 2 e., 9 $ 9 % h f 9 } ^.b.4.OX#XV.J =.P.9 $ . . , h N  .yXpXR.5 n 5 * * , < : > - 1 5 * m b.%.:.H.",
"H.<.%.Z.Z - 5 - - &.].XX>.I F y f W 8 > ; r r N q E l.b.,.g.=Xc._ m D. .; . . @ w B f -XVX9XW 2 f * 5 * k : : = , 4 5 2 $.x.( ,.",
";.H.,.*.S.l - 3 - , x.{.N./ v I > =.3 t $ 9 2 V q m ` *.:.p.$XS.9.z &.D.@ @ . . , n f r.pXaX!.5 i 4 & 2 1 Z ; : - , 4 2 - 4.z.( ",
"( <.J.;.<.S.1 * > $ S M.[./ m ^ i i P r > > r 4 V q _ T $.<.I.I.9.v n D.i $ . # O h p K 9XaXwXE 5 i & 2 2 m x : 7 @ 9 4 * , a.u.",
"u.~ z.H.*.a.5.- 2 2 = z.B.b.m z ] 3 W 3 r = q @ h q ^ x m ;.D.+Xr._ 0 -.1.# . # o 4 N w R.yXsX(.y u 5 2 2 q ~ k 7 > - 4 4 2 1 A.",
"Z.u.%.H.B.*.Z.X.- 3 = p c.C...0 ! N p g 8 : 9 : y w v K 0 / a.I.*.q.w n h.> X # . % h t { yXqXpX{ 4 i O 2 4 Z ( 0 0 > - 4 5 - 1 ",
"1 z.5.%.I.v.,.v.l 2 2 ; *.c.,.p w [ t V 4 7 0 > ; h e ^ , k ,.I.2.9.F 9 1.V X $ . . r f i ,X0XiX;Xp a 2 - 3 0 r.Z e 9 > - 4 2 2 ",
"* k z.,.,.%Xz.u.4.y 2 - w x.u.V q b K i a , w : > i w E 1 > $.G.p.E 0.: C @.@ @ + . % n 3 s.yX0XaXr.4 f O , 4 Z M.x k , - , 4 2 ",
"2 2 M Z.;.x.2Xu.A.X.2 4 > T B. .w 7 R f i 9 0 0 - 9 i v k - n A.F.n T.w i 1.y o $ . O y i n 0XyXaX<Xn y 4 2 , 0 l.C.k m > - , 4 ",
"4 2 * ..z.' [.=Xa.F.p 2 2 p t.u.i q e v i i 9 0 > , i w v X 0 5.I.C 0.] ; o.M X # # . 2 h O R.sXuXpXT.4 h O , y k ^.c.b z : 2 , ",
", 3 2 - 4.a.*.5X[.S.4.1 2 , T K.V 9 7 c N 4 9 0 9 - f : B , , &.I.o.N Q.7 A | 3 @ > . o p , B yXsXVX9X] 2 p 2 , 0 ^ >X>.T e 8 - ",
"- , 3 2 : v.a.S.kX[.`.Z 2 - p z.p.8 ; 0 V y : 0 7 3 8 w z , X M G.a.w !.R , @.r X , - . 2 h 2 ~.VXaXsX~.n y 4 - q z l.4X<./ i 8 ",
": 2 , 2 * e D.a.2XkX`.D.p - 4 / `.f > 7 e N - > 7 3 @ p 9 e . q 4.F.p 8.!.= o.a - $ 8 X o f 4 Y yXsXpXiXq.y y = - z J ].4X<.%.w ",
"w > - 4 2 @ Z S.H.MX=X#X4.- - M v.i.8 $ 0 d t > 1 , - i : k O = Z P.C z ,Xc r o.- @ 8 ; X 2 N 4 -XdXyXsX3XG r 4 > 3 I ` >X>X,.*.",
",.q > - - 2 , -.v.2XNX$X`.C 2 , *.G.h ; : w h - > 9 3 ; f e 2   y h.1.9 ~.s.- 1.> = 8 > - o s 4 +.yXqXqXVXR.e y 2 > r ^ q.4XXX:.",
":.,.1 > 4 - * p v.D.BXzX2Xh.y - Y v.@.i ; q f - > 9 r @ f > y X ; &.D.0 e.;Xw i  .; , > : . * V 9 -XpXQ.aXuX_ i 4 - - k _ l.eX X",
" X<.*.q - - - -  .S.*XZXkX*X .2 9 u.a.M ; = s f - 8 w 3 8 y p X + p G.f P ,X7.# 1.- , r = ; o i r e.uX;X/.pX;Xz p 2 > 3 F _ W.rX",
"rX Xx.$.9 > - 2 1 p.G.bXNXzXP.u @ 2.a.o.s ; 0 f - > s i @ h 9 - ; ; i.1.w /.R.w g M , t - : X * f q ,XpX6.<XqXT.w w 2 - , E ^ W.",
"V.rX Xb.Y : > 2 O m G.=XNXNXkX1.2 a S.2.Y 7 + f t @ c D 3 9 9 4 3 8 M D.8 s.(.D 2 @.- i - - - o r 9 =.sX,X6.9X,XQ r y 2 2 y _ ` ",
"[ W.rX].K.V > - - = 2.@XzXnXBX@Xp - a.p.-.n ; 0 h @ s ] c % p 9 3 8 8 d.h L (.7.3 g a : r @ - * 2 y s ,XdX7.w.,X(.D 4 y * 2 q [ ",
"` } {.tX_.[.w ; - 2 i G.kXcXBXbX3.2 M Z.a.-.7 ; f t @ T.7.2 w 9 > t 8  .1.0 Q.R.w 5  .= t @ X 2 O y 4 7.dX<XD s.,Xs.z - y - 2 w ",
"q [ 9.>X8X|.J.: > - - &.1XzXcXAX*Xa t p.h.K.k : q i @ d.~.L 2 f 9 , t 9 h.: 0.Q.D 5 g i 9 , . X O 2 y n (.pXs.! 6.9X) w 4 3 - 2 ",
"2 p ) l.7X4X%X4.; - * 1 P.bXjXBXmXh.2 Z A.`.5.: ; h @ s wX~.@ s y > i 8 @.A D R.6.8 t M > , X o * o p 2 [ yX-Xh 8.6.<XH q 4 3 - ",
"- 2 N [ m.8X4X%XS $ 2 @ o.jXcXgXZXgXM y u.I.XXk ; w 9 ; wXwXV 7 i 7 9 8 h #.7 w.Y.w 5 j q : $ X X * O p u R.qXs.d ] 7.(.F 1 6 2 ",
"2 2 , I 9.^.tX4XK.i $ 2 4 I.BX@XcXmXL., T I.%Xx.: 7 w - E.yX'.# N 9 8 8 w @.t H T.L 3 a y > ; X O * O 4 y E ,X(.D h Q s.!.c 4 y ",
"q 2 - 4 _ k.}.8X%Xu.> $ - ..cXcXoXbXjXA f h.`.4Xx 8 i # { 9XwXi s q ; > ;  .A w w.6.8 8 g 9 > + O O * o f r n.(.s.w c H E.T.d 8 ",
"2 r 2 2 1 9.n.6X7X|.C = - y OXAXL.1XcXj.w =.G.4Xc.7 w 8 L ,XyXy.> f > + = V | , Q w.d 3 g 4 : + X * * - O f z -XT.! t c D !.w.d ",
"z 4 r - O x q.W.5XXXK.: - - O.mXjXj.jXgXj C A.].>Xv 8 9 8 0XyX:X> h ; + # > o.r w 0.Q r 4 g : ; X * O 2 X 4 y [ (.0.c w c c ;X7.",
"7.s 4 3 > % E n. X6X].,.+ * y #XZXg.@XxXg.u y.x.4Xr.9 f . ;XiXwX| w >   . .  .a 8 H ] w 3 g , 9 = = O 2 - 2 y q ~.T.Q w w d d -X",
"(.0.w r 4 - 4 [ V.XXXXC.n # - 1.MX1Xj.jXfXu / v.{.W.x e $ y.dXdXd.9 w X . # 8 o.3 d 7.F 9 3 l 7 = = - * 2 , 2 y d ;X8.D 9 d d c ",
"N ~.0.0 4 2 3 n l.^.4X].<., X p 1XcXj.@XlX1.l a.c.^.` : i i aXVX-Xi f @ # .   1.3 9 F Q w 3 u 4 7 + ; - * , 2 6 9 Q ,XH c 9 d d ",
"d D !.] , y * 4 J k.].%Xl.T + X g.vX+XoXjX#X4 ,.b.^.l.0 d % <XVXyXW s - . . X y  .3 d ] c r 3 p : ; + : 3 3 , 4 t w 8.-Xd d 8 w ",
"w d W !.J 4 q * p ` C.].].;.e X i hX1XOX2XlXO.Z Z.m.n.G 9 i h.VXiX)., i . . . + 1.@ w E _ 7 4 6 q <   : 1 - 3 - 4 4 c Y.E.d d 9 "
};
