/* XPM */
static char *_f8369022bf34c73df2661234dce0655[] = {
/* columns rows colors chars-per-pixel */
"64 64 255 2 ",
"   c #010200",
".  c #070802",
"X  c #0A0C02",
"o  c #0E1302",
"O  c #111403",
"+  c #151C02",
"@  c #1A1C04",
"#  c #192303",
"$  c #1C2C02",
"%  c #1D3301",
"&  c #232406",
"*  c #232C05",
"=  c #252B08",
"-  c #233303",
";  c #293A05",
":  c #343809",
">  c #2D2F19",
",  c #262626",
"<  c #2D2D2D",
"1  c #353926",
"2  c #343434",
"3  c #3B3B3B",
"4  c #423E0E",
"5  c #2C4702",
"6  c #374705",
"7  c #344B0B",
"8  c #395603",
"9  c #3C6602",
"0  c #3B412C",
"q  c #3E4138",
"w  c #45480B",
"e  c #475708",
"r  c #55560D",
"t  c #464A12",
"y  c #524D10",
"u  c #495614",
"i  c #585A16",
"p  c #466603",
"a  c #566709",
"s  c #4D710F",
"d  c #567905",
"f  c #5C6618",
"g  c #5D7419",
"h  c #697A09",
"j  c #6E6F11",
"k  c #666818",
"l  c #677419",
"z  c #767916",
"x  c #46483A",
"c  c #4F5632",
"v  c #575C38",
"b  c #635C22",
"n  c #57682B",
"m  c #5B673A",
"M  c #6D772D",
"N  c #636839",
"B  c #434343",
"V  c #4A4C42",
"C  c #4A4A4A",
"Z  c #504F40",
"A  c #4D5242",
"S  c #585942",
"D  c #515151",
"F  c #5C6642",
"G  c #656846",
"H  c #6B7646",
"J  c #747A49",
"K  c #747854",
"L  c #71726A",
"P  c #797978",
"I  c #847F1E",
"U  c #807F53",
"Y  c #5B8608",
"T  c #56900C",
"R  c #668804",
"E  c #679707",
"W  c #76950F",
"Q  c #6A8519",
"!  c #77871A",
"~  c #59A005",
"^  c #6FA70F",
"/  c #75B905",
"(  c #788625",
")  c #68912C",
"_  c #7C9423",
"`  c #78873A",
"'  c #72A825",
"]  c #7BCC20",
"[  c #778448",
"{  c #788C4D",
"}  c #7EA844",
"|  c #858A19",
" . c #899719",
".. c #95951D",
"X. c #A09C1F",
"o. c #86A706",
"O. c #85B706",
"+. c #99BA08",
"@. c #87AA17",
"#. c #97A21B",
"$. c #8CB518",
"%. c #A2AB1B",
"&. c #A6B61D",
"*. c #868A24",
"=. c #899828",
"-. c #979825",
";. c #8F9332",
":. c #A49E24",
">. c #87A628",
",. c #97A82A",
"<. c #8CB726",
"1. c #9AB829",
"2. c #9AA637",
"3. c #99B635",
"4. c #A7A925",
"5. c #AAB52A",
"6. c #B4B926",
"7. c #A2A93B",
"8. c #A6B935",
"9. c #B3B83A",
"0. c #98C808",
"q. c #91D10C",
"w. c #A3CA0A",
"e. c #A7D50B",
"r. c #B3D906",
"t. c #A5C41C",
"y. c #B0D118",
"u. c #97E907",
"i. c #A5EA04",
"p. c #B7E706",
"a. c #B8FB06",
"s. c #B5E617",
"d. c #A9F211",
"f. c #9CC628",
"g. c #99D829",
"h. c #AAC828",
"j. c #B7C92A",
"k. c #B7D827",
"l. c #A7C836",
"z. c #B1CF30",
"x. c #B6D43B",
"c. c #8EE523",
"v. c #B8E828",
"b. c #B2F129",
"n. c #B5E335",
"m. c #C3DE09",
"M. c #C5DB18",
"N. c #C3E906",
"B. c #C9FA06",
"V. c #D7FA06",
"C. c #D1E516",
"Z. c #C8F719",
"A. c #D7FA17",
"S. c #E7FD06",
"D. c #F6FF06",
"F. c #E7FD18",
"G. c #F9FE17",
"H. c #C7D427",
"J. c #CACC34",
"K. c #C3D839",
"L. c #D7D739",
"P. c #C5E826",
"I. c #D5E628",
"U. c #C8F624",
"Y. c #D6F827",
"T. c #CAE833",
"R. c #DAEA38",
"E. c #C8F438",
"W. c #DAF836",
"Q. c #EAFD29",
"!. c #F9FF27",
"~. c #E8EA37",
"^. c #E7FA38",
"/. c #F7FD39",
"(. c #84894B",
"). c #899B46",
"_. c #868956",
"`. c #8D9653",
"'. c #959B56",
"]. c #91AD4D",
"[. c #97A759",
"{. c #A9B64F",
"}. c #858A70",
"|. c #90AC6F",
" X c #A5AC6C",
".X c #8DCE4D",
"XX c #B6D352",
"oX c #A9EB4C",
"OX c #B5D16E",
"+X c #B5EC6B",
"@X c #C7DB46",
"#X c #D3DB48",
"$X c #C7D450",
"%X c #C7E647",
"&X c #D7E745",
"*X c #DBF948",
"=X c #CDF255",
"-X c #DAF657",
";X c #E6E845",
":X c #E8FC47",
">X c #F7FC49",
",X c #E9FC55",
"<X c #F6FD56",
"1X c #FCFF5C",
"2X c #C7D96F",
"3X c #D3F26D",
"4X c #DBF678",
"5X c #E5FA6A",
"6X c #FDFF64",
"7X c #F7FE68",
"8X c #E6F976",
"9X c #F9FE76",
"0X c #878786",
"qX c #929290",
"wX c #9CAF96",
"eX c #A7AB88",
"rX c #ACB28D",
"tX c #A7A899",
"yX c #A9AAA8",
"uX c #ABB8A6",
"iX c #B5BAA5",
"pX c #A7D093",
"aX c #B6EE8A",
"sX c #B7CBB2",
"dX c #BAE7B0",
"fX c #D0D695",
"gX c #D0ED8E",
"hX c #E9FC8A",
"jX c #FBFD87",
"kX c #FCFF98",
"lX c #CFD8AF",
"zX c #D0F0AF",
"xX c #E8F2AF",
"cX c #FCFEA4",
"vX c #F8FDAB",
"bX c #FAFCB6",
"nX c #D7DDC6",
"mX c #D1EED0",
"MX c #DAE8D7",
"NX c #EAF4CE",
"BX c #F8FCC6",
"VX c #FDFDCC",
"CX c #FAFCD8",
"ZX c #FEFFDC",
"AX c #D5F5E4",
"SX c #E5ECE5",
"DX c #E9FBE6",
"FX c #FEFEE4",
"GX c #F3F7E9",
"HX c #FDFEEC",
"JX c #E8FCF7",
"KX c #F5F5F4",
"LX c #FDFEF4",
"PX c #F3FCF8",
"IX c #FEFFFE",
/* pixels */
"3 3 2 2 2 2 2 2 3 2 2 2 2 2 3 2 2 3 2 3 2 2 2 2 2 2 2 2 2 2 2 2 3 3 2 3 3 2 2 2 < 2 2 < 2 3 2 2 2 2 2 2 3 3 3 B B 3 3 3 3 3 3 3 ",
"3 3 3 3 3 2 3 3 3 2 3 2 < 2 2 3 3 2 3 3 3 3 3 2 2 2 2 3 3 3 3 3 3 3 3 3 2 2 2 2 < < < 2 < 2 2 2 3 2 2 < 2 2 3 3 B 3 3 3 B B 3 3 ",
"3 2 B 3 3 2 3 3 B 3 3 2 2 2 2 3 3 3 3 3 3 3 3 2 2 2 3 3 3 B 3 B B B 3 3 3 2 2 2 2 2 2 2 2 2 2 2 2 2 2 2 2 2 2 3 B 3 2 3 3 C 3 3 ",
"3 2 2 2 3 3 3 2 3 2 3 2 3 B 3 3 B B B B 3 3 3 B 3 3 B B C C C C C C C B B 3 3 2 2 2 2 3 3 2 B B 3 3 3 3 < 2 2 2 3 < 2 2 < 2 3 3 ",
"3 3 3 3 3 B B 3 3 3 3 2 B 3 B B B B B 3 3 q 3 q 3 B C B C B B C C C C B 3 q 3 2 < 2 2 2 3 B 3 3 B B 3 2 < 2 2 < < < < 2 2 3 3 3 ",
"B 3 B 3 3 3 3 3 B 3 3 B ).` m x x 3 3 3 q B F } eXyXyXiXtXyXyXtXyXyXyXyXyXyXyXyXyXyXyXyXyXtXtXeXeX X).M 1 2 3 < < < < 3 2 2 3 B ",
"3 3 B B 3 3 3 2 3 B B 3 j.h * O         . 5 ] xXIXIXIXIXIXIXIXPXMXPXIXIXIXIXIXIXIXIXIXHXbX XOX5X9XC.^ 5 x 2 2 3 2 < < < 3 3 B 3 ",
"B B C 3 B 3 3 B B B B 3 J N .           % ' hXLXKXSXLXLXsXPXIXIXKXmXKXIXIXIXIXIXLXFXNXxX9Xz.@.Q.S.O.6 * c 2 2 3 3 2 < < 3 B 3 B ",
"2 3 B 3 3 B 3 B B 3 B 3 C x ,       . % T gXHXHXfX|.gXkX|.AXPXIXIXlXsXIXIXIXIXCXvX3Xl.1.A.A.Q.!.m.e # 8 M 2 < 2 2 < 2 < 2 2 2 3 ",
"3 3 3 3 B 3 3 3 3 B B B 3 C 3 , . o 5 T +XCXIXbX.X].l.h.' +XDXIXIXNXwXJXIXIXbXOXn.r.W o.H.:X#X/.z o $ / ` < 2 , < < 2 < < < 2 3 ",
"3 3 3 3 B 3 B 3 B 3 B B 2 2 C 3 0 5 ~ oXbXIXFXcXhXs.0.R ~ U.NXIXIXHXuXJXLXZXhXf.w. .! ..4.l.6.6.& . Y p.v < < < < < < 2 < 2 2 3 ",
"2 2 2 2 2 3 2 < < 2 < 3 3 2 2 C 0 ' oXvXLXIXZXBX/.B.w.W d.a.hXIXIXIXAXJXlXxX7Xe.+.z 8.:.=.-.6.y   $ q.o.B 2 v H F v 1 , , , < 2 ",
"2 < < 2 3 S b v B 3 2 2 3 B 2 2 B H vXHXIXIXHXVX!.B.N.s.Z.i.+XHXIXIXJXAXlXkX<Xr.| l.J.4.2.6.j X   d w.:   : f.>. .v.`.< 2 < < < ",
"2 2 < 3 3 J M N x C 3 2 2 3 3 2 2 C 0XGXIXLXIXFX/.V.V.Y.F.a.*XDXIXIXPXAXCXVX,Xp.#.%XL.T.R.#.=   - O.h X & <.h.@.n.:X[.3 2 2 2 2 ",
"2 < < 2 3 '.&XK.{.G C 3 2 3 3 3 2 2 C qXKXIXIXHX9XQ.S.D.D.S.7XLXIXIXIXAXnXLX7XZ.n.,X:X>XR.r   O Y W + + ' P.t.E.,X:X'.2 2 2 2 2 ",
"< 2 2 2 3 [.:X~.6.XXJ C 3 3 3 3 2 2 2 C qXKXIXIXVXvX1XG.D.!.cXIXIXIXIXJXKXIXkXA.E.1X<X>X5.& X 8 R $ # >.T.k.E.*X,X:X`.2 2 2 2 2 ",
"2 2 < 3 3 [.J.%.! r 3.J B B 3 3 2 3 2 2 C 0XPXIXIXIXHXvXjXkXVXLXLXVXLXPXJXIXZXQ.Q.6X6X>Xz o - 6 + & 8.R.H.h.( l.*X<X[.2 2 2 2 2 ",
"2 2 < 2 B (.z r : * : M G C B 3 3 3 2 2 2 C P PXIXIXIXIXLXFXZXvXvXxXIXIXAXIXIXbXG.>X6XR.y % - + 7 $XR.5...r y 2.-X<X[.3 3 2 2 2 ",
"2 2 < 2 q U w + X X o = ` K B B 3 2 3 3 < 2 B P KXIXIXIXLXZXvXjX2XsXIXIXSXsXKXIXkXF.U.M.8 9 6 g ;XL.X.z r t f 3.*X:X[.3 3 2 2 2 ",
"2 2 2 2 3 H @       . = Q =X_.B q 3 2 2 2 2 < 2 P KXIXIXIXFXcXjX2XdXIXIXPXuXiXPXIXkXW.s.^ E z.<XL...k y w > u ;.@X%X[.B 3 2 2 2 ",
"2 2 2 2 3 G .         * _ *X#X(.B B 2 3 3 3 2 < 3 0XKXIXIXZXkX6X8XdXMXSXPXSXyXsXMXIXVX9XA.H.;XJ...b i k k b u M 2.-.U B 3 3 2 2 ",
"3 2 2 3 x S           * <.#Xj.f.G C 3 2 2 3 2 2 < 2 0XKXIXVX9X>X7XaXwX}.lXIXKXSXMXGXLXbXF.6.-.I k b =.8.;.l i b ( ..G B 3 3 2 3 ",
"2 3 3 B C x           * l.*XI.0.gXP C 3 2 3 3 3 2 < 2 P GXkX>XS.b.+X|.H { nXIXIXLXGXIXBX^.p.&.X.I z 3.8.5.I i u k *.`.B B 2 3 2 ",
"3 3 2 B C B           * z.<X/.Q.NXKXP B 3 3 3 2 3 < < 3 G -XB.r.Y ) +XpXnXIXIXCXxX_.[.$XF.V.4.| I ;.,.,.4.:.k t t t K B B 3 3 3 ",
"B B 3 B C x = 7 > .   o 3.6X!.1XDXsXlX}.B 3 3 2 2 2 < < 3 n 1.o.p 8 a ' gXlX2XOX2X2X3.k.r.!.H.-.,.2.8.5.5.5.-.i : : Z 3 B 3 2 3 ",
"3 3 3 B C K ,.1.1.i .   l &XQ.hXPXMXGXKXqXB 2 2 3 2 2 < < 3 v ( e w 6 e T Y w.e.^.^.Q y.S.Q.>X6.*.f i *.4.8.5.,.( f G B B 2 3 3 ",
"B 3 3 C B H = $ r =.k   @ Q +.oXnXGXIXIXKXqXB 3 2 3 2 3 < < 3 G M t : w Q =.j.^.!.V.^ E V.A./.R.1.*.i k 8.x.@XK.XXx.'.C B 3 3 3 ",
"3 B 2 C C V % ; o # z ! o $ e ) H }.sXIXIXPXP B 3 2 2 3 3 2 < 3 v b : f =.( ,.%X/.A.^ T p.S.k.!.T.k.1.l.-X,X:X*X:XT.`.C B 3 3 B ",
"3 3 3 C C A 9 E T 5 O Q 0.8 # s OX|.uXpXKXIXBXK B 3 2 3 2 3 2 2 x x v ( =.l ( XX&XQ.0.~ q.D.e.p.G.!.^.,X6X1X1X>X6.z S B B 3 3 3 ",
"B 3 2 C C B $ ; p E * 5 e.r # ~ W.>X) M [.OX1XT.v B 3 2 2 2 2 2 2 3 x ` ( *.! =.J./.a./ ^ y.S.o.o.C.I.;X1X6XL.z : X B C C 3 2 3 ",
"3 3 2 C D A o X @ 6 + 8 j.& X W Y.G.M.^ W o.p.N.2.v x 3 3 2 3 3 < 2 B x 2.,.z Q 2.>XZ.u.T s &.V.r.+.r.Q.~.H.i X O u `.C C 3 3 3 ",
"3 B 3 B C [ p - X o O Q j.  . g >.9.~.t.W M.I.j.5.{.J 3 B 2 2 3 3 2 < 2 F $X@.Q >.J./.a.] T u k %.m.m.r.+.a $ 6 / s.H C B 3 3 B ",
"B 3 3 B B ].t.! 5 % 5 f.5.    : e b | k k :.~.~.&X&X-XJ 3 B 3 2 2 3 2 < 2 J @X$._ =.~.Q.B.i.0.W g f d d 8 ; 9 q.B.+.F B C 3 3 B ",
"3 3 3 B C [ #.! e 9 T s.4.    7 R R k w i k :.L.W.*X:X-XN 3 B 3 2 3 2 2 < < H %Xf l ,.<X/.F.S.B.u./ d - # % 9 q.U.t.F B B 3 3 3 ",
"B B 3 C C G w ; 5 p / P.|     u z.*Xk.$.>.5.4.k.*X-X<X,X7XG B B 2 2 2 2 < , 2 N 5.e l 8.7X1X<X/.F.w.d $ X o 7 f.R.6.G B B 3 3 3 ",
"3 3 3 C C x o + 8 ~ d.M.k .   7 n.1X:X%X*X>X<X<X<X,X1X<Xx.'.S 3 3 2 2 2 < < , < v >.u a l ;.@X>X/.%.w X . X i 3.H.#.M C B 2 3 3 ",
"3 3 3 B C B # 5 T u.P.%.: O . ; l.7X<X<X<X<X6X6X6X6X>XH.h h ,.M B 2 < 2 2 < < , 2 N 3.a e r k | ,.I =     X g z.t.O.{ C B 2 3 3 ",
"3 3 3 B C V ; E g.t.#.j @ @ . = >.*X6X<X<X6X6X<X:XQ.G.D.S.N.N.Y.;.B 2 2 3 2 2 < < 2 [ XX@.W | ! h e o     = 1.P.w.0.{ D C 3 2 3 ",
"3 3 3 B C F <.j...k y : O @ O # Q v.:X/.W.>X/.F.S.G.>X9X9X6X>X/.~.;.B B 2 2 2 2 < < 3 (.,X^.R.T.&.k O   . u $.o.h w V D B 3 3 3 ",
"3 B 3 B D [.5.j = @ @ + O @ O + 9 f.Y.!.Z.F.D.G.jXZXHXIXLXHXZXbXcXjXK B x 2 2 2 2 2 < 3 U 9X6X1X^. .& o $ 8 6 @     C D B 3 3 3 ",
"B 3 3 C D (.y @ .   . & & @ @ X 5 ^ b.!.B.B.D.kXHXIXIXIXIXIXIXLXVXvXVXP B 3 2 2 3 3 2 2 3 K jX<X^.w.8 5 5 $ = t =.h.[.C B 3 3 B ",
"3 3 3 B B S X       O 7 t & @ X @ d e.Q.A.i.*XVXIXIXIXIXIXIXHXbXvXCXIXKXP 3 2 3 2 3 2 < < 3 c ~.F.b./ O.e.R.7X<XL.6.'.D C 3 3 3 ",
"3 3 2 B B B         # t g 6 @ O . 7 @.P.S.u.oXxXLXIXIXIXLXBXfXfXNXIXIXIXKX0XB B 3 2 2 2 < < 3 D vXcX6XG.I.5...k i y G D B 3 3 3 ",
"3 3 2 B B B       o > g ( f = @ . # Y t.S.a.' ].lXIXIXIXHXxXlXGXIXIXIXIXIXKXqXC B 3 3 3 2 < < 3 0XGXbX/.B.y.,.*.( z K B B 3 3 3 ",
"3 3 2 3 3 B     o ; g >.1. .4 # O o 8 E +.D.s.) { zXIXIXLXBXIXIXIXIXIXIXIXLXNXU C B 3 3 3 2 < < 2 }.gXG.!.>X<X:XR.K.'.B 3 2 3 3 ",
"3 3 2 3 3 x @ ; u _ f.n.v.&.a : - o $ 8 d o.G.H.) |.mXIXLXGXIXIXIXIXIXIXFXlXrXiXL D B 3 3 3 3 2 2 B m -. .| -.4.4.! F 3 B 2 2 3 ",
"2 2 2 3 q F d ^ e.b.b.s.U.Z.0.p - 5 # % 5 p o.!.P.) OXCXFXHXIXIXIXIXIXIXZXxXKXIXKX0XC B 3 3 3 B 2 2 B q 0 @ O @ & * x B 3 2 3 2 ",
"3 2 2 2 B A $ 6 6 6 e 6 e p R d 8 5 8 $ # ; p @.Q.v..XzXVXDXIXIXGXnXIXIXIXIXIXIXIXGXU C B 3 3 3 3 2 2 x 0 c # X     3 B 3 2 2 3 ",
"2 2 2 3 3 (.k w : = & & O O O o # # $ % # # 5 Y e.S.d.+XkXDXIXHXxXmXIXIXIXIXIXIXHXbXxX}.B 3 3 3 3 3 < < 3 m 3. .f $ 3 2 3 2 2 2 ",
"2 2 < 3 B U {.9.7.7.7.2.2.2.=._ l 8 ; % % $ % 9 / V.a.n.3XDXZXvXfXMXIXIXPXIXIXLXZXbXGXfXK B 3 2 3 2 2 < < 2 v ` 5.8.v 2 2 2 < 2 ",
"< < < 2 B K j k k k b M I *.7.{.;X&X$.s 5 5 % 9 q.V.V.i.oXbXgX3XOXmXDXIXDXJXIXFXBXcXgXx.<.v x 3 2 2 2 2 < < 2 x n k.J 3 2 < 2 < ",
"2 < < 3 3 '.&X#X#XXX9.,.( k r y f 7.>Xt.d 5 % 8 u.!.m.0.b.2X%XOXNXzXmXIXDXmXIXFXkXhX-Xf.R n 2 x 3 2 2 3 2 2 < B c {.G 2 3 < 2 < ",
"2 2 2 3 2 x S S S G G _.{.&X#X-.t i 2.<XO.8 5 9 d./.F.o.u.q.v.hXVXaXzXGXNXdXDXZXjX3X,X$.8 O , < 3 3 2 < 2 3 3 3 B 3 B 2 2 3 2 2 ",
"2 2 3 3 3 2 3 2 3 3 3 x = : z &Xj.f ( #XY.Y 5 T A./.I.O.i.r.F.3X3XXXaXNXBXpXzXVX9X5X&XY - o . c H B 3 2 2 2 < 2 2 2 2 3 3 2 3 2 ",
"2 3 3 3 3 3 3 3 B 3 B F u > O i #Xj.! 8.^.^ 5 / Q.!.M.e.U.S.S.f.XX%XoX+XkXgXaXvX7X,Xv.8 # O X Q $XF 3 2 2 3 2 2 3 3 3 3 2 3 2 2 ",
"3 3 B B 3 3 B 3 C B 2 x w l u O ( ;Xh.<.I.e.Y i.!.Q.A.U.W.G.p.f.-XQ.u.g.9XhXaXhX,X:X$.5 o . o >.j.M 3 3 2 2 2 3 B 3 3 2 2 B B 3 ",
"2 2 2 3 2 2 2 < 2 2 2 3 + # l 6 = @XR.g.r.B.c.B.S.D.V.F.Z.D.d.b.G.S.a.u.I.5XgX7X:XW.Y - .   o _ k.e 1 2 2 2 2 2 2 2 3 2 2 3 2 2 ",
"3 2 2 < 2 3 B 3 2 2 2 q $ - - | O ,.>XZ.i.Q.8X*XF./.^.G.d.^.-XT.p.B.V.o.s.5X4X*X^.f.p $     . f j.@.; > 2 2 2 2 3 3 3 3 3 2 2 3 ",
"3 3 2 3 3 2 2 3 3 2 < 0 x x x H x S [.].'. XtXtXyXyXyXtXrXeX X`.2.2.[ ` ].[.].{.[.{ G V B B B A H (.[ F 3 2 2 3 3 B B 3 3 B 3 3 ",
"3 2 3 2 2 2 2 3 3 2 < , < < < 2 < 3 2 2 2 2 < 3 3 3 3 3 q B B B B B B C B B B B B C B C B B B B x 3 3 2 2 3 3 3 B B B B B 3 3 3 ",
"3 3 B 2 2 2 3 3 3 2 < < < < < < 2 2 2 < 2 < < 3 2 2 2 2 2 3 3 3 2 3 3 3 3 3 3 3 3 B 3 3 2 B B 3 3 3 2 2 2 3 3 B C B B B B B 3 3 ",
"3 3 B 2 < 2 < 2 2 < < < , < < < < < < < < < < < < < < < , < < < < < 2 < 2 < 2 < 2 2 < 2 2 2 < 2 < < < < 2 3 2 C B B B B B B 3 3 ",
"3 2 < < 2 2 2 < < < < < < 2 2 2 2 2 2 2 2 < 2 < 2 2 2 2 < 2 2 2 2 2 2 2 2 3 3 3 3 3 3 3 2 3 2 2 2 2 3 2 2 B 3 3 3 B B B 2 2 2 3 ",
"3 3 2 2 2 2 2 3 3 < < 2 2 2 2 3 2 3 2 3 2 3 2 2 2 2 2 2 2 2 2 2 3 3 2 3 3 2 3 2 2 2 3 2 3 2 3 2 2 2 2 2 B B B B B B B B 3 3 3 3 "
};
