/* XPM */
static char *_9abbb6ad638433288bd8cb2dc470af6[] = {
/* columns rows colors chars-per-pixel */
"64 64 232 2 ",
"   c #0E0A08",
".  c #170700",
"X  c #140A06",
"o  c #1D0B03",
"O  c #120D0A",
"+  c #1C0E09",
"@  c #15120E",
"#  c #1B120E",
"$  c #171511",
"%  c #1B1511",
"&  c #1D1A14",
"*  c #240C03",
"=  c #2B0D01",
"-  c #200F09",
";  c #320F00",
":  c #261007",
">  c #2C1106",
",  c #24120C",
"<  c #2B150C",
"1  c #2F180F",
"2  c #341102",
"3  c #3C1201",
"4  c #32160B",
"5  c #3A1709",
"6  c #32190E",
"7  c #3B1A0D",
"8  c #231611",
"9  c #281710",
"0  c #231A15",
"q  c #2C1B14",
"w  c #241E19",
"e  c #2C1E19",
"r  c #331D13",
"t  c #3A1E12",
"y  c #321F18",
"u  c #1D201A",
"i  c #25221B",
"p  c #26251C",
"a  c #2C231C",
"s  c #362017",
"d  c #3A2016",
"f  c #33231B",
"g  c #3B251C",
"h  c #33291F",
"j  c #3D281F",
"k  c #272620",
"l  c #2B2621",
"z  c #2D2A22",
"x  c #342621",
"c  c #382720",
"v  c #342B23",
"b  c #3B2B23",
"n  c #342E29",
"m  c #3C2E28",
"M  c #3C3125",
"N  c #34312A",
"B  c #393529",
"V  c #3C342B",
"C  c #3D3732",
"Z  c #3D3A32",
"A  c #431400",
"S  c #4B1600",
"D  c #451B0A",
"F  c #511700",
"G  c #541900",
"H  c #5B1A00",
"J  c #541F0A",
"K  c #411F11",
"L  c #631D00",
"P  c #6B1F00",
"I  c #701F00",
"U  c #43261A",
"Y  c #472619",
"T  c #45291D",
"R  c #512B1C",
"E  c #6D2000",
"W  c #732100",
"Q  c #7B2400",
"!  c #7D2805",
"~  c #692F11",
"^  c #432D23",
"/  c #4B2E22",
"(  c #552F20",
")  c #443127",
"_  c #4C3226",
"`  c #43342B",
"'  c #4B352B",
"]  c #443A2E",
"[  c #4C3A2D",
"{  c #533325",
"}  c #53362A",
"|  c #5A3628",
" . c #533A2E",
".. c #5C3A2C",
"X. c #453630",
"o. c #443C33",
"O. c #4B3C33",
"+. c #4D3F38",
"@. c #533D33",
"#. c #5A3E32",
"$. c #693C20",
"%. c #613F31",
"&. c #464234",
"*. c #4C4234",
"=. c #46453B",
"-. c #4C443A",
";. c #4C4A3D",
":. c #544236",
">. c #5A4235",
",. c #554937",
"<. c #54443A",
"1. c #5B453B",
"2. c #544A3D",
"3. c #5B4A3D",
"4. c #59513F",
"5. c #634335",
"6. c #694536",
"7. c #62463A",
"8. c #634B3D",
"9. c #6B4B3C",
"0. c #724A3A",
"q. c #65503E",
"w. c #7B503E",
"e. c #4D4B42",
"r. c #534C43",
"t. c #5B4C42",
"y. c #555346",
"u. c #5D5244",
"i. c #5C544A",
"p. c #5C5A4C",
"a. c #5C5F51",
"s. c #634D42",
"d. c #6B4F42",
"f. c #714F42",
"g. c #645244",
"h. c #6B5245",
"j. c #675846",
"k. c #64544A",
"l. c #6C564A",
"z. c #655B4D",
"x. c #6B5B4C",
"c. c #735345",
"v. c #765748",
"b. c #735B4D",
"n. c #7B5C4C",
"m. c #645C52",
"M. c #6B5C51",
"N. c #745D51",
"B. c #68644E",
"V. c #78604E",
"C. c #6A6254",
"Z. c #696658",
"A. c #736454",
"S. c #7C6354",
"D. c #796957",
"F. c #72645A",
"G. c #746B59",
"H. c #7B6B5D",
"J. c #76725D",
"K. c #786E63",
"L. c #7A7363",
"P. c #73756A",
"I. c #787769",
"U. c #832600",
"Y. c #8A2700",
"T. c #862A01",
"R. c #8C2900",
"E. c #942B00",
"W. c #9C2D00",
"Q. c #97330A",
"!. c #863D19",
"~. c #973B15",
"^. c #A22F00",
"/. c #A43100",
"(. c #AB3200",
"). c #A6380A",
"_. c #B33400",
"`. c #BA3600",
"'. c #B73A06",
"]. c #BD3800",
"[. c #C03600",
"{. c #C43A01",
"}. c #CB3C00",
"|. c #D43F00",
" X c #A4441C",
".X c #BD4D15",
"XX c #8E4F2E",
"oX c #B15629",
"OX c #AB5C36",
"+X c #B96131",
"@X c #C94609",
"#X c #DC4100",
"$X c #D84606",
"%X c #C74B15",
"&X c #D85819",
"*X c #E84602",
"=X c #F34900",
"-X c #FC530B",
";X c #EC5F1C",
":X c #E4601F",
">X c #D45F21",
",X c #D07337",
"<X c #F7702B",
"1X c #815745",
"2X c #845E4D",
"3X c #836252",
"4X c #8C6A56",
"5X c #856959",
"6X c #916452",
"7X c #82755E",
"8X c #AD7A4F",
"9X c #846C60",
"0X c #837365",
"qX c #887766",
"wX c #827B6D",
"eX c #8C7C6B",
"rX c #957A68",
"tX c #8B7E73",
"yX c #A67E69",
"uX c #C27C4A",
"iX c #7E8578",
"pX c #FF8338",
"aX c #82816C",
"sX c #8A826C",
"dX c #898574",
"fX c #968976",
"gX c #949379",
"hX c #A48B77",
"jX c #CB905A",
"kX c #D29B67",
"lX c #989281",
"zX c #A39983",
/* pixels */
"h.m n >.2 L E.U.H L H 3 , g @.1.z Z V 2.) q * 2 H A 3 U.(.P Q ^./.Q H I Q H = = F A ; y [ a %  .t 2 3 A > > * * * = U #.9.N.3X8.",
"3.B.z.S.T 3 P H S < ^ ^ R  .@.<.) ` 2.z.2.q G W W.W./.}.}._.E._.E.L ; D 5 ^ ' 4 ; = g k.M.u.<.' _ @.b.l.o.g 2 ; r { %.d.2Xs.C.b.",
"x.C.j.V.v.K S A T t.s.<.#.1.1.<.*.,.&.X.] q 3 L R.E.(.}.(.E.P W I A 1 <.t.t.O.{ r ` F.wXwX8.i.2.v o.t.k.F.6.R r | w... .h.g.x.z.",
"O.@.[ >.#./ y g @.@.O.t.l.b.C.O.v a M i # # = L W P Q /.^.E.P 3 3 r c o.X.m c ^ b F.x.H.aX3Xj.z.&.v a ] K.N.0.| g d ^ 9.v.s.i.7.",
"^ +. .q.>.:.C -.<.1.s.m.@.s.c q b v M % 8 9 * L Q W U.$X=X{.P 5 g m n l f f f X.2.Z.:.[ @.5.u.m.2.[ -.b <.F.s.r P Q H g l. .b m ",
"@.3.@.8.' U O.n ^ ..O.K.@.c % x h ) ` & # , = E.(.E.W +X%X`.Q S ^ +.n f @   n =.A.L.B.wXfXfX3XI.I.Z.r.X.X.M.#.A Q _.W > [ i.m.z.",
"' b i q t r ' -.o.#.k.wX1.w o.7.] h ` v , r = S E.P S ! ).(.E.F c c O.<.w & i f t.rXS.hX6Xb.sX2XaXP.i.X.n ^ y S P I Q 5 @.@. .O.",
"h.X., ; A = , a l ` ' m z -.u.2.,.3.4.M w a 6 ; H S 3 Q U.Q G 4 a x t.` v m e O 8 ` s.n.v.>.J.4Xm.iXm.w k.9.1 = S H G r 7.s.wXl.",
"_ r 3 U.E.H * b o.C n n X.e.m ^ h b ] b p i y * = o 3 W R.W 2 g b ` b O.v 6 > * = : v _ 5.9.J.h.t.a.a g.s./ 5 3 S 3 3 A r #.t.s.",
"f g A W./.W 3 e ' r.k.+.X.X.f f b 2.r.-.;.Z # * S 2 A Q Q G 4 X.z f _ s S Q W H (.E.A S 6 @.4.:.' n o.c.g ; L E.W.Q E.E.F y <.m ",
"f < = L Q W.E.L 6 ` ' x e b m b _ ] Z b N p # * A A 2 L E = 9 f @ q g 4 Q (.@X&X<X#XW.R.3 y ` ^ 0 N p.v.' = S W ^.E.Q E.P > c V ",
"9 r * A H R.^.U.A y  .X.m f N e 0 0 f f s x g * ; S A L G * , % b T _ 2 5 T.,XkXkXpX{.W.S q r.d.z o.K.tX..; U.E.^.U.Q Q W.I = < ",
"G f %.5 = P I P D T  .k.b + b ^ l g ,.@.g r q r ; U.(.U.; < 9 e ` { 5.6 ; F ~ 8XkX+X|.^.L y F.yX@.@.0XM. .= S P W W L _.{.}.{.R.",
"W.3 ` ` 7 2 G A 6 _ ^ f % $ 8 j +.@. .T 4 3 ; , = L E.Y.= , r m p $ 0 j 2 3 G $.1XoX[.E.I 2 b.rXv V L.@.2 F L G S A F Y.`.*X*X$X",
"U.A X.g._ t 4 4 # # , 8 i M e w b h.5.U 3 P 3 + * A H S 2 < g X.C v & & 1 ; S J  X~.}.P A < t.yX<.' 7.y 3 Q Y.F * * = G L Q.).(.",
"L A f ` s 1 1 r * 3 * 8 ] ,.O.C w B  .g = = = y b t D ( ..{ _ 3.<.^ B q + o ; L _.E.U.A - # 1.fX3Xk.hXc.; F L 3 * - 5 U.E.#X}.W.",
"W.Y.4 j r + < < 3 P 3 r ' h.:.3.@.) & e ^ m ^ X.b q g _ ) #.s.I.I.k.' +.^ * = 3 H L S * < U ..7.x.x.fXeX6.; = 2 r r ; L '.%X|.(.",
"_.E.A / g X - < = ; = / ,.b e 8 9 8 $ $ a &.V ` q v k v m x f ' ] b ^ _ #.^ . - 2 U.Y.F > j ' 9.V.u.Z.<._ #.^ y Y / ; ; P W.E.W.",
"U.Q 3 , < ; * g 1 . 9 b q * * 9 e w $ @ @ z =.2.` :.O.` N.i.x  .' O.C @.+.b , q > G U.L 5 b 1.:.x.3.[ { } } e #.%.^ q = L Q Q I ",
"Y.I A A ; L A x * * : r = G A : g g $ & & l v V v ` x e X.f q d.3XN.k.t.} ^ e 6.| A S A 4 -.i.L.eX[ ] 3.c.9.x [ _ e : H Y.W A Q ",
"W W T.W.H A A f r 1 , + = L A < q 8 h V v B p.b e : - = H L S U 5X3X7.Z.i.' w t.9...Y K _ s.k.g.b.3.B p.7X7.a e w 0 6 A W Q S F ",
"; ; E E.H * b ^ g , ; * ; L A * , # h _ h p Z q 2 G W R.{.|._.G m g.k.C.s.<.z <.+.' b.3.>.7.sXwXL.&.0 i v @.t.X.w X # = G G = = ",
"t * S P 3 y 8 U < S Q Q U.U.P = # + f B [ a # ; S _.-X*X$X$X(.H o o.K.x.<.>.B b.qXA.D.V.9.9.5XJ.] ] B w # m 0XK.r.X.g t = : < 6 ",
"e 8 = = r m 8 + S ^._.}.`.(.(.L 2 = + g ` w * H {.,X,X@XR.W.(.E.H , g +.2.z.^ w f b ) rX1XrXzXJ.Z P.iX,.n o.1.' t.+.O._ q y s.e.",
"n % e V X.3._ > G @X;X<X-X|.(.U.T.W.L : , a = A L ~ oX`.Y.U.(.}.E.5 *.&.2.[ & & a j b ^ V i b e =.K.eXK.<.M.tXP.wXN.7.+.l.F.3Xi.",
"N % n N N B 4 G Q oXuXjX,X).Y.E.(.`.U.2 - > 3 2 L Q W.(.I P P ^.U.K e.Z C b i ` t.Z.y.&.V h V i B i.L.qXm.t.P.iXP.lX7.9X9X9X9Xm.",
"` p n ) ] d 2 R.E.~.$.+X X{.Y.I P U.Q F G W U.W H P Q H 3 W L W F < 8 & u h ) 8.qXF.<.' ` M ,.[ n B.gXlXfX+.N.K.Z.m.M.m.l.3XM.F.",
"O.] 2.g.b.} > H W W.U.).)._.Q S A S W /.E.E.(.^.Y.P F * ; E.E.S * o 8 v ] 4.4.P.eX<.r q h *.B.G.h *.qXtXtX+.r.+.x x @.) '  .+.+.",
"@.j O.*.G.5X7 3 P Y.Q U.U.U.H Q H A A R.(.P U.Q W P A * ; P Y.Q G * f <.*.2.t.e.` q o , j l.Z.3.) f s.b.k.i.I.0XX.g.N.N.F.M.s.+.",
"` # w &.&._ / 2 S G 3 ; A H H H L H ; H Q G P P L H 3 > * A I E.W ; , @.j.B.2.>.^ = H 3 b 3.+.&.*.&.h dXI.#.9XN.a V +.k.d.s.9XN.",
"i @ v v s < : , , 9 T t > ; = * A ; = 3 3 A I I Y.H S ; , ; P P S * f 8.t.B.@.t 3 S W S d X.b.Z.J.C.h &.n.b.z.<.<.k.#.t.s.v.6./ ",
"# % a M 1 o A 2 . r y g g 6 1 - + o - : r 5 A S L L W G * A R.R.S r o.c b *.^ 3 Q W.R.H = q &.Z.g.h.y.x m d.7.b _ 5.%.' #.#.` y ",
"& 0 _ ` , o S ; * , g ' f < : = * o + , f g t 2 3 3 P H = S W.W.L < l w l ` / 3 H Q H 3 ; ; , O.t.z.m.<.` l.l.@.d.7.9.l.g.3.d.f ",
"l v ^ 5 F E S * 8 , b g - = E U.G * e % @ e ^ ' j ; A 3 . A E.(.L > e l o.s.) 3 Q Q S ; P Q L 8 X.@.` ) ' l.d.c _ +.H.qXwXx.H.<.",
"v m K A _.*X}.R.3 A * X 3 H U.W P A e l w ` ] ` <.^ * < > = L U.S _ e.;.o.t.D P [.}.].Q E.`.U.3 e 9 & v m ) y + + q O.n.*.@.,.u.",
"a + > W @X%X|.W.R.W.E H Q W.I S ; * e w % ) a e X.) 9 y _ 4 3 A Y ' r.=.r.c 3 R.|.$X(.P L P P = < < e / ' ^ ; L I ; b @.1.,.[ &.",
"@ : A L Y.W.^.W.R.(.R._.*X].U.3 : , 0 % w & o.*.e % i b  .0.#.>.f.s.#.5Xs.t.; H /.E.W.L S G 7 [ U U { } y r A T.^.P < 8.H.g.] & ",
"w b = L W.(.Y.L G W H W.%X`.Y.A + % & O # 8 h :.0 x ) ` >.V.8.0.H.0Xg.i.l.t.2 3 Q P H Y ' t.k.F.T ^ ^ b 2 = = H R.P < g.0XA.` % ",
"l.7.4 3 Q W.R.A ; 3 3 S W.W.W 2 O i V p 8 8 p ' M a f ` [ ^ X.m <.4.V b ' m 0 4 3 5 >.h.d.3.z.n.} 6.^ 3 L L H W.^.F ^ y.z.2.;.*.",
"O.<.t = P P G 2 U U > 3 W H 3 , O p v g 0 # B ..h q e ,.7.a x p *.x.X.O.x b c 0 % % O.' b s.` 2.n.n.t 3 P L }.=X}.L j  .s.b.:.V ",
"w v l g 5 5 4 ^ 7. .{ 7 = > r   $ 0 @ # # $ i _ h ` [ X.8 w v e p =.4.o.` w % e @ + 0 a f b v *.m.5Xc.< A Q Y.)._.Q r 2.u.h 0 O ",
"N ` m X.R R v.4Xx.>.G.x..._ M & # a v @ i z i & h b V i O $ n &.V v i i 0 % + 0 w $ i O.m.t.h.gXrXrXh.> A [.@X_.W.I j S.A.3.& # ",
"& V N n 8.#.k.u.b *.=.p.x.u.*.b # w i a ;.=.=.v @ 0 $ @ $ a B <.M w   @ O   O & w % w m X.V ..d.rX7Xx.t 3 U.).W.Y.A 7.r.A.h.a # ",
"i m v k r.M. .f v =.Z -.B.x.1.f O i ) j B M h ` i i   @ a ' x q % X   @ x i & % $ & a w % & w [ S.D.3.| ; F U.Q F t 9.#.k.l.a # ",
"# a w p w v 9 f f _ b j y.B.7.8 8 a v v &.B f M M h w & ] ` s ; S Q Q G s } z $ p M *.B N $ w =.h.7Xh.[ t H W.W.! 3 T ` M ' x w ",
"M 1.2.[ o.9 o = * # , ^ >.+.b & a x q g j j / ] ` X.] $ i M > S T.&X<X#XH e w & ;.I.I.k.] p i v ]  .j v t 3 Q E.E.E < M x z.J.*.",
"_ :.d.1.' r S (.W.S * 8 8 8 e w t.p.N N b *.,.A.G.y.a.z # 8 = W ,XjXoX{.W * % r.&.m.h.7.*.o.f w 0 i & ) y = G Q E.U.3 h.j.l.V.1.",
"_ 7.9.d * A R.|.(.|.`.3 q x 8 8 a a _ b a ` 4.B.2.+.*.h @ , = E XXjX8X>X*XA & O.s U } t.*.z.G.s.-.B v j.g * S T.Q H 7 >.n.B.z. .",
" .X.y o P G ].E.`.$X}.^.A c r * 3 < 3 3 * < a ` x c ` O.0 + = S ~ XXOXOX'.L 9 { U t O.a.3.i.A.h.g.` 4.:.: ; H L H D ..0.9.<.o.' ",
"_ f + = H A Y.].E.Q.`.`.Q q , 3 G A Y.Y.H * - = A < i 0 O X * S P ~. X~.].H 2 ..6.| 1.1.k.q.G.6Xw.^ n f = H W U.2 | 3X6X6.8.k.,.",
"T 1 o * * ; L /.(.Q R.Y.Q < 4 = ; = W T.W.P P Y.W.H X X 8 r * 3 U.W.W.Y.Q A 7 n.hX2X0.c.4.l.A.sXrX8.p f 4 3 S G 5 ` k.H.9.^ U U ",
"< + < r < * 3 U.R.G L P F r t T / 6 ; H T._.`.(.(.P = y d.b.r = H L S A 2 4 [ L.fXfXfXfXqXrXv.I.gXeXV 2.s.@.t t b e M 6.' g , + ",
"o = : ^ g < = A 3 = ; 3 1 8 y 7.f.m > A L U.E.Q Y.P 5 U ) @./ r < r t l b 3.h.6X2X8.p.j.s.` 1.<.p.dXg.2.<.K.dXG.] w i 3.0.y S L ",
"= = g #._ g t q b ^ ..{ 9 + , 1 ` e.%.6 * H I P H 3 g r f q g / c x & % V h.l.8.x.D.C.[ g r g s.I.J.l.z.@. .#.g.u.z O 9 1 * 3 H ",
"W G g ' y 4 9 0 % & ] q - * o * e +.^ 5 ; A F 3 * 8 y 8 : : e 8.k.N & C k.v.5X3.>.<.` < 3 A A t  .*.O.D.n.6Xn.H.K.B * 2 A A A W ",
"_.R.S 3 F U.G % p l i 8 * A F P W S * A S * r e e O - 3 H W S y >.&.& X.3.3.g.j.4.2.b 3 Y._.^.A r g -.fX0.6.6.A.y.r G R._.(.P E.",
"E.W.L W }.#X_.A & m x , 4 S W.#X=X{.Q.F ; r g e f % = Q ].].E.G : p z X.b w f ' _ l./ A Y._.^.I > y +.9X0Xn.3X6.^ ; L =X-X=XE.Q ",
"Q Q L ).;X:X|.Q H , 8 + > G .X<X>X*X|.H 6 ^ x } V % ; W.}._.{.^.3 0 n k.>.2.:.] V | 6 = P Y.Q U.P : +.@.K.wXM.' 1 = L oX,X.X/./.",
"L H S !.OX+X[.|.#XR.* . > G T.!. X.X_.W Y +.m ^ g 8 = A E.Y.(.W.F 9 g ^ u.x.9.8.t.: = 3 A S L |._.H 9 t y c ^ 9 3 L A H ~.'.W.P ",
"S 3 ; L Q.Q.(..X}.W.3 = E S W /.Q.E._.W ^ ' V ` x g 7 3 P I Q Q S < 1 r r q { T 1 A T.Q ; A H Y.^.W S 5 4 < < X ; H H H E.E.Y.S ",
"' g = H W P H Q (._.^.G A S G U.E.Y.U.J *.X.n V z q g 7 2 A A S G * 3 L G 3 2 3 3 S Q Q A 3 F U.Y.(.^.E.P H F = = ; A D L L D y ",
"^ #.j ; 3 S S L W.}.[.U.2 4 5 3 F S A y i 0 0 f v w r g 0 , , = A 3 U.{.{.E.E E P 3 S F 3 7 2 G P Y.W.{._.(.^.L : < ^ M.F.d.' x ",
"d.c./ : = L F L U.W.W.E.3 0 f U t U f O $ B M ) g , , , q 8 o * ; H R.{.}.W.Q L S ; A ; y ' | 4 A L H Y.W.Y.U.I L 3 c t.M.b.+.C ",
"8.y ^ r 2 Q ^.Y.L U.U.U.2 T ' 8.[ w & l n V q 0 : # : = > : * S E S H Q ^.E.H 3 ; L A r ' q y } 3 F F P L P H A A ; y O.F.l.y.i."
};
