/* XPM */
static char *_9f78c5f1fca4afea1ca0ecbe386316e[] = {
/* columns rows colors chars-per-pixel */
"64 64 25 1 ",
"  c #020000",
". c #0C0000",
"X c #140000",
"o c #1C0000",
"O c #240000",
"+ c #2C0000",
"@ c #340000",
"# c #3C0000",
"$ c #430000",
"% c #4B0100",
"& c #470900",
"* c #4E0900",
"= c #530300",
"- c #5A0500",
"; c #540A00",
": c #5B0B00",
"> c #551100",
", c #5C1200",
"< c #5F1900",
"1 c #620C00",
"2 c #621400",
"3 c #6A1200",
"4 c #641A00",
"5 c #691D00",
"6 c #6B2100",
/* pixels */
"$=#+OO@O .oOOoXo+@##$@O+OO++OOO+@#$###%$o#%===%%%%$##@@@XX@%=%%#",
"=:;%$#@OXoO@#@@+#$#$%%$$##$###@##$##$$#$O$-:1=-=-:-====%=%$=:1-=",
"==;;*$#@XO@@##$%$&*;=%$$%%%$@#$$#@+@###@oO$*-:2==-1-==::-=$#%=-=",
":-;;,2=$O+###;;;;*%*-:;==%%%$$$$##@@@@#@.o@#%%;%%=---1--;=;%%$**",
"%$%;;:,=@#$%$;,::>::-21-:>*$$%$#$%%%%$%$ooO+@@@@@%%$%%=%%-;$$$$$",
"@$*==-4-#$$%=%===:--:13:=4;;*$$#$$*;**;=##ooOO+XoO+#=$@$=---=%;#",
"%&;:-=2-#%%$$$%===:-:-21-:-;;=$$#$%*%%%#+$$@+OOOXXo+@@@%$*:1>;;*",
":;;:===%#$=$#$$%=%--::,:-=;=;=;$@#$$@@$#+$>;%$@@OooXO++$%$*%*%;;",
">::==#==#%=$###$%%%--==;=*%%%%%###@#$###o@$**$$#+OOXXooO@OO++@#*",
"+##@#@$$@$=$+##@+@#%%%%%$$######$####@@+.+@@$@##OXOO.   .ooX  .O",
"   .XO@@+##+oOo.X .o@@##@@@@+++@@+O@@Oo. .XXOX XX          X    ",
"oo.##%%%%%%$#@@@@+ O##%%=%=;$$%%=%+$#@#$$@@##$##$o o+++@+O+@@@OO",
"@OX#%$#%%$#@OOO+@@.OOO@#$%>>;,,;;$O@%%*%%%#$%;===$O++O+@#@+#$###",
"@OX@##$$$#@#+OO+@+ OOooO@#$&>>><>$o@#@@#$$$$$===-%$;*#@@+@+++@++",
"+o O++@##$$##+OOOO @@Oo.O+@#%*=;;$o@#@+@@@@$$*%=-$$24>$#@@@@@@++",
"@o oOOOO@#$$#@@O+O %&#@+ooO+@#%**%o$$#@+@+O@@#$%=$$1444;$###$%%#",
"$+X+@@++++##%#++#@.@%#@@OOooO@$$%;O$%%$@@+OO++#;;@+:52,24>;=%=:%",
";$+#%*;-%$#####@+O +$$%$####@@##$;+%=-=%#@OoOoO@#@O;,22,2443;=>,",
"2=#$=>,::=%$#$$$##X@#%*%%##@++#&%*+-=;;>;#@Ooo+O@@O;>42132242>>5",
":=$%===--=;*#+@+@#O#$*$*%$$#@+++#$O$=*;;2>*#@OoO@OX=432222,>>;;:",
"##+@#$$%=$$#@+OoXo.O@@+#$@+OoooooO.O@#$#@#$@+oooo  @%%##$$$$##@@",
"#$##$oo#$@@@##@OOOO+###@@@@#@++oXXX++OO$@$%$@OOoXXO@O#$$===%=%$%",
"=:-==@#=%%%==-:%###%;:-;=->,2-%$@++@#++;;==%%@O@@#$%$$#;-:1:;:;-",
"*;>--#@=%%=-==-=%%$#$$;===:>664=%$##@OX%,=**=$#@$#%=%#%-:222-;;$",
"#;;;=%#==%==-;-:;=$##$*::--125654;*&#Oo#%***$@#@#%$$$%$=;;-:>>:$",
"$%;;,$#%=%%====:;*#+@#$>2:1==:4552-;%++#$%*==%$$@@#%%%#@$=;=;::%",
"%#$$%#@#$$%%====-%%#@@+#===%%=;222;,=+O#&%*$*;=%#@@$%%$#@###$%;;",
"-%$*$#O+#$$%====->;%####$=%==*:-=,125$@$%%%$#$$*;%#@$=%#@@+@#%%=",
"=:=2;@O@$$#@##$=;*;*$#%$$$=;----1=--5=$,;$$##$$$=;-$$$#@++O+@$%$",
"%=*$%#$=%$-$#@#$%=%$+O+@#$=-:-1:131;:=%46;$###$##=;=$%$@++#@@@$#",
"#$$**$#%%%$#@@@$=-=$@OoO+#=;%=%=-==1:$#;42;$#@@@++##@@%%$$@@@@#@",
" o++@OX+OOo+O+@#$$$$#+OXX.XoOOoOO#$$$#@@####+ooooXXoO+@@@+XXXoX.",
"oX+@##@OO +###$#@@%==$#+o .XO++o.O@@$%===#$==%@OOoXoO@#%$oOO+Ooo",
"+OO+@+@+o O$*$@###$>6<;>#oXO+@@@#@#@$%=1-@%-22:%+OOo+@#%=O%%%#++",
"OOOoo+$@+ O@####&>&*>*$&&O@$@$$$$%#$$$%=%#%=-:,>%@++o+###X#$$$++",
"@OoOOOO@# oO#$%%#&##&*;#$o+$$$%-%%$$===-1#$%-=:2,%##+o@$%+%%%$$#",
"$#OoOO++@ o@#@#+#%%&%$#@@..##%=%$%%=--=--$==--::,2;$#@@#=@;$###%",
"$%@OOo++@oO&$$##O+@&%&$@OXo@####$$$##$$=%@=--=--;;;;$#$==o,;#@@@",
"@$@ooXO@$+$%;*%@@+O+$$#$+oo#$@+O++O##$$$$#%-=%%==%=*&$$=;o->%@++",
"+O+OoOoo+.+$$%%&##@O@&=-=@@$%#@+++O+@@##$@$%%%===*$%$###$O*$$$#+",
"+OO@Ooooo +*%=#$##+OoO@%=$#%%%$%$#@@@@$%$O+$*$%===-$#@+@+ @@#$$#",
"+OooX.oXoX@@$$$#@+@OOOO+$@+###@##$$@#@O@# X@%$$$##$$#@@+O .o+++#",
".oo... .X  .Xo+OOOOO...XoXXXoO###@@+OOX ...X . .XO+@+o+OX       ",
"O$$++OO++OXoXo@#$#@@@OOO++. +@$$=::-%$#+oOOoooO+#===%@@$%#O XoX.",
"+@##@+OOoXXoXo+@#$#+@@#@+@oo+%$***%=%###@+OOOO+@$%=;###$%$$o$#OO",
"+@#$;*@+oXoooO@##++#@##@@#@O@$$$%%#$$$$$$@@+O+##%%%**$#@%%$O$=#+",
"$@@%>;#OO+OOO+$$###$@+++##+#%2:=;;=%$#$$;*@+O++@#%%==;$@#%%O%;%$",
"%$$$*#$$$#@XoXO@$%@@@@@+@#++%:2;;=;%#$##$$%#@+@####%=*;;$#$@###=",
":;$%%##%=$@..OO@#$%%%*$$##oo#:=;=-;;%%####$$##@@@$$%==>>;#@+$%%=",
"-;:==;$%,=+X.Xoo@%=::,,;%$OX#=-=-:-:::=;=$#$$####%%*%=;=;$+O@%;-",
"--%%-,-%%;$+@+XO@%::122-%=#o$=;;-::;:2:-;*%%##$$%%%$%$$%@@+o@#%=",
"$%%%%=*;=*%@$$+@@$;--:-1-=#@$*:$$*%$=--::-,-*$#$$#$%*$$@OoO @##$",
"#$==$@##%#$%%$#$@@O##$%===@O%$$$@OoO$$%%=*$%=;%@++++%%$#O@  #++#",
"XXXO..Oo.++###+oo .O++o++oOOXoX.. X    .OOXO+#@o..o.O@OO+.      ",
"@o@$$%$##%4,:2=:;X+$%;,-:-=;-;*$#.+@O++@##$=-=;-=+#%$%%=%%@OOOO+",
"@X@%%#@+$$$$;2:;;o@@@$*;:1:-:;*%$oO+Ooo++OO@@%%$$X+#$%=%%%%@OOOO",
"o O*$%$##-===524%O@#@+#$;::::;;**X@@@#@OO+++@#$$#XXO+$$%%%=%@OXo",
"O o#@@$%$=;2==-=%+@$#@+@@@#$$;;;$ #$###@O++@@@@@#XOOO@+@#$%=%#Oo",
"O +#%%%%@#$*;::==+@*#O+OOOo@##$$$o@$###@+@@+O+O++.XOXXXO###%%=#@",
"@.o#%*#$#@@#&%$$$+o@@ooooXooO+++@O@*%#$@@@@@@++oo   X .XoO@%===$",
"$+@$$$%$@######$$XX+@OoOooXXooO@@o@-:;;*=*$$**$#@ Xo ..oo+#%=-==",
"$+@##@++@+@++@#;%Oo++@++OooXXO+@@X+>,,,>>;:;*;:;$XOo.OX .O@#%%%=",
"#oO++@@+O+OooO+@$+++O+@++OXXXoO+@oO#:212:25>%%=%#o+#O+O. O+#%%%%",
"o .XXXooX..XoXoOO.XOX    ..   .XX.OOoO++#$@+@@OOo.XO@++X.Xoo@@@o"
};
