/* XPM */
static char *fe230c49e4324d4dcc83e070cf93175b[] = {
/* columns rows colors chars-per-pixel */
"64 64 76 1 ",
"  c #945216",
". c #94531C",
"X c #99571E",
"o c #9D5C1D",
"O c #A25E1D",
"+ c #A5621F",
"@ c #AB651E",
"# c #9D5E21",
"$ c #A15F21",
"% c #9F6224",
"& c #A46423",
"* c #AA6623",
"= c #A66A25",
"- c #AC6B25",
"; c #A36629",
": c #A96728",
"> c #A66A2A",
", c #AD6C2A",
"< c #B16C26",
"1 c #B06728",
"2 c #B16E2A",
"3 c #AD7027",
"4 c #A7712A",
"5 c #AE712B",
"6 c #AF782E",
"7 c #B27027",
"8 c #B4732C",
"9 c #BA752D",
"0 c #B5782E",
"q c #BB792E",
"w c #A76D30",
"e c #AC6E31",
"r c #B26E31",
"t c #AE7231",
"y c #B47531",
"u c #BA7631",
"i c #B67A33",
"p c #BC7B34",
"a c #B77B39",
"s c #BD7E3A",
"d c #C17E35",
"f c #C17E3A",
"g c #BD8136",
"h c #BE823B",
"j c #C28236",
"k c #C98536",
"l c #C4843C",
"z c #C8873C",
"x c #C5893E",
"c c #C98A3E",
"v c #BF8742",
"b c #C48641",
"n c #C98741",
"m c #C58A42",
"M c #CA8C43",
"N c #C68D49",
"B c #CA8E4A",
"V c #D18E45",
"C c #D08E49",
"Z c #C69146",
"A c #CD9146",
"S c #C6924D",
"D c #CD924A",
"F c #CF984D",
"G c #D09246",
"H c #D1954B",
"J c #D3994D",
"K c #CE9650",
"L c #CF9951",
"P c #D19751",
"I c #D39B52",
"U c #D59F59",
"Y c #D6A15B",
"T c #D9A35B",
"R c #DBA864",
"E c #DEAD68",
/* pixels */
"ui,,*<9gspg,-8ihj89dcxiFl8iqdfp88ff8yrp9,=pN8-du&,s*%y8*=o855=5q",
"iu&8*8i8q7x88uilpgpxlmMxxsmddqupdppfp2-<,u9u7,u<8<*555pp550-+,ht",
"X,y**,-9ZhhyipMgicjlccMmld9sdfp<8zudfy-29882<ps8yi88p7 Oj8pqqj,o",
"+,sa&O-<8hsyuAp0GcDjlAljfq7usqxzdjzd2pddxfyyqhj8p8pjll5 v0<p8,>p",
"8i8jss,s2-yl9gxmd9mlmDjlmpq9bBdkmJGlfplduy:0ju2asjsAlhxg8h8,,y,i",
":828iqp928p9pi88ullAcxjmydpjMmsdzHMpbuqy*8ur9ffpmqsu8u859lu7jy-8",
"tpy8s8<uuuMPml-,dddblzj8dlzHMzMzdclp88-2<8rrdpfuxbbsppyu8pi8>5,*",
"yi407sjp9sGDfu*19&sfxlGrMbnHHVMcVbmxpy8u-@9d2-upyMvhlsthp8u55<yy",
"85,puafdzxxpdujlqMf99PUMmGdlPBAMfsjlxxq88pjppsiy1pxllt,8xi888-y5",
"8->y8<ffzmxNmxGA8pz92xmKJMalmlll,lxi9ZN,0pxsNmapjjlu8liyhl0i<,q8",
",8<,8pd9jcllMPDd199uddjxu1lmcGbpuSb*pZa-8ibmssi9cx8spygiysuy5qgt",
"g0*8y19qllxjsbxjtju8mfDMuuGdqzgmgpgp-Zg>gxNaia1pljjjiu8ip280-=ti",
"588hd11dcNzzljlsfMzjMBbjlpbdphflqqth6xh5i6syys8pxpyips9pssxl8i*0",
"8,8vf9d8qbzmlsfalBdmulBu-bpubs8ggmgpsci64>y89lsfMu8hpisp8lclggpx",
"-,y1rnfa9dpMbyffuffpvpfe$fspdp5pthvg84&iy%>uulbBcduppi08gNgpmpVd",
"fpfhpdffzlubbKbMflVlbfp,,2,e&8slh34,g--i;ty,dssndhg8pgpddmlMMlMs",
"pbMblfCnlbllMBmflpmmslhama2##si-sthixpq%ygidnlsyjli8dlplmmcBPJNM",
"BBnbnlmfdlmVKbAzdudBD8dxayyy5yl,,y6t-05>sbyjppiyluii5pbmMxHUDHmR",
"IPDMnfkdblGDHxMxpMIBmj89,5,:i,lm856piihDxssZbus8spadflbckcPPPBPU",
"DzlmxnldpKDzGuyslbBDsxmy8ii>56t8,=hg0hixlhmdus,,$dmxjzGxMGPbDlbI",
"MmnzzmfslJnMD<lxxupbCplysN,,w8i5%508qxh05hNhypuyuspMIcddlCMbbzBB",
"nxPMsul9lGYbhDmsflh9Mb,ys>,&5t,85,pp6xbphii551,&rbmJckdjpflbfMxq",
"yDBusbf9pmDAlKymPM8&bMv,5&&whi889&489gILhi#%&,&2iyxmdzlpullpMGu2",
"2sp9dbfllcMGDbdmAd1y2qit5;%am-0i8--9gghh5s8&Oihpsdd8sqqflzfblps2",
"upddpcfsqlJHDuNJM8uApi=li5>iigpg33qjid88853-=04-ghh6,gq0dMADlipi",
"yfllxlpy8lNjiyDTl30aip0phyhi*g0i>gjq0quuqp>%5& ogggxigq0hmbbppy,",
"u0jfxjuxxpsx78bj8,SNu579Zhiyyup8yglpd8jcjhs85&#,=5gb04=38ypbi8yh",
"jlpdllhlhpss,y8O&,jFgi3xFv8hlhqjji8qdghsxhphui%o3%8Ax6a,-=,p0uhl",
"phpqxhhbhlp55h8=-8ihppuxhgjGxd@5lxuujml8ujbxhp5;5&+5slh0i0089gdd",
"888ssjgmhjp588<y&iggxuqq70DMj8ixg90i<q8ppdxlg5%>+0,5<858gpgg80dy",
"88uupdjmsppquq,o*xj9pipjjcFmqDFgpgipqq=ilm8<,,,-><,+ip8p78uu,579",
"iuphqjglpslqy58,9gluqps9jkMmBDi8FZxlzp0xlipu2jbp8@ls<58q88p83i57",
"jdljdujjlxda2,yuuqmdpjHs*9plJj8dlxcAlqMlls9pc8pl8jIMy,18u9u,,89u",
"jjjlldkjGcpuyiuqijljjp9dgyujpmulldAJFMjflIGVJPMMjMGlppqus98,&p9p",
"jxbddxGxjMflMFd1ljljlBMd9x81hgsqjHJJHmMMqcIGMMzjczJGcgljqy881pqj",
"Mcmdljljd88pxbp-McduxImpMxy8jiqjpmYHcljmmlzmcmIJxmUMIApqpy8pj9up",
"DGAAMxjjz9bhqu9xAjGDMBp-8MMsf22pmFBJMlcMx08sHcVBbfMHzGu8uu<9jjqd",
"GMMkxxlqxzMxddpjxAAMDnq-sMj88219MMLDMDAjxldDCczzludJmxls8udqsdjG",
"UcMGxjljpj07ccM9jPbhHqdys9pu9*dffugxMSllBbcczGMdxh-1JJMMBljdpjcR",
"TJccljpdqs8lAjAgdcNpqp9e<jlf,,lfs88hlmhMh8jzccfbMd*fHmPDjjMudxGJ",
"DxjHmjpuAMszxxhsyfp<-,2-yiu2,pu29puupllppq8MmdlGj1dJzjms<sxxxxJx",
"zdfmc28dblxqfM5*8p9$-uqdhfqu:ub99s9<:sjjpqxxp9dps8<dj8dyqx0jzzmM",
"jphxx1sjpfxqzjyiuypahidq8zpzypd9lggu88m8q9j9fld88&o8<&5jdsdflqdx",
"=8spyjaal9qlqufsy,#yuy,&zfy2ylddzculjujj9pippp<u,#8,*9phqujzj8su",
"%<8<y99yddds9luiy-&y=pt&pdfp9llzjuupj9dlddmp<91<:yy*pbjpsdislp2,",
"&yi8818ypdduuiudiyy9lah8yrpnlulzlgxuxllxxyys2,u$#.1y<huu28qjp21&",
"81,,0udplxshb8ppsfusx2&yffdulfPMcMmmlHJMld2:uu,o$.:s8u8,usdu9,<,",
"18<5y,8udllsgsy8lfdldxSpfdr2HGVMAGMGzHEPjpb2,1*&O,,*<pqffmDp8u,*",
"822:2yuuy0ph8ps9yjlfHIIfll2pcxmBcmzcMbGJd,ru$.-&.$28yy:phlGl82p2",
"8=8p2,yy8ig8pspp2uldzzMnfyfUJzPmVVxxcMlq98$&r*#8y2:*5,5udpjup88u",
"duy88,-piyu9upuy99p2flyrdjHUUVGMGzHGdxj@8,o-9py:-y#o8,ylj9<su,2p",
"js8,i558ip8pup,erudbyqfyuCPbGzmMMMAcCd3,8y8dyp9*#:$-yyuisq8ypuly",
"y8lu008s8phifdu,yxdfpnlllUnMMxBMGJdzx88t<ldix8*y2,8,ipsh,pp8gpgh",
"up8u8,-5p8supdbslmddBG9lnfDJCxxbdBjp55558xp8xg0p88>&:i-pi,igjg9x",
"x8858587gyullDzcfsjdMfspdlbjlfl<jjq888j<iidlpsl8555i5p,ylhipjggl",
"j5,y8lh4yg58mldlx3phu9q5dxuylz2bM8fd57p88u978jd+&,dj&,s-5biq0ppu",
"x88p8h08psppgi0ppqug889,i8ihlzdlZDzzpdsplhq8p<8h8<g8*qp0ug933ggq",
"g=aihg38,qiipxqjlq98p73y5i8ppxjMHHjmlzxMAcjmMdxxpjs59;iu8iSgg=,y",
"&>,s880pq00,58hMMNjg5gs8MjuslcHYYbdfBCMGmn5hmxMqh0-0bh57=5iijs8>",
"q3y,88p0853<8gjxmmxu@xj19xpyfpDDxbnMUDzmxhiijbglxigvg8i8,5g0i8lh",
"y<8:i55,5gp8igjlxgp8ph5luzmpubluuflmMJ9sfbs9jqplulF836,03,y855p4",
">s%50587ggyiigMgixiluyixc9slpxM9llusfHl9gm,&uihh0hbp+&@*&s5-,=j5",
"&&28,,=5hgggqdjju<2dspljxp8gxppp9b9<p<slittghgip68p89,i889-*8:,5",
"1+i>%8@853hp0,ps88jxplspNlyqbudls28u2*yji,8xu558>5sx55%;,pt58-8i"
};
