/* XPM */
static char *_1659f33fef44f619a349f803daff340[] = {
/* columns rows colors chars-per-pixel */
"64 64 47 1 ",
"  c #60574D",
". c #62594E",
"X c #655D53",
"o c #685F53",
"O c #676055",
"+ c #696156",
"@ c #6C655B",
"# c #6F685E",
"$ c #70675D",
"% c #716A5E",
"& c #6E6760",
"* c #6F6960",
"= c #736D63",
"- c #756F68",
"; c #767066",
": c #797266",
"> c #777168",
", c #7B756B",
"< c #7E796E",
"1 c #7D7770",
"2 c #7E7971",
"3 c #817B6E",
"4 c #827D74",
"5 c #847F78",
"6 c #858176",
"7 c #898476",
"8 c #868279",
"9 c #89857C",
"0 c #8D897E",
"q c #918D7F",
"w c #8B8780",
"e c #8E8A82",
"r c #918D84",
"t c #938F88",
"y c #949185",
"u c #989587",
"i c #95928A",
"p c #99968D",
"a c #9B998D",
"s c #9A9790",
"d c #9D9A92",
"f c #9F9D99",
"g c #A19E95",
"h c #A09E98",
"j c #A2A094",
"k c #A5A39A",
"l c #AFADA2",
/* pixels */
"04,8,474e,288<r43=-=47w-4%;6d20:,%%7:,:2@0899e>8222<e=>4<,*<>:6;",
"4936=7w92=81#:7,;$402,2ar=7q:3+#:,0:#;,e9rwi<*@>484424=4e8=684<<",
"<<4944s>1<,4<6r7,$4e9e8<4<r;:%=9i8,6087<8>44>r>944--4>@8,#8p0809",
"==8644941<9e4906@,hfpi8,<q,+%06e4;76e00q%>=<2<>0828442,224676826",
">4e4<er75e,=>=&$eeat4,<,7,%%%d760<O##=;:<780<#88q9822,9sdp846084",
"+<4+&4$40e51-4+o*>446384r6$:ei;47>9<*=<,ye<7;8j8746= o<8r48>6@93",
"=47<a-<2844=89#+r=+,4$43,-6yd$9ar4*@eek<*>#>2=<94<<8<4wd4r7+>=>,",
":100>$<92;e,5@=t7,%24>0874487uu6<47eu089r,=>+*;,8298+;8,44>4ee,>",
"8ds=4405981=*-4p>r8u48<9976777<;9863u6366%<3w988355,+49544,r8:$:",
"ew5287i792&+w<804i8844<33333743@<4<76=666>48899ee>=&@rr09150,-34",
"t9X@<#->>,+i989ee<55r4,767qu46;;<<6=:e#>2ey2489d,$&3=uee4,-5w44p",
"r19a<X-58-2rw29>9,1,>;a>;2=@664,36:<6,>>=4>416e83rr4u9,84#;&&,4e",
"59<+@#t86,98<6=e5=22202$;@#<7@#,6:63%<6ye08<*;82,,;,1e>-$=r;&&>4",
"r844,4e9<w>;9,8w4t2e,y9$;,60<%aa777637>9>>@#6e6<;53,=4544u0,9gt3",
"><7e2w8811,1&,26,98,<489$=:<,4hi36%7e:68##;8e8>;>3,-rpt5u53r4rr;",
"<>24676w8>><@w92-=89e92<46<6,43976u773646yyi<#*>4149r5-&3a4735>o",
"5r9429472<d64i3=<,884e214,uae4r4>80908:-,9,;@o995w>,2>29940i4<-4",
"e4>-0:>02e94,6;,0;09<14,i538rhe96744,,=y4,,-&5raw95=-es2,f6r48a3",
">,#w7<<7r482w@,7:e@,44,9r1>8t,><2<82226r>;40elu9343,49#+966i54-4",
">91re:>49<25,>74e<>e,<0r-=88$4@47;>67437<0><ri4:@=8,25>i48r+4$94",
"212w9-i,-=*2:$=rw@2er<4-119,<=,<,=4:,:$309-<90,$=0815e0sr9e==18,",
"42484<4@==26@;ye<2i95==-282>#2e1;47;=9u9t@344,%:ur4,5re74<1o4204",
"#-1#X$>48,<*o=,<9242$.8i29,@@i6;<6=00q44<8t5$=r4ie,1,74444,,g044",
"ir4@r0er>=42i294,,q4=0g44*->18>1,>X>,<,$=8=<,r5r44>w>-4,0$>au@@r",
"<-:96044<28d434<11--<r030r349f9421u<#;<0r73eet-==5944-e5,0>r>@44",
"406,2w44696y:435e29<34874><=ie,,808@4ee8<,<<>,9=295=$,414$4,=>,<",
"4e9=448w6499744tt999=957:@-3e4>8e,9>ww22<<79904>i4-+8tw2;=8>=9>,",
"ed<+ye<92842545998e29e04,0r441-=;9f9>=,w<47r8>4042=9959<4=43wt52",
"924<e=<6067;;#&t9224;,>0,3330$24et94<;<284;04---888stsw92225it54",
"91*t,=,8<;>@2@,e18p46973403%<@145>263070q6$%-14449e5>->,=Xtwt554",
"5>we=o38089;,5itt2229a3,4:=%=4419>O,9<,:,=>54349te4==@-:1r99e,,w",
",2915e794=8;9wd529-23<48:%477r4ef2473,:;84444e=0e41-37rae-5d4-55",
"1>w8w059;@8<ee518>:;;2<==6ua3,2e0,700<,,4e,408:44544ttt4443,o.&>",
"52w2>52>29w9>21tf;O+<>*1w796,y46=++;4,3=2yi493$r2<595335wwo-X&-5",
"*=22,81t9,-&w8>-=:*<07e2>6:6764,:=4e6r:,pr;4q:3r95>e4--,1>w>5tf5",
"Xtt2>#+2>>e82,,88:9uip=1,,37766,::<p09,3r<63=5475e1@$&45=o5rls5*",
"1882,9we,99>291-447,4>84e807649<04r04e27i9447=>,5119e-->49p49rt,",
"0w6>2ie896&2w,1<*>>6>84<=*>941<$3<i4;746r4<:@44w955t5o-st03;4r3@",
"e,284w221,>t24e8,-28<7:;686;67<=>7e81449444,4wtwe11,,3wfd>3$05>=",
"9=9er8<*@@9,>859=22>:6,<;29ar7,e37p382e4448=<ewo5195w1tte=9q4&3y",
"*se99w>#X**1, #*2>282<7726088>63,u704q3=X;=upr,55>#=21>@>47,03u8",
"ee92w@>11i95X,,>@8888u>7=>e498-==::44q$;5495ww3teeide,48<44,;ra9",
",289r,i4irpitr,*5e21<6#<,p49608i4,,<44>:rre555=t,286<24:>e:<49r3",
"122902248e66w84te25>4;7qwe,,,i64:4a095380rr9,1<r><4478>7q3=29e45",
"=>89>w=9ir2w22:2,w49<400<004i7<4>ri9448>4y8;@@=r<44=258825r14413",
",45=98>w8,s,<42>=181606>y<;+w84;:7e5118<048904059st58764>15w-444",
"2ew824>2,222>6>3>12069;4,<,8t>:,7e<-<51-=;05&3rp3,544884oX&ee5,>",
";w92,@1**=19:444:d6:<<6777$f,=07e5=,-#@:0d14>93*>95&96>#-,5523t,",
",2%;<=,>+982,,7607y4,=<4>,01%,8346,7:4*=89,=,>&9>,4rie4$<6j8<>22",
">e<07-4=#t2#,8<3337,=@+==459$r3:<28,47;9<838820r44et84><4e076981",
"2+=94$2=,y=:84:,4374631e52943y<4%><8668epi20r8*2$>35969769771212",
">9as83i,98#<<2e8>7>4>ri054e<,u3<,;i<887,6,,<6w96<egr4<<469;=,>ww",
"==wiw4<9e5#ww,2=r68,=;&>>@#,%3=4994;e222;3741;@X=3<3=87:3<6e8#@*",
"-rww=-;82989,2:60+=44<,84>47$;i494<k8489<6<0>;>8457ikr$3:==#;,ks",
"2-<114&8:#i6e683>>7,;;2>=60,6y4686r8*6w749==<98re058@$4re6e6<=w;",
"519i,w9926y9046068k289p73:0ru64384246686<6,wy47@=$4$3r3>79<+=622",
"1151,,529976<7=#<e6ee0u6<0<,70r<24:34<4282,:6;<e2>*9iy<6,:6@6r1e",
">2ttw<82y804Oe7>26e4=ei4:6<O:7,%:496,784t8;<7826,,y0a88,64@><8d8",
"@,e12t4r6ww#6y>70<6#0i8y67:;6669q36:*22,89<=24<8X=84w<<;04*ewpi,",
"O52,e>>=-44Ok97,0i47ka7:2y87jye763q6<4y257;2i644=eie=#766:9ue<28",
",dew9@2=21*8d8<820@ep44,e8<:i+=>4>e4:a9X,@,7y4X<>ie1>6a<7,07:O<:",
"fe126O:4r9<u063:<,=i238;uw284=96=486<i94><<44-a6dr5<67667:76:64:",
"i628>;>84e4>3<8,2@y82629a26><887<y485087457973a84-**;>=63=7768>>",
"<;2*#=re84:00e3y2;w96<2;>,=+<8264<<>4<&>,#,e4,49>,2,8,#67%9686<<"
};
