/* XPM */
static char *_0cfc050392a4d09d1f4ae0a60a95fd2[] = {
/* columns rows colors chars-per-pixel */
"64 64 69 1 ",
"  c #0F0B09",
". c #130F0E",
"X c #15110F",
"o c #161311",
"O c #1A1614",
"+ c #1C1817",
"@ c #1C1718",
"# c #1F1A19",
"$ c #221E1C",
"% c #25211F",
"& c #272221",
"* c #2A2524",
"= c #2D2926",
"- c #2F2A29",
"; c #322D2C",
": c #35312F",
"> c #38322F",
", c #363231",
"< c #3A3533",
"1 c #3D3936",
"2 c #3C3738",
"3 c #3F3A39",
"4 c #423D3B",
"5 c #45413E",
"6 c #48423F",
"7 c #443F40",
"8 c #464241",
"9 c #4A4544",
"0 c #4D4946",
"q c #4E4A48",
"w c #524D4B",
"e c #55504E",
"r c #58524F",
"t c #565250",
"y c #5A5553",
"u c #5D5956",
"i c #5E5A58",
"p c #625D5B",
"a c #65615E",
"s c #676261",
"d c #6A6564",
"f c #6E6967",
"g c #6E6A69",
"h c #726D6B",
"j c #75706F",
"k c #767271",
"l c #7A7574",
"z c #7D7877",
"x c #7B7778",
"c c #7E7A79",
"v c #827D7C",
"b c #85817F",
"n c #868281",
"m c #8A8584",
"M c #8D8986",
"N c #8E8A88",
"B c #918D8B",
"V c #95918E",
"C c #969291",
"Z c #999593",
"A c #9C9996",
"S c #9E9A99",
"D c #A19D9B",
"F c #A6A19E",
"G c #A7A2A0",
"H c #A9A4A2",
"J c #ABA8A5",
"K c #AFACA8",
"L c #B1ADAB",
/* pixels */
"9ypuq69y1%6yw0454<4:=$;4;46450q9w5$:w9890twwtuii,@;0yw88we9;+%50",
"vBVBCZVSa,vJNMNNvlvDk4wmBVBBVSZVFb:wDSVMBZZDSDDDp,pvMZDBvMBd;eVm",
"daadjlzbi=0fhzcjfjvVv40NMmvlxvvmmf>wBmnvlhkvlkdhw<sgshhauuhw4ald",
"dhjhpydbu-5pdkhyryrp0>pmxvmvllxxbg<1xMbhhvnhfklv0,kbs54updl01phj",
"hfsjhfgvy>0yqyw0699dp<pmdpssppkkgu33ywewwssdgfvCw;tlvhpapphw4abh",
"jaerphhms390ti90wrpdw4udppy8wpu8445dp=284740wepvp;4wuuq0yysw4flr",
"555:=:<<-%%*35=+%%**OO*-*,1=;<3<:-%>3==%*=&;=*&**$++$-=:,,4*$<>%",
">$=0950835803=1yewqwy044744888;O*231351148,O&44,3wt0440841141><,",
"v9qDZvvvmCVNjqjSmDJFFFDDDVNBMb1$gBnvvlkmmBn81lMBmmBvvmNnvlvBmvmb",
"lw;phe4rssdmf3ibvljkfhvd6ulp9w;:jvhhdudjdhvw4psvvvvhhjlvldlvkjvk",
"vq;yfvvlfaalu<umBlhhdsdhauhvdu1,knhsjkdiuvBw4t0pkxldlh0pvlpdlbd0",
"z65hu9udapsa91ehhfqwdhdvmkdlfd5<fxkhkkhjvNl47y9pvnp,1pddfjpwpgpy",
"l0,up4>454ua8,yhdffpepfjdglfgz94lhgvjdlxllh4,ptway6844dvfpsdflll",
"f0,ysaw418ey4<eyqdmvhjhaafhjfh02ghuyqiljy>w7;hNfw4wpuyypppewryph",
"y4<yahd91q9e0<888ydlsuaq1ylfydq<w0>::<440pd34lhy9>454<;<q0<7040y",
"8,;wpsdappua4<r0984wewydy4<0dzw,rpw098984wf01410w0414<-=<444wpyw",
"*$+%**>67,,4&$-;<-*;;;>>11**<2$+<8<8w<:eq;1:5dpywq<;19w00w044yy0",
"**=-=***=;$.$&--==**-;>:,15573,88&@*-==,4<%$,91:,;=*&;14,>;*;--*",
"lvbcvbckvBd,ymmnMBMmVBvmVmvzvbmMl28zcnzgfffpyupagghjh<<shllvxhgh",
"jfapfbbjwty9hSbvzbVABvfknbxvlhMCz2wbzcbxjlmvzxvVSBnMM84vhavMllzx",
"pe0516erphy2fZbxfphbvhfaphlvmmbbv93kbmMxdhmBnxjxbxhkx9;lmjffpyyp",
"fpyuq569sNg,wmCBnxklvvjfhlklmvglc95zbBMcjllzbljcxkkvv51hvdwwqypp",
"pawyasp0ymg,7ytslndqwsvvhhlhfghhx00mmNVMzfajvlxxzxnMv44gpdy44qry",
"rpuq55ugdgt3tt;;290>;wpppuq52yjdjq2znbfpdpyaflckhfzMm9;yadpyuuwy",
"upppspdhyfd4ixpp9*1eaaqwpe96330wy<1dse<*<yi04wsse0ehx08hgfhfppdp",
"puyyypfp0yu4dVvhshflvjld4wdpyiw50;1aae1:40wyw4424wwws4qkppfppppy",
";$$. o$%$$$$;,;;;1<;%*=*$%%+&:-:*O$<,&&;-&$%=$oo*1;$;$@$$;;&$$$=",
"wrpaw$;9wyw4=&<<2q;;upe90ttw=1fsiaaaad8;pxddgdfp=$efpaappppyuprp",
"lbvvj40dishhuivNvMwtGKGCVSFS0uHCnxVJAZf4hDGDZZDDy4nZmBmmnxnNmvmM",
"hjdsp<49+,utuw4ypp1qmvvndpzc9<yhbzvcvbe;tvvxblvDi9s9ylpudlvldfkk",
"hxjfp1qd4;wappq70y,4lvlhggvc51gzzkgdvZp<pvmvpphBp,dmvdhkdhllspfj",
"hkjhp<;yp,$wdsdse0:<txmvMngf44mbfjbmxzd<0kdpafsxa1wkhdvvgdhhljll",
"dhjzd1:qup::pq,qpu:<05aMBvhh<>hlzMBnxBh50dajjpama8udpddplnvbxkkj",
"hxjhu10dpgpyaywhhf5<e44q9yvl>,pvVckfdbd9elBBlhjBs,uxxlnvayjzjlgd",
"jvzjp4wlkzlfgkvxpy48lu2:;4dk4>php9501yfejByqsjype,qdjdfvhpppkxhd",
"ahpfs49dy9wyiiikka12pq48wpgh4>r4,4efjlk61r5<50ed4*fky0<4pfpspypp",
"0;;yd00w*=4epw**9p8;7903;4ys7*>9isdjNFB0$*<0wuvm2#088pp61<0w25wd",
";**59:1,%;1<<1;;,6;$,1,;*><,$$490e8,5fa,;54>:wsw%&:;;<4yr;&*-158",
"%&*&%*&*=%*:-*=&%*%*==**;*$&>;&*%O%%O$**=:;:;%O$;;=>;&$$&**$@+$+",
"aaflbMMVf>ybvnk-1bnlhgkgglvmBvvp-1sjcllbbxjbV0qBnxlzbZp$enbbkljh",
"vvvMBMxhaeulkvl55zNMllnmvvvBmBDd1gVzxcckkcccz45vkkvmbCd;gCMZVMBm",
"hvmmvkpdhw4ysjf41pfhsfkhhjhsdp0,<azsjkjkgfdgp-,hvhgjgvp;pBxhdjvx",
"dhkhklxNa,8fdhv61ueypppspphkfeyq1ankjfgnncfhh1:dbBvddmg-0bkspslh",
"hdddlBmlw4hvkhw;<qakgssdhlkdhBZd>0fggfggkccjy:1ygvvhhVv;<lxpusah",
"ffvky9esr49qwrw<-yxvlhppghhgpdju**hblldygcky81wvytvmvmj;4fpphhdh",
"kdp4,44dp<4444e9<tptyw0tupyuw,8q:3vMbVbsgvsyf8qz7<pfpds<0ppvjvlp",
"r4$:pdwpq=49449<4w=$,454004088w01efsssaauyifj40dw0<;;wp>yvpqyy04",
"X .$&$oo..$$OX@XO$+OO+*%XX$$*%$$XOOO+O+%%+%&*#=;=;-&*4<&;<$$$..@",
"44rr;=weww00tw0w09qpha&=asw048udpyyidp1+-yw5482:477742-@#:4,,3,<",
"BNMv44VVvBZVBBBmmnmCKH2-NHCnlnmBZZBmvBm><bBMvklvvmmMZGf%7bnvMBbn",
"Nvld44gdeeppddpdhdeyfk3&ejnCvpwuipfvgkl;<hdkVZmmmvvvxmt%wpahlkkb",
"vvvg<4gfpdr44rdpsu54ys21yijkdpdutpphjhp*4xduvZZMmCmdabi$0i7pghhk",
"gfhf4>fvlgg94pgvzjjlha42qqtuaspshdgkhdp;4vmvksdhhp47kBt%4pppi9tg",
"rppp4*yhw;--qpppauaywp92te8984ry1*-0tdd;<BVddvaqr4wgkvt$*0w<<34p",
"<49h0*97<>-<4>9w1:114u9,9q2-=14480943al74piw5004<4rtyms@4p4,8yq4",
"O$>4$@<-&*>;$.$$++$*-*X.#=-&$;&$;;--*-4;=<*&%**%&->29t,.>4;<<><1",
"4<;-;4411>*&707904,18090988q4$;w08841,41,4451;<1:;=*%+*,*$$$$&=&",
"lklblfvvvmt*sAmvvbBZBVDZmBBms=tSDZBvvvlfhfhvmmlxvxduahhhpyjw>pvj",
"lkpyupduelt&wspggfhkhuihldady-wnvxhhhkdpfhpphzhfzvvvblhddhvw<plk",
"lhppdhdhhl0;pp<9fdyydhsywyhlp,8ywdgdpppsppppppshjfadhhy;<ply4yhf",
"aplvvvshBBw*pv040wugjdauiphxs,8w4wpfdppspphlhashhjhffgp50pkp7sha",
"9ufawudadl4$yfy49wyuw9wypwejd,9dr4<84101;0yweppy00yuaaragrpw1pdy",
"9eyw99www0;*wa9400>::,1<2w48p4:wr649w8431:,9q4;;41-,wr6909ae>ppw",
":;;;;==&*&%*;*&***%OO$*-=*&%*&$*;;*;,,,;;;;::*$$***;-*;;->4;$>4>"
};
