/* XPM */
static char *_1ea6dd08d804f3af709f192fba04383[] = {
/* columns rows colors chars-per-pixel */
"64 64 24 1 ",
"  c #8C7E7B",
". c #927E7C",
"X c #8E817E",
"o c #93817E",
"O c #98837F",
"+ c #8F8380",
"@ c #948582",
"# c #9A8683",
"$ c #958986",
"% c #9B8A86",
"& c #978C88",
"* c #9C8D8A",
"= c #9D918D",
"- c #9F9391",
"; c #A08B87",
": c #A28E8B",
"> c #A3918D",
", c #A8938F",
"< c #A58F91",
"1 c #A49491",
"2 c #A99692",
"3 c #A59896",
"4 c #AA9894",
"5 c #A5999A",
/* pixels */
":;>:..#O...<#%&%&=&&&X%**>*>:*>::>1O=O=OO1O1O4O4441O=O==3=3XX=3=",
"*%*:*.#.###<#;&&&&&O$&***>>>>>>>>:O=O2=OO1OOO1144OO1=OO33===XXO=",
"OO##<<#O.#;O.+++X-==X$=**444>O*>OO*==1214OO1OO44O141==&&==XX=XO=",
"%O**######..++.$=-==&&&*:>,>>=OOO=O2>112441O444441413=XXX3==X=OO",
"*%%:#OO##.+@@@&-1==&==%$O>22>:*:=1OoOO=2O14>>O4444444OO=3XO===X=",
"<##::#;;#@&&<--&&&=>=>=%:*>>O*>*OO=>>>O>4>4OOOOO4O>44O==X==X==3=",
"::..O;###&&&-5-&&$*>>*=#%*OO**::1=24244111OXOOOOOO4OO4OO=X3=343O",
"2:%#%%;;@@&&*&-&%&%;>**#%O%%=*%:=OO>>1O>31OOO=>=OOOOO4O=X=OOOO44",
":;;;;*%%*&=*=**-:>>>::**%*>,:*:%==OO&O&O1=O&XO==O3O3OOXX&==X===3",
"O;O%OOOO$*::1:11<,,1,>>*&=>4,::*OO=OOOO==O1==O=O444433O3=&XXXXOO",
">:%:>%*=****;1242222,4>=>>>:>,:>1O===O=-O==>=OOO343O3O3XX=X+XXXX",
"O>2>2,,***::*:>>,:::>>,4,4:%,42,41=====OOO>1=3344OO33O3OXXX=OXXO",
"O*1,>2>>>>,::>:;;:;,:;::,>:>;:,,>>O=>=OO3==44O44OOO33XX=3O-5OX=X",
"$OO>>,>>:2>>:>:;;:<:,:;#*>::;,,,>>1&OO&==>>=1OO4444OOXXOXX-X3==X",
"o%%>,1,*@*>2,%*#;#;:::;;:<:::<::OO1OOXO=OO1OO4OO33OOXXXXX3X=XXXX",
"X$$O%,>:%%>>>:>:;;::::::;;#;:<<:O2O>=X&&O=O=>O1=3O=O&-XXXX=3-===",
"$X=&$O*>:%>>>:OO%::%%,;:;#;;:%;#O4=====44O4O==O=OOOX&=XX==O3O=&=",
"&$XXo%O%*%%:%%%%%OO:;*>;;;:;###%=O>4O==>==O==O4OO3O==X===XX=3&XX",
"+&X@$o&%$&O%:&%$:*O;;;#O###.:###OOOOOO=OO4O4>OO====&===33=3==3=&",
"$&&&$$&Ooo$$%O&>>>:o#O%O%%.#O#%@OXXO==O==O>>>4===O=&====3==O=X&&",
"&&&&->=$$%&$%**%#%>>%;%O#%:#*-#$OXXX&=====44O44O=O=O==3===3==&==",
"=$$$&>*&&*&%$:&oo$:>*%%*&**#O.+ X&&XXXXO=O=O444444=4=O=333333==3",
"&&&$&O%>=:&$O$*%$$O%%:*O&&#&@o $&&=&X&XXO=OO444=4414=====3=====3",
"&$o$$O%==>=$$&**&#*>*;*=@#&#+#*-&=3=&XXXXXOOOXO=O1O44O=O=&===3=&",
"$$$X&&$$*>**&$&*$%$>*%O%XXXX+@--3==3====&XOXX=X=O4O4====&&&&===&",
"&=$$o%&$%:*>&$*&%$Ooo&&$X$X$&$$&=&X&===&X==X=X=OOOO4O1O=&=&&&&&=",
"==&&&=>*%:>>>=*>&$XXX$$@&&=&-&&&==&&&&&&&&OXXXX=O4O444=O&&&&XX&=",
"-&&&*=1>>*:>>*%%$+X$XXXX%$&=&$$$==&&XX&&X====XXOO14O=OOO&&&&==33",
"=&&=*>>,>>%OO$&&$@&&$&=&==*&&&$@&&&==X&&=X====X31O4===4==X=X==3=",
"&=>=*>>>41>*$X$=$$=====&&=1----5=&&&&&&XOX==X=X==44OO=O======3&=",
"$*:>>>1;;>;Oo&@XX&====@$=&=-5-5-=&XXX&&&==OO==XOOOO44O=O===O==&X",
"&&>22,>;:%oXXXXX@=-==&&==2335--&X&&&&X&&==3====O==O===11=O======",
"**;,,::;>*$$=&XXO&=--==&=13333-=&XX&&&&&=O4=4OO4O=4O4O=O===1===4",
">=;;,:;:;>#==-==-==&&$&$&=-1&$==&X&&&&=X=O=4444=444=O===4O4OO44O",
">>>%;:;;>,*%===2---=-=X@$&==>1--=&X&=OX===O4444=O4=OO4==O=O4444O",
">;>O%OO;;;*>>==313--==&@o&&$&31==3===XX&11OO4O4OOO44=4OO=1444O=1",
"*>%#O%:;;,:>>**&&==3=&&=&&&&*11-==4==&X&4O==O44O4=444OO4O44444OO",
"O>;>>O;;:>>%*::%&&=&&&&$&&%==&=====O==&&O44O44=44OOO144444O4O44=",
"=,,>>;O>:>2>>>>*&==&$$@X$===&>*>======4=44O44OO=4=4O=4O4O444444O",
",,>>4>>O:::*;>*%=&====&$X#==****4===4444O444444OXOO4=O4O4OO4OO44",
">>;;>,#oOoO*#*%$Xo&&==&&$@&=>*%%O>=42O2O442O44O4>>>1<;;%4OOO=O44",
">#%*;;%>*@@$:%#*&XX&&=3&&&&=*>:*=>4>2OO4OOO4>44O>42:;:::4O14144O",
";;>;%$%>*$X@#%*%o=XXX==&&XO::&>>>O>42O4OO24OO44O*::;:;;:OO41>4O4",
"%%>>*%*==&$@$$*$o&=&=o&&o&&%:%%:>4O=2OO>OOOOO4O4:%;*:<<;4O4O>O4O",
"O%;::>****&&&$&+$&&&-==&$$%1>*%#O4O4=OOO4OOO444O2>;%#;;#OO#;>>OO",
">%::>>:*=>>%$&@@&==&&&X&$%&4>*>*O>>4=4=44OOOO4>422,:##O#@#O;OOO>",
"4>>:*%*:&*$&&=$&====&&=&&&;>::*:>O>>>>O=OOOX=4=4:::;%;#*;:;OOO>2",
",42>>>*>=%>>>*%%&3$&==&&$%:O:>%%==OO>>OOO>4444O>;;:;,#;#:;,,:O>2",
"%;>>**::>>O1==o=-1--*&&&**>;%%***%%%#oXXo*:,2;:::::;:>>*%;;*:::<",
";;;>>OO=>>=OOoX=-33--*$&=>2>>;>**%%@$@$&$:>2:#;:::##*,;%O##O;;;;",
"%;;;*%O*>>1=&X&&&>=1-&&&=,>,,,2,>:==:&%=>,;::::,::;<,>2:;%;%%;#;",
"%;>>=>=*O41O==&o&=1=-$*->:::>:>2*,>%>>>*=,;:;;;<:;::>:>>;;;;#O::",
"4>>>2>>*O>>>==oX&==3=+%#%>%O;;;4,>2><,,2>;:::;:%:;#:2:%::O1,;;;:",
":4:*>>>>21>>======3=&XX$%;:%OO;;>24222,,>:::>:#;;.#:>2>:*>>,>>%*",
">:%O%:2244>O=XX===-=&&XX>,,*;%;%::,>:::::12;;;O%;:,>>12>>,;>;>>:",
":%%*:>2>111==OX===&&=&&@#;*%>>,*%:,<<<:::;;;%%;%;22;:>221>*%#*>:",
";>>,12<:>O,,:*%=1-*==$+$ooO#*>,,%;::<2:;;;;;;:,%O4222>>:>:$%&%%*",
">42,<2<:,4,2>>*$&=1=&&XXX%=*>:>:::;:<:<::;;;%O>>2>>>%:O%ooo&&%*:",
">>:::2<<2,,:>*O&&1=3=&@@&&#>,,;:::<#:<:::;;:;;;>:>222%:%OXX+O%*:",
"2><:;<<<>>;::*=&==3====&%&**>>#%;:####:;;:>,>>>;:::*:$%$X@o+X$*>",
"%%:,*:<;;;;>O>:*&==1==&@&%$O%%*%O.O#.#;#O:>O2>>>>>:O%&oX$$&$$X$=",
";#*::;#O#%;;O>%OX$&--&&%==&$O%%###.@###;%O;:O>>>>:=OO%$$%11&$XXO",
"%%#*;;;OO;%;%$oX$$===&&==>=**,:::%%%##;;2O:>,>O>:>O=&&$$$&&&&&$$",
":%:O#:###.OO*O$=&=-3&&&>%%>:>>,2,%*>#%<*>OO:O,>O1>=11*$$==-$&=>="
};
