/* XPM */
static char *_73826086f1747b1e10797e53ec9cff8[] = {
/* columns rows colors chars-per-pixel */
"64 64 253 2 ",
"   c #1A0A06",
".  c #1E130D",
"X  c #250B05",
"o  c #240A06",
"O  c #2C0C05",
"+  c #3A0501",
"@  c #330D05",
"#  c #3D0D05",
"$  c #2C1206",
"%  c #25130B",
"&  c #2C140A",
"*  c #2E1A0D",
"=  c #331306",
"-  c #3B1305",
";  c #341309",
":  c #3B1708",
">  c #351A0D",
",  c #3C1C0C",
"<  c #251A14",
"1  c #2D1C13",
"2  c #261D18",
"3  c #3B1711",
"4  c #331D12",
"5  c #3C1D11",
"6  c #3D220E",
"7  c #2C221B",
"8  c #332215",
"9  c #3C2313",
"0  c #35251B",
"q  c #3B2519",
"w  c #39291B",
"e  c #3D2A1C",
"r  c #352C24",
"t  c #3A2D22",
"y  c #362F2A",
"u  c #3D3228",
"i  c #3E3933",
"p  c #440B04",
"a  c #441304",
"s  c #481706",
"d  c #441B05",
"f  c #431C0C",
"g  c #4D1D0B",
"h  c #521906",
"j  c #431D12",
"k  c #571C10",
"l  c #44220C",
"z  c #4B230B",
"x  c #4C280B",
"c  c #54240B",
"v  c #552A0C",
"b  c #59280B",
"n  c #5F310D",
"m  c #442414",
"M  c #4A2513",
"N  c #442A16",
"B  c #4B2B14",
"V  c #432618",
"C  c #442C1C",
"Z  c #4C2D1A",
"A  c #542C13",
"S  c #562B16",
"D  c #4E3117",
"F  c #4C321D",
"G  c #553115",
"H  c #5B3315",
"J  c #52341C",
"K  c #5A341C",
"L  c #57381B",
"P  c #5D3A1D",
"I  c #653112",
"U  c #663A18",
"Y  c #623C1B",
"T  c #472E21",
"R  c #453223",
"E  c #4C3423",
"W  c #4D3925",
"Q  c #42352B",
"!  c #4B3729",
"~  c #45382D",
"^  c #4D3B2C",
"/  c #533522",
"(  c #5A3623",
")  c #543A24",
"_  c #5B3D23",
"`  c #54392B",
"'  c #533D2B",
"]  c #5B3E2B",
"[  c #443B33",
"{  c #4B3E32",
"}  c #453F39",
"|  c #633F24",
" . c #6A431D",
".. c #74491F",
"X. c #5E4127",
"o. c #56422D",
"O. c #5C422C",
"+. c #4D4135",
"@. c #47433D",
"#. c #4C433A",
"$. c #534232",
"%. c #5B4532",
"&. c #5D4935",
"*. c #53453A",
"=. c #5A4638",
"-. c #55493C",
";. c #5C4B3B",
":. c #5F503F",
">. c #644224",
",. c #6B4524",
"<. c #63452C",
"1. c #6B4728",
"2. c #64492E",
"3. c #6B4B2C",
"4. c #734C29",
"5. c #77532B",
"6. c #634B34",
"7. c #644834",
"8. c #6A4D33",
"9. c #644D3B",
"0. c #724E30",
"q. c #685235",
"w. c #6C5135",
"e. c #65523C",
"r. c #6C533C",
"t. c #745434",
"y. c #7A5835",
"u. c #72553A",
"i. c #745A3C",
"p. c #7B5C3C",
"a. c #7B613A",
"s. c #4B4945",
"d. c #544C43",
"f. c #534B44",
"g. c #5B4E41",
"h. c #5D5244",
"j. c #565049",
"k. c #5C544A",
"l. c #5B5854",
"z. c #604E40",
"x. c #635342",
"c. c #6A5642",
"v. c #6C5944",
"b. c #635749",
"n. c #64594C",
"m. c #6C5C4B",
"M. c #735C44",
"N. c #775C46",
"B. c #7A5E44",
"V. c #725E49",
"C. c #635B52",
"Z. c #6B5F52",
"A. c #655F59",
"S. c #6E614F",
"D. c #7C6244",
"F. c #7A6444",
"G. c #74624C",
"H. c #7B644B",
"J. c #7D694D",
"K. c #6D6253",
"L. c #6C655B",
"P. c #68635C",
"I. c #736453",
"U. c #7A6651",
"Y. c #756856",
"T. c #7C6A53",
"R. c #706659",
"E. c #746A5C",
"W. c #7B6D5A",
"Q. c #7E715E",
"!. c #6B6965",
"~. c #746D63",
"^. c #786F63",
"/. c #7D7363",
"(. c #747069",
"). c #7D766C",
"_. c #7B7873",
"`. c #835B2F",
"'. c #815D37",
"]. c #88663C",
"[. c #926C3F",
"{. c #876846",
"}. c #82654A",
"|. c #846B4D",
" X c #936D47",
".X c #8B724B",
"XX c #97764C",
"oX c #826C53",
"OX c #836E56",
"+X c #857153",
"@X c #8B7354",
"#X c #84735C",
"$X c #89755C",
"%X c #8D795C",
"&X c #957957",
"*X c #937B5C",
"=X c #A17E4A",
"-X c #837563",
";X c #857864",
":X c #8C7B64",
">X c #847A6B",
",X c #8B7D6A",
"<X c #927D63",
"1X c #907F69",
"2X c #857E74",
"3X c #9C825C",
"4X c #A38559",
"5X c #B28E53",
"6X c #8D816D",
"7X c #958164",
"8X c #9B8364",
"9X c #9F8864",
"0X c #94836C",
"qX c #9A856B",
"wX c #9D8A6C",
"eX c #8C8275",
"rX c #89847B",
"tX c #938672",
"yX c #958876",
"uX c #9B8B73",
"iX c #968B7B",
"pX c #9C8E7B",
"aX c #9D917D",
"sX c #A48A68",
"dX c #A9926B",
"fX c #B6996A",
"gX c #A38E74",
"hX c #A3947D",
"jX c #AA9778",
"kX c #B49B78",
"lX c #BAA178",
"zX c #CAA872",
"xX c #918C82",
"cX c #969186",
"vX c #9C9283",
"bX c #A39583",
"nX c #A49884",
"mX c #AC9C84",
"MX c #A49B8B",
"NX c #AA9D8A",
"BX c #AB9E8B",
"VX c #ADA08B",
"CX c #B4A284",
"ZX c #BAA586",
"AX c #B4A48C",
"SX c #BDAB8D",
"DX c #ADA394",
"FX c #B8AA94",
"GX c #C1AA85",
"HX c #CBB48F",
"JX c #C7B595",
"KX c #D5BB91",
"LX c #DBC5A4",
/* pixels */
"W ;.r t l.!._.rXrXrXP.+.6 w t $.g.{ k.! ' t o , : @ T ) _ P 2.3.S s ) #X_ q.;XyXbX1X-XoX<.$.;.9 : l ) t.].3.{.fXzXkXlX+Xq.J @ j ",
"S.:.{ { P.!.!.rX!.A.i % 1 u *.+.g.-.t r Q 4 O X 4 ' ;.) P _ L | >.7.B.oXA E G.dXaX/.Z.$.E 9.C 6 m x o.&.7.i.3XzXfX X&Xi.J = 4 $.",
">X-.g.k._.P.l.A.s.} 2 * % i j.*.9.*.u Q { C @ C g.V.9.>.8.>.P x ) M.&.9 - ' wXgXv.I.%.q C 9.f l l Z _ O.|.*XdXGXXX>.dX7X) V o.W.",
"/.R.k.f.j.s.i @.i 7 . $ 8 P.).r.r.;.$.=.] D F &.x.q.<.] t.8.7.O.o.=.B , F -XuXQ.o.M.; N e.Z d 6 F G O.#X}.+XsX<XJ <XJXu.] o.$.Z.",
"/.K.Q r i r i ~ 8 $ $ . K.xX(.e.r.&.^ V m J ) ^ x.x.) J Y O.r.q.o.X.F N x.eXyXo.v.&.) m.O.3 > , Z F U.] _ 7XuX}.N.JXT.OX1.M ! C.",
"W.R % y u 7 7 w $ $ . *.).xXh.F &.) F B <.u.;.b.L.{ l D G v v ) L H _ E K.^.#Xx.;XC ' r./ $ = 5 ) ' T Z R VXuXH.yXbXhXOXP D g.9.",
"=.$ t r 7 r w 8 * * 7 j.!.eXo.B B F $.r.u.q.I.R.;.6 F _ L ) 6.X.X.X.J R.n.DXeXeXn.C x.v.m > : x.7./ 9.e.iXyX>XoXyXhX:XB.S <.` ' ",
"q q *.u y w 7 * < 7 i s.W.Y.W _ B G O.2.M.G.Y.c.C F &.%.o.O.N F X.X.) n.>XDX,XL.^ x.m.G./ ' 9.U.N q.OXjXMXvX;X+X1XbXOXw.b M j T ",
"R +.P.@.+.* * % 7 r y j.e.R * x X.) O.;.m.x.u.F C ' 9.v.;./ N F O.9.&.Y.0XaXY.S.S.:.>XE.9.c.U.7.'.*X1XJX1XDX$X1XvX-X7.0.k a C =.",
"K.k.~.@.+.% < r u ~ -.~.b.w * D x q.&.m.;.%.O.R ' <.] e.&.<.r.c.q.e.V.%X7XQ.n.E.b.e.I.G.c.N.x.}.<X<XjXbXMXFX$X1XvXoXb 8.k O.7.I.",
"k.l.n.n.7 < i @.i k.l.L.t ~ o.= O.$XG.&.e E J o.^ / N ^ 9.i.I.9.;.c.H.:XQ.n.k.n.S.S.J.v.c.z.N.}.1X1XpXMXAXAX1XAX1Xy.| / S V.Z.rX",
"r *.-.y < 7 i 7 [ s.s.i ~ h.> ^ ;XS./ A o.4 0 F 6 F R ' c.I.b.&.=.q.qX>Xl.@.d.G.$XJ.T.i.N.1.| }.GX1XAXFXFX1XZX1X}.U I j ] ~.(.k.",
"F e #.r < 2 2 < y @.+.u W o.9 /.~.^ A O.m * w 6 9 C w ' &.$.^ ' %.|.:X-XP.*.S.%X8XT.M.9.O.t.y.@XCXSXSXAXAXkXAX XH P f Z Z.xX{ { ",
"> 7 r r 2 n.@.y [ j.:.o.%.6 S.).r q / e = %   * % 8 C %.O.D m F H.OXR.~.K.m.@X%X%XJ.v.v.c.i.B.@XGXAXZX1X=XdX<X|  .w.) E ~.E.z.n.",
"e 8 i P.@.~.j.h.L.>XT.%Xr.h.L.-.  4 8 6 > 4 & N R R o.e.<.B G N.U.b.h.P.n.v.$X%XT.T.+XG.N.}.oX1X1X1X}.&X].XX,.U  .,.J $.m.9.z.! ",
"q 7 l.l.-.@.n.L.2XiXjXwX&.j.l..   * % , : C e W c.e.2.G >.3.r./.h.f.f.P.K.U.:XT.Y.+X@XM.U.oXU.W.:X}. X=X{.1.a.4.1.) C W v.b.&.q ",
"% t { 0 [ h.(.~.hXuXVXc.R f.Q $ X % * O q ! $.m.-.X.<.,.B.0.S.-.n.Y.R./.K.,X6XT.#XN.#Xc.V.I.U.}.}.0.<X X|.}.'.{.N.] ] %.-Xg.x.1 ",
"9 C *.k.cX>X>XeXaXwXuXN +.R 4 X o ;.; R n.C I.{ x.X.<.M.{.D.r.' >XaX;Xn.K.#X$X:XoXM.c.z.c.}.OX{.0.&X&X X0.u.U.7.7.9.9.z.!.*.y % ",
"C ! -.vXFXNXtXiXmXmX;X! 0 8 X 5 T 9 & g.' ' A.I.i.3.3.i.|.p.q.N.yXyX0X/.$XW.V.:XU.c.7.c.N.}.{.].}.&X&X4.B.oXz.] c.z.] j.f.u 1 O ",
"-.&.eXSXFXDXvXVXhXuXo.* . $ N F 5 O t *.& q >Xx.L J 3.D.@Xu.u.B.gXmXaXaX/.q.m.tXU.N.c.c.N.}.XX&X$X&Xy.y.<Xz.] =.c.z.f.f.g.^ E V ",
"e.O.lXSXVXiXVXuX%Xv.% e   1 W F 5 $ u w   Z.>Xx.J %.w.|.w.1.y.|.jXFXbX6X' -.C.-XV.#X9.M.N.p.&X3X{. XN.B.N.7.z.=.9.g.s.g.^ ^ E O.",
"r.#XKXZXeX>XaXr.6.9 $ 8 . +.^ e.m 9 h.[ #.2XvX<.$.v.r.6.>.4.t.OXjXVXhX^ [ h.W.I.G.Y.c.v.u.{.&X}.}.}.N.7.7.c.C.] 7.g.*.=.$.9.' v.",
"G.wXCX#X%X0XM.) C $   e ~ $.W o.> ^ E.Z.g.bXtXE n.w.,.,.Y 5.}.%XCXVXe.-.l.R.V.H.-XW.OXw.8.H.%X].u.N.N.=.=.b.c.z.;.-.9.;.x.M.x.v.",
"W.tXY.+X:X7XO.&.@ q n.* u w ! 4 E q.hXT.c.iXT.' 6.>. .3. X`.<.:XVXT.$.k.A.] 9.pXgXsX<.v 2.|.@X8.7.u.z.=.=.b.c.c.9.{ { 9.x.v.x.;.",
"T.W.#XoXqXtXuX7.E P.k.u r [ h.6.%XlXqXi.G.>X! _ >.U U L 5. .@XCX3XR +.-.*.E tXMXgXt.A ,.p.|.U.P H F o.o.-.-.^ O.*.Q t ^ =.b.x.x.",
"2.+XB.r.pXMX;Xo.n.).*.~ R n.x.W.wXkXH.H.T.e.! 8.,.1.y.t.'.5.kXkXZ e ;.h.+.S.vXBXp.>.H 5.p.N.t.b z F 9.-.d.&.' $.! t o.E o.=.9.| ",
"7./.7.T.mXvXW.x.L.m./ E x.G.J.uXjXjXD.J.x.e.J.r.u.w.r.D.B.@XkXB.: g.b.#.;.6XiXhX6.Z A p.t.O.A g P v.K.h.&.O.' F Z -.$.C C L 1._ ",
"G.#XH.yXVXeXK.b.K.! &.%.V.%XH.dXGXwX6.c.I.R.#Xr.u.q.r.r.] uX}.m R L.h.K.^./.>X-XF E m _ _ A v x W c.E.h.F &.e F Z E 5 9 x P ] <.",
"2.Q.0XAXMXMXx.R.G.r.v.o.Q.-X@XfXZXoX6.I.S.K.U.9.2.O.U.7.M.N.M @ ' L.-X)._._.eXh.C ) E B <.| L > u /.E.e 0 ; > N > o f x L P O.6.",
"7.BXAXFXvX>XL.T.H.a.%.q.,X0XsXGX7XF.9.,X#X/.q.L O.&.j d ] B.s ] vXrXDX2XiXMXL.0 Q l j <.p.| G 1 m.tXE = @ : X 8 = 5 ) F D L %.L ",
"eXMXiXaX2X2X;XOX1.i.i.F.7XtXtXpXG.' yX7X6Xx.M c Z ; , l e.c 5.mXbXcXDXeXmX,X=.w 9 : Z Q.1.| ' r.tXx.: > = O   > , ^ ! $ x X.,.G ",
"MXcXiXxX_.tX}.3.,.3X+XF.M.E.iXtX7.W.iXW.c.A c s - 5 ' ) <.I %X:X/.cXDXtXpXM.! C f O &.%.Z X.D.<XR.C 9 : O     > / ;.5 l G 1.1.N.",
"vX2XrXrXBX<X4.U sXuXV.O.7.^.bXU.c.' v.9.S M d d : / ] ( 1.>.r.$.~.nXBXG.G.e $.> O f ' C E M.J.T.V , z x & o 9 8.c.N G P 2.8.P $X",
"vX2XrXcXhX@X .y.sX7.%.&.C.-X,Xv./ - q.8.S s @ d a 8.u.3.,.1./ K.eX7XY.E C Q q o o ^ V { -XH.M.M a z l 9 3 | %XH.%.L >.>.q.P >.mX",
"xX_.MX-XuX7X8.1./ E G.=.(.z.W.( p p O.<.j p a l T #X8.<.H Y m./.0XaXc.@ e w % o =.g.' -XtX7.S z l x B x g 8XhXM.1.>.0.r.8.>.#XvX",
"_.).DXyXiX}.3.b 7.$XB.;X' c.S p h S $XN.| S # M N.U.N.%.L M.OX>X6XS.F 5 k.T ! / L.;X&.rX=.E d B # l L  .}.JX<X( 1.t.t.#Xr.H.aX2X",
">XBXmX1X-X/ S r.H.<X0X7XM.7.a m _ w.BXT.( k x V.1X9.9.' ;.c.W.eXcX).7.x.C.-.9.i.6XV.m.E.;.9 l G M 6 <.u.@XqX] | 8.B.<X'.r.:XBXrX",
"cXFX:X2XV.%.c.OX#X;XDXH.K O.O.O.| $X,X=./ u.M.:XB./ ! C.v.x.-X:X;XE.e n.R.Q.M.:XT.U.>XI.J = l z l B _ G r.( v.N.| S 8.0.}.mXbXcX",
"JX1XG.^.q.W.,X:XG.7X0X| c.W.%.O.G.m.f.Z.OXM.x.8.M Z E.iXv.=.6XOXK.^ 1 :.>X#X*X:XI.r.W.&.l - l d ; j l a p p.<X] S | B.p.$XAXAXJX",
"FXG.U.}.I.pXCXH.H.N.M.J.E.m.X.+Xe.{ K.,X8.$.O.] Z v.pXMX^ { eXS.;.8 % J.;X6X$XG.6.T R , : - : = M M s a ( *XN.6.( I.N.U.1X1XJXLX",
"<X}.$X}.$XSX&X'.}.9.*X$X-.E O.q.v.%.>X$Xc.e.O.7.) $XAXh.1 L.2Xh.o.6 E W.hXtX-X] C o o = - d & = B a z f a.gX:X' ] / x.pX#XmXHXHX",
"&XXX X<XjXZX&X*X.X7XpX%.R C o.=.-X-.K.C g./ ) X.6.OX-Xk.*.m.^.q 8 ) K.MXjX:X;.& X % & : : d M s z l z L T.0XW.] ( @ Z.yX0XSXZX7X",
"<X X<X<XZX1X X<X|.mXI.$.9.X.F +.E.b.' 9 $._ L 2.u.R.>XZ.m.$.e , F v.FXVXhXx.4 o % ! 6 x c A b K d x x e.R.b.g.Z 5 x.MX,XbXJXgX|.",
"=X&X<X<X1X}.}.|.#XyX9.%.2.7.F k.C.g.^ O.|.3.6.O.E.E.rXm.' &.9.7.q.G.MXDXqXC T ! m.q.G <.U S H S z z P Y.k.-.r.5 T ;XtXtXCXZXp.*X",
"8X<XuX#XU.}.}.N.G.m.F +.&.%.R k.+.K.v.i.w.r.<.c.-X>XR.] v.:Xt.}.5.oXBXDXx.; %.V.9.z d v c h a c U G X.~.L.n.&.@ ' W.#XSXGX:X*XdX",
"sXwXpXE.-XN.| 7.e.R ^ e.J J F +.+.,X7.K P |.<.#XtXv.z.=.;X8.'.1.r.:X,X/.9.Z <.] f g b c h p z v >.F j.l.~.tXC 6 G.vXbXZXjXkXGXfX",
"wX1XMXvXV.| | 7.o.+.;.W ) _ X.) T.F._ A p.p.i.:X-X' x.Z.' <.7.M.M.' x.' 3 M C ' a I I b x n >.6.O.+.[ h.iXv.m $.6XW.AXjXZXSXCXHX",
"|.pXyXbX1.| ( 9.o.~ W X.2.0.O.r.@Xe f J q.M.o.:X7.7.c.E / M Z I.L v.T R 3 5 T ( p h b b b [.}.J.o.[ ~ :XQ.B D E.tX:XFXSXHXCXGXGX",
"oX|.AXkX .3.2.^ R R ' ] ] F _ X.N > e C q.Z ) ] ' V M Z j s 9.=.E $.V * 3 3 Z p p s k U [.3.T.&.+.0 &.-X*._ G.<XgXCXSXZXHXGXHXgX",
"B.H.SX&Xt.3.) +.9 E D T z : 9 , 9 4 O.e.M 9 o.X.r.S 7.j f N.U.m.{ ] ( O O a p g # h b `.a.w.r.=.^ & F v.F >.#X8XkXVXAXkXdX4XwX0X",
"i.+XsX{.P B C C F V , @ = & 4 e W ;.g.m 5 c.#X_ 7.' M ( c.-XuX,X9.<.G a # + S Y p I ].[.,.%.r < 8 e +.S.N 2.#X#XuXAXAXdX9X3XJ.@X",
"B.G.7X3.z : ;.l B ; O a - : C 9 F C V > ' :X#XOXc./ / :XsXwXhXr.c g s g p k U ..I ].4.G G 9 7   % 1 #.W.9 l :X7X*XGXCXjXaX.X.Xa.",
"J.J.p.M a _ 9.- d @ = O M ) 6.J R 8 8 e.<XdX*XH.M.<.N.gXwXoXt.# - c h c s S | {.| fXb J F =.% .   7 ^.C o 9.#X6.#X7X9XuXJ..X3X.X",
"F.0.P d z D.6 : , ; m F F r.W.o.q ^ ;.@XdX{.sX%XM.M.qXhX;., @ + a S h a p Y U U ].'.S O.E e %   < ~ ! % m ,Xe.q.J.3XwXa..X3X3Xi.",
"F.p.1.f / ' , d = q v.O.-.e.Y.o.9.e.7.;XqX@X@XOXU.oXsXI.M d - - s b k z I 1.K 5..XP E M 9 ;   8 e e 8 = R -.%.J.9X3XF.q.[.i.q.a.",
"3X.Xw.M j O : , B T.%.6.G.F.I.&.;.7.i.OX;XN.8./.I.#XoX_ x v , c b U  ...[.y.3.@XB.9 / N > 1 1 ;.R > e = ! O.q.G.a.q.q.a.q.W q.F.",
"dXp.r.A - O d m V.z.' W.H.x.m.+.^ X.>.v.$XN.V.#X-X9.L G d L ) P P U 5.XX X'.3.p.M 7.e.F 7 8 t *.* F o.e D D o.q.o.o.a.a.o.q.a.9X",
"fXp._ - ; C @ 5 ! Q -X7XG.b.-.$.' D G x.bXY.N.tXM.6.3.P H G A  ... . .XX`.I K z 9.e.r.+.e * Q . ~ 9 +.t w D o.2.L q.5Xa.q.a.dXlX",
".XL a @ m > 1 q t R.1X;Xb.$.^ O.F J <.,XBXT.m.9.v.|.>.J x z  .x n 4.4.,.b  .A O.7XM.:Xh.> e e #.n.^ o.= x L .X2. .=X=X=X3XfXfX4X",
"y.x B # , 0 r u f.2XeXR.;.g.O.L L ) ^ Y.vX$.! $.-XN.8.| M d z v I 4.I Y Y S M :X$XhX:X$.e 8 R E.o.o._ : z a.a. .a.=X5X5XzXlX=Xa.",
"a.>.d f q t r Q !._.!.Z.x.V.m.9.9.] $.>XZ.{ g.E.G.B.>.2.<.1.>.A b H b s j j B.:X6XQ.q.R 9 ' I.x.o.) J : L 3Xa...5.=X5XzXlXF.a.a.",
"%XA c m * < d.f.!._.P.k.=.z.g.=.] ! j._.n.g.Z.H./ F J 2.w.u.1.H | c h s s | H.-XS.:XO.+.$.b.;.~ o.) F l a.3X5.n `.zXzXfX.Xq..X3X",
"z.m m 4 4 C._.!.2X_.C.f.^ R ^ { ' R } _.f.Z.-Xm > f H P P Y P J I S S s q.8.|.Q.V.$X&.v.u.;.E g.e.F / F.a.a.n ..zXzXlX4Xq.i.a.iX",
"9 V 1 e w ~.!.xXxX(.A.k.F 9 e *.d.u f.A.g.W.9 = O B L G Y ] _ ,.H k x 6.F.0.W.>X>XaXS.#XF.&.e.;.9 B X.|. ...5.=XzXzXlX3Xv.a.&.W "
};
