/* XPM */
static char *_b4b75a0d92442fac4db4ae7326ea07b[] = {
/* columns rows colors chars-per-pixel */
"64 64 210 2 ",
"   c #050505",
".  c #070804",
"X  c #0B0B06",
"o  c #0D0D09",
"O  c #100F05",
"+  c #100F0A",
"@  c #131307",
"#  c #1C1B06",
"$  c #14130B",
"%  c #18170E",
"&  c #1B1A0D",
"*  c #171510",
"=  c #181710",
"-  c #1D1B11",
";  c #201F0D",
":  c #211F12",
">  c #242307",
",  c #24230C",
"<  c #28270C",
"1  c #2C2B0C",
"2  c #312F06",
"3  c #302F0D",
"4  c #313006",
"5  c #34330D",
"6  c #39370C",
"7  c #3C3B0C",
"8  c #242214",
"9  c #292616",
"0  c #2C2A15",
"q  c #2A2719",
"w  c #2D2A19",
"e  c #312E14",
"r  c #312E1B",
"t  c #353214",
"y  c #393613",
"u  c #3D3B13",
"i  c #35321C",
"p  c #39361D",
"a  c #3D391B",
"s  c #343220",
"d  c #3A3720",
"f  c #3D3922",
"g  c #413E0D",
"h  c #413E13",
"j  c #413E1B",
"k  c #413D24",
"l  c #444307",
"z  c #484706",
"x  c #4D4D06",
"c  c #44430B",
"v  c #48460D",
"b  c #4D4B0C",
"n  c #514F0D",
"m  c #5C5B07",
"M  c #53510B",
"N  c #59570C",
"B  c #5D5B0C",
"V  c #454214",
"C  c #494615",
"Z  c #4D4A13",
"A  c #464319",
"S  c #4A461B",
"D  c #4D4A1A",
"F  c #514F13",
"G  c #504D1A",
"H  c #555213",
"J  c #595614",
"K  c #5D5A13",
"L  c #55511B",
"P  c #5A561C",
"I  c #5E5A1C",
"U  c #615D12",
"Y  c #625E1B",
"T  c #636007",
"R  c #6F6E06",
"E  c #64620C",
"W  c #69660C",
"Q  c #6D6B0B",
"!  c #716F0D",
"~  c #737207",
"^  c #7B7A07",
"/  c #75730C",
"(  c #79760C",
")  c #7C7B0C",
"_  c #656213",
"`  c #696613",
"'  c #6D6A13",
"]  c #69651C",
"[  c #6A671D",
"{  c #726E14",
"}  c #736F1B",
"|  c #757213",
" . c #797613",
".. c #7D7A13",
"X. c #76721A",
"o. c #79761A",
"O. c #7D791A",
"+. c #454125",
"@. c #494520",
"#. c #4C4821",
"$. c #474228",
"%. c #494428",
"&. c #4F4A2B",
"*. c #524E24",
"=. c #534F2A",
"-. c #595523",
";. c #5F5A24",
":. c #5A5632",
">. c #615D22",
",. c #666223",
"<. c #6C6725",
"1. c #6E6A21",
"2. c #676128",
"3. c #726E21",
"4. c #726E2B",
"5. c #757121",
"6. c #797523",
"7. c #7D7923",
"8. c #7B7728",
"9. c #827F07",
"0. c #817E0C",
"q. c #827E13",
"w. c #817E1C",
"e. c #837F22",
"r. c #817C28",
"t. c #858407",
"y. c #8C8B06",
"u. c #85830C",
"i. c #89860C",
"p. c #8C8A0C",
"a. c #918F07",
"s. c #918E0C",
"d. c #939207",
"f. c #989707",
"g. c #9D9B07",
"h. c #95930C",
"j. c #99960D",
"k. c #9D9A0C",
"l. c #858213",
"z. c #898613",
"x. c #8D8A13",
"c. c #86821A",
"v. c #8A861C",
"b. c #8D8A1B",
"n. c #918E14",
"m. c #918D1B",
"M. c #959213",
"N. c #999613",
"B. c #9D9A13",
"V. c #96921B",
"C. c #9A961B",
"Z. c #9E9A1B",
"A. c #A19F06",
"S. c #A19E0C",
"D. c #A29E13",
"F. c #A29D1B",
"G. c #A4A207",
"H. c #A9A606",
"J. c #AAA807",
"K. c #A5A20C",
"L. c #A9A60C",
"P. c #ADAA0C",
"I. c #B1AF06",
"U. c #B1AE0B",
"Y. c #B6B406",
"T. c #B5B20B",
"R. c #B8B50D",
"E. c #BDB90C",
"W. c #A5A213",
"Q. c #A9A613",
"!. c #ADA914",
"~. c #A6A11B",
"^. c #AAA51A",
"/. c #AEA91A",
"(. c #B1AD14",
"). c #B2AD1B",
"_. c #B5B113",
"`. c #B9B513",
"'. c #BDB812",
"]. c #B6B11B",
"[. c #BAB51A",
"{. c #BEB91B",
"}. c #868322",
"|. c #8B8623",
" X c #8E8A21",
".X c #8B8728",
"XX c #928D22",
"oX c #918D29",
"OX c #969122",
"+X c #999523",
"@X c #9E9923",
"#X c #99942B",
"$X c #9F9A29",
"%X c #9D9637",
"&X c #A29D23",
"*X c #A29C2D",
"=X c #A6A221",
"-X c #AAA522",
";X c #AEA924",
":X c #B2AD21",
">X c #B3AD2D",
",X c #B7B123",
"<X c #BAB422",
"1X c #BFB928",
"2X c #C3BF0F",
"3X c #C2BD16",
"4X c #C3BE1A",
"5X c #C9C50D",
"6X c #C6C115",
"7X c #C8C31A",
/* pixels */
"l.w p w w p Z $X}.V././.m.H & + X $ + c t.h.b.n.M.x.Z w 8 % q i q.-XZ.^.F.B.x.j w r 9 w S N.!.F.&X&X+X} p i p q w D -X,X].~.~.^.",
"(.q.p p w : - -..XOX/.!.F.@X] : + $ - @ g h.M.c.F.F.B.F & : i w p v.V.~.B.j.!.~.u q i 8 9 & x.F.C.*X%X^.O.8 8 i a q S ].^.M.Z.@X",
"!.^.r.=.f w 8 $.4.XX&X-X).[.C.l X + $ + $ J n.N.B.Q.(./.L 9 q s r 8 ! ^.S.k.!.].^.L q q 8 & j l.B.m. X^.M.' t = 8 = 8 C x.V.x.V.",
"/.).=XO.a : & k +.<.oX*X^.(.C./ v $ $ $ @ : U (.B.P.L.(.-X;.: % w w p { L.P.J.N.Z.C.S 8 w w i 0 ` m.V.D.p.u./ < * $ + % u M.S.W.",
"D.B./.K.! $ - w w d ;.V.Z.^.n.u./ M + 8 : : 8 U J.K.k.(.(.$XF $ 9 p f i ' R.L.k.M.~.C.6 r p 8 % , ' h.j.i.u.W.u.1 + $ + $ u N.L.",
"P.&X).W.y.K w w - 8 w P ).~.K.y.u.t.F w 8 - 8 & v k.W.B.B.Z.p.G q p w 9 , ( P.U._.-XV.p.A w - $ X & ^ f.y.u.j.g.l.# X + o + 0 Q.",
"D.3XD.W.M.N._ q q 8 % d G F.N.s.( t.l.] : & 8 $ $ b h.S.D.Q.(.W.Z d w 9 9 i c.(.`.4XW.W.q.t 8 % % & , 9.y.h.g.h.B./ X $ % & - h ",
"3 D.(.S.L.W.M.3.p 8 : & : 7 u.M.) u.x.x.v 8 & $ $ & U D.B.n.:X,X=XI 9 w 8 8 0 ) R.{.^.D.N.b.t % % 8 - % R K.K.p.h.i.R & $ + % $ ",
". 7 A.P.(./.F.v.1.p w 8 & % 7 u.s.i.h.N.x.F 9 $ $ 9 8 _ D.W.,X<X,X,X] w = - & r q././.Z.Z.B.R 1 X : 8 * @ ^ K.u.i.k.T.( 1 o % o ",
"+ % 6 f.3X/.m.Z.v.] 8 : 9 & o 6 y.a.y.M.l.O.L + % 9 : - _ ,X;X,X;X,X;XI % q q i p { ].Z.B.h.u.^ 5 * 8 8 % , ..h.s.k.P.T.u.< + % ",
"& $ o 5 S.D.x.M.N.M.W 8 d - + & g u.p.Q.x.q.z.H + - : % 8 ] `./.;XZ.;X~.K q i i 8 $.6.N.j.h.h.)  .7 & 8 : 8 e ! j.h.S.A.k.( # & ",
"- ; $ % 3 D.j.j.h.Z.N.' w 8 - 8 8 u ~.C.x.l.M.z.' & : q 9 $ n `.].W.1X[.z.V 8 i p k a W j.B.z.z.x.{ y r p r & < E / s.s.k.f.^ & ",
"; % : 9 8 t h.L.B.D.B.)...q 8 w r q C V.N.W.N.N./.m % $ X . + T P.Q.].>XM.O.S 8 p i i p O.D.P.K.N.s.| e q : $ + & ( G.K.P.S.h.0.",
"j.3 = : ; o < u.W.!.].).'.l.0 w +.f w I ~.M.c.OXB.k.M $ + X X $ E !.Q.m.Z.x.i.Z r p f i i q.W.[.D.l.l.q.e o + + o & 9.k.Q.B.k.W.",
").h.3 + $ o o 1 u.!.P.'.[.6Xb.a p w w w P q.c.b.p.s.i.M X o $ $ $ m B.Z.V.h.x.v.L w $.d 8 0 ! ).B.s.l.i...u : : & $ ; R D.B.B.L.",
"L.D.i.5 $ X o o 5 s.W.Q.)._._.O.9 0 w f w S ..! u.u.u.d.x   % 8 & $ J ^.N.Z. Xc.v.,.i q q % , ` W.x.O.) i.v.u - : 9 r e ..s.i.k.",
"D.N.L.h., X X X $ t n.D.Q.(.P.C.x.w w w : 8 h ) u.) ( d.f.m * - : : r M P.k.}.+XC.Z.,.w : q , & B W.OXv.c.OXO.u q p r k 1 E n.B.",
"!.Q.K.P.a.&   $ % - 1 k.B.P.(.S.L.q.r w 9 w 9 h !.N.p.f.I.P.E & - : : : M k.m.B.Q.].+XL 8 - - & & ( D.B.F.0.l.w.*.d 8 d - 9 | W.",
"D.Q.K.g.U.i.& $ $ $ % e l.(.(.D.L.K. .r = - : 9 L p.k.A.U.J.U._ 8 : 0 8 $ c h./._._.(.!.J r : 9 - , z.B.V.v.O.V.XXj 8 8 : - , q.",
"0.S.B.j.K._.( # + 9 % $ y n./.Z.D.Q.S.{ & - r 8 & g s.k.J.A.f.h.K 8 : - $ + N L.!.I.T.5X).P q w & + - ..=X8.1.V.!.x.6 - % & $ < ",
"t  .W._.K.K.d.) 3 9 - - & h V.;X^./.[./.| , 9 : - $ F p.A.g.i.B.h.z $ $ $ $ - K Q.L.(.3XQ.M.2.r - o + 9 X.$Xo.Z.(.L.z.h $ $ $ $ ",
"$ , ( (.L.L.G.R.c.e : : & : u h.!.^././.~...w 8 9 : & Z h.h.p.d.h.s.N o o $ $ % M G.B.S.W.W.XX;.& $ : : 0 6.b.N.(.B.B.0.u * $ + ",
"& - , u.P.Y.P.L.K.^ 0 9 & & $ > s.n.C.D.^.].c.- 9 : 8 : 7 N.j.d.s.j.S.m + - & $ $ Z i.m.XXQ.~.b.c + - & 9 e _ h.W.M.z.( / 3 $ & ",
"8 & % 0 i.K.K.K.L.P.t.9 - - & 8 y j.s.M.B.j.m.q.: : 9 % % V K.K.k.W.K.p.M 8 q $ $ : H N.b.n.W.j.u.c : q 8 - 9 _ z.l.n.p.s.( > % ",
"% $ $ = < p.!.k.y.h.P.y., o $ 8 - e i.S.d.i. .N.q.8 $ & q 8 c h.j.j.j.p.u.M % $ - : $ n 0.z.W.N.W.j.G f 9 - : w U x.B.f.f.S.y.1 ",
"h & & 8 8 0 u.j.p.h.g.P.t.& X - 9 - < u.j.j.S.k.K.` & % $ % - c u.z.) ) 0.0.b $ : - - : n s.j.Q.~.M.M.V % : 8 & + T L.j.K.L.L.y.",
"N.g = & % % , W h.B.g.B.p.T & 8 w : % 6 p.j.h.h.x.i.U & $ + 8 8 Z c.| / ~ s.n.b - 8 f 8 : n n.F.=XD.B.0.6 % - - + @ E g.S.D.P.G.",
"K.p.u . % $ X , ^ T.k.S.u.) E p w w : q g i.y.g.h.h.h.R + . 8 = 8 V p.y.p.p.n.u.H w +.w * $ v &X-X].P.j.) C . - - $ % E Q.B.K.L.",
"U.P.A.2 + % X X , ~ h.d.i.~ ..` 9 : % & $ ; 9.d.d.p.d.j.T . & & - $ 5 y.a.l.| ' 5.K s : $ $ : Y :XQ.K.Q.x.u.c % 8 - % ; ' D.W.L.",
"I.L.P.d.1 + $ X o & W h.y.t.) M.i.# + $ $ X ; t.d.d.S.h.h.Q + & $ . o 1 ~ ....w..Xe.Z : - - 8 8 _ (.I.S.u.g.S.c $ $ + $ , | L.P.",
"L.G.S.K.z.5 $ o o . $ l.M.j.f.g.S.9.@ X $ $ % 1 y.L.K.M.N.K.R & $ $ $ % 5 y.w.e.#Xc.X.S , $ & - - E L.H.y.K.Y.S.c 8 + $ % - ~ K.",
"H.k.k.n.M.B.5 + $ $ $ 1 o.V.D.D.k.S.t.< : : : % u h.L.W.h.M.D.W % + $ % . v X.8.b...l.o.v - & $ $ $ m f.d.f.K.I.P.Z + $ % + $ R ",
"Q S.h.h.h.S.0.5 $ & $ : a ..D.j.S.N.k.l.3 : : $ o 4 u.d.y.i.K.g.m # o . o % j 6.V.v.|.V.u.l o - * $ $ M f.s.k.P.W.s.v $ : - * & ",
"; N s.h.N.n.M.v.D - % q s a c.D.~.b.x.~.) 0 8 - $ + 1 ~ p.u.h.d.y.m + $ + + 8 h z.V.m.z.l.s.x * & * $ o l j.N.s.B.U.j.Z $ : & * ",
"$ $ ' k.k.}.Z.~. Xu : q d - e 0.B.x.c.N.k.l.8 < % X $ p | i.h.y.a.y.R + + % - w S V.B.h.K.s.i.U o @ $ $ @ h M.k.K.U.K.K.F : - $ ",
". & ; ' ~.).~.v.V.z.y 8 q 8 q 1 ..m.V.V.K.j.z.; . + o o < 0.j.d.h.z.g.Q $ 8 8 9 9 ;.j.s.z.s.h.m.g X & % & - M h.K.K.g.A.k.v $ o ",
". $ % 9 ..^.m.i.x.M.w.#.- : s q i 7.x.x.j.p.Q.9.& X @ X - 0 ^ p.h.z.B.B.' 1 : q r r C  ./ ..z.N.( g $ & - o X M f.f.K.J.I.A.g o ",
"+ $ : % 8 ` z.b.M.M.N.w.y q %.f : w { k.M.i.n.h.u.1 $ + $ - 1 i.L.~.F.#XXX_ 0 w q 8 - 7 /  .z.b.^ 0.l + $ X . X m A.I.K.W.P.f.7 ",
"n o 8 & 9 r v b.~.s.i.l.| G f +.- $ , | N.z.l.i.L.9., . + - & V V.B.(.@XXXe.>.f s r - 8 Z x.+XV.p.s.z.v   o X X o x U.D.h.W.P.f.",
"S.` & 8 r s w K x.x.s.i.M.N.-.r w : % <  .x.i.y.!.L.z., & w & q u b.(.^.V.&X-X| f +.$ q i L XXz.j.P.K.y.T   + X o X M L.s.A.W.G.",
"T.K.Z r q : w 0 ` x.s.W.P.W.v.@.$.9 8 8 a ' l.G.K.P.P.M.p q w q 8 t W._.F.=XQ.D.X.8 + 8 q 8 y N.A.K.A.G.d.N + $ : o @ Z p.N.D.G.",
"P.U.k.Z 8 - 8 8 q ' M.k.N.Z.C.w.#.i i - q w ~ k.L.k.n.Q.h.w - q : : 0 Q.Q.F./.S.W...: : : q 8 4 i.k.L.U.h.p.M $ % X X & V p.k.k.",
"K.L.G.h.g $ o % : 9 ` M.c.oXOXXXc.u - % & 8 9 ^ P.P.h.g./.OXa - - % . 5 h.`.E.U.E.4Xz.1 8 w - $ 6 ) h.d.g.h.j.U $ $ $ - : K n.h.",
"S.W.k.k.h.v . $ : - 8 _ V.Z.V.D.N.c.j % % & & , p.E.G.k.M.=X}.p $ $ $ $ 6 B.T.T.R.4X`.z.j 9 $ & % 7 ( u.K.h.k.h.H 8 8 ; - : M d.",
"j.K.W.D._.N.l $ : - 8 8 _ K.p.s.x.N.l.6 = r 8 $ e i.K.N.b.V.b. .5 - $ $ $ 7 s.U.K.E.'.`.b.i 8 8 9 q u q.M.y.k.B.n.` % 8 : $ $ b ",
"l !.W.L.W.D.Z.I - - 9 : & K x.z.p.M.s.u.D w 8 - % < ~ j.q. .O.M.l.< - $ $ - h !.P.I./.[.).O.+.d d +.w *.b.y.k.B.N.B._ - % % $ & ",
"% B '.^.L._.6X:XJ % & $ & ; W z.p./ h.j.l.t - % : : & / ..o...b.N./ 8 : : - 9 g L.2XQ.Z.V.V.X.8 0 i w : 5 N.s.h.d.h.h.N $ - & & ",
"X $ ' '.'.4X7X{.!.H 8 - & 8 & Q B.x.u...m...y & % ; & 8 0.0.W.Z.+XV.q.a & $ : - u _.`.Z.M.D.~.u.w q 9 & % v k.B.N.x.s.l.F : % + ",
"@ + $ W P.[.4X[.[.U.H & & - $ : W i.u.) i.l.l.y % : 8 * & R b.b.C.~.F.V.0 $ - & % C k.(.^.Y.E.(.o.p 8 : q 9 J x.n.l.h.M.l.Z $ X ",
"$ $ . O ` 6X[.).~.Q.L.g o - & X $ B x.) x.s.~.M.u % $ % + p ] M.h.V.N.k.u.1 + $ & + V Z.'.E._.Q.Z.O.p 0 p q q D o.M.b.b...l.b X ",
"$ $ $ - 0 { {.W.m.k.!.f.n : - X + $ M i.u.x.Z.N.N.h o + & - & Q N.a.d.0.j.u., $ $ o + V K.Y.R.^.~.!./ 8 q q w i A M.b.V.0.z.( b ",
"J w - $ - 9 B -X+XB.K.K.L._ - o $ & w J n.N.b.B.].V.u + & & $ & W u.d.^ u.W. .& 8 & % = 5 P.R.`.!.K.M.` r i p i 8 D Z.x.x.i...Q ",
"l.J : w 8 0 f 3.~.W.L.A.N.W.I : 8 i i 9 ] +XW.j.k.C.b.y $ $ & $ & m y.p.y.N.z.! 8 8 8 = - D T.R.W.L.M.W. .* w w 9 8 L b.h.s.| O.",
"Z.V.J r +.: s p J u.h.h.N.F.C.I q : i f +.' z.N.k.B.).N.6 $ X $ & 8 ) K.k.k.B.L.z.t w p f d V j.T.!.j.h.N.{ 0 q & 8 w I Z.Q.V. X",
"h.C.V.1.0 i 8 % 8 N D.h.x.Z.F.b.S q p w q 0 W u.i.W._.].N.1 o $ 8 8 e u.N.C.C.W.B.X.t q q w 8 y v.Z.l.Q.L.B.' w % 8 i f ,.@X+XV.",
"+XV.V.XXJ s 8 $ - 9 5.OXN.^.V.}.c.H q 8 - & 0 M y.B.W.!.Q.l.5 * q q 8 t 6.b.Z.^.Z.x...a r i q i S o.x.S.!.W.N.' 9 r w +.w C OX X",
"Q.h.b.V.M.[ % $ $ - w 1.)./.V.Z.V.b.] % - & 8 8 M K.B.B.Z. X..6 & 8 % q p _ B.^.Q./.Q.x.y f d f s A x.M.XXj.D.Q.v.p i r 8 - D m.",
"D.Q.V.v.m.Z.N o % 9 : i Y C.m.M.N.x.c.c o o 8 - ; ' W.N.=Xc.V.l.u - 9 q i a X./.N.N.B.M.| =.:.d +.f D OX7.B.^.~.V.O.8 q w i w C ",
"h Z.Z.V.D.N.H.W : : - p 9 J B.k.N.z.u.M.Z % & & = w | M.l.B.m... .a & r &.k a C.W.B.!.F.V.c.=.i &.w s *.+X+X/.Z...b.6.f r i 0 $ ",
"8 L l.C.+XB.W.M.N 8 : w 9 & K K.L.^ b.M.i.7 & - & - 0 W b.M.O.z.b.w.u i i k r a C.~.!.~.b.B.b.@.r 8 i f A &X[.=Xz.n.N.5.p i 8 $ ",
"w w C ..m.=X/.N.x.K 8 8 8 : : N j.z.l. .u.( V 8 8 & % - E B.c.x.z.F.F.A 8 8 9 r @.q.W.N.N.K.K.n.< - : r 8 S v.XXx.p.h.n.` a 9 8 ",
"w & : D OX=X/.M.N.n.b q 9 8 - & n i.l./ ( p.x.b * 8 q 8 & ' N.C.x.C.~.B.V * : w d a O.Q.(.L.D.F.x.y w d 9 & y X.l.u.z.Z.M.o.9 & ",
"w 9 9 f ;.$X~.h.N.x.M._ s 8 8 & $ 7 i.u.u.D.^.N.7 % 8 i 8 0 K /.j.x.M.D.p.g = 8 w i e v.<X_.L.F.=X X=.r f r 8 a W l.z.m.c.Z.o.r ",
"w q q 9 w -.Z.m.m.Z.=XZ.J : % * X o c u.h.n.V.M.V.H 8 w q ; ; { W.Z.^.L.Q.p.y & w a - @./.T.!.].>X~.}.f f i f i p z.N.-XOX=X:Xw."
};
